# Blender v2.93.5 OBJ File: 'tankSg.blend'
# www.blender.org
mtllib ShermanChassis.mtl
o Gusineca_01_Mesh
v 0.237307 0.537577 -2.266125
v 0.237307 0.537577 -3.156114
v -0.237306 0.537577 -3.156114
v -0.237306 0.537577 -2.266125
v 0.237307 0.303771 -3.458383
v -0.237306 0.303771 -3.458383
v 0.237307 -0.049856 -3.490212
v -0.237306 -0.049856 -3.490212
v 0.237307 -0.270665 -3.265720
v -0.237306 -0.270665 -3.265720
v 0.237307 -0.664916 -2.301514
v -0.237306 -0.664916 -2.301514
v 0.237307 -0.664916 -0.553362
v -0.237306 -0.664916 -0.553362
v 0.237307 -0.664916 1.173559
v -0.237306 -0.664916 1.173559
v 0.237306 -0.664916 2.296404
v -0.237307 -0.664916 2.296404
v 0.237306 -0.422441 2.625845
v -0.237307 -0.422441 2.625845
v 0.237306 -0.186772 2.944563
v -0.237307 -0.186772 2.944563
v 0.237306 0.083593 3.110692
v -0.237307 0.083593 3.110692
v 0.237306 0.400351 3.031002
v -0.237307 0.400351 3.031002
v 0.237306 0.565888 2.751840
v -0.237307 0.565888 2.751840
v 0.237306 0.555592 1.138156
v -0.237307 0.555592 1.138156
v 0.237307 0.565888 -0.539207
v -0.237306 0.565888 -0.539207
v -0.237306 0.439331 -3.122550
v 0.237307 0.439331 -3.122550
v 0.237307 0.433760 -2.265265
v -0.237306 0.433760 -2.265265
v -0.237306 0.253896 -3.367317
v 0.237307 0.253898 -3.367317
v -0.237306 -0.014066 -3.392753
v 0.237307 -0.014066 -3.392753
v -0.237306 -0.183973 -3.208588
v 0.237307 -0.183973 -3.208588
v -0.237306 -0.563048 -2.281491
v 0.237307 -0.563048 -2.281491
v -0.237306 -0.561099 -0.553362
v 0.237307 -0.561099 -0.553362
v -0.237306 -0.561099 1.173559
v 0.237306 -0.561099 1.173559
v -0.237307 -0.566280 2.264012
v 0.237306 -0.566280 2.264012
v -0.237307 -0.338894 2.564220
v 0.237306 -0.338894 2.564220
v -0.237307 -0.116572 2.868076
v 0.237306 -0.116572 2.868076
v -0.237307 0.099338 3.008072
v 0.237306 0.099338 3.008072
v -0.237307 0.338265 2.947781
v 0.237306 0.338265 2.947781
v -0.237307 0.465762 2.724387
v 0.237306 0.465762 2.724387
v -0.237307 0.451771 1.138156
v 0.237306 0.451771 1.138156
v -0.237306 0.462069 -0.538356
v 0.237307 0.462069 -0.538356
vt 0.072126 0.051086
vt 0.072126 0.185837
vt 0.000269 0.185837
vt 0.000269 0.051086
vt 0.072126 0.005234
vt 0.000269 0.005234
vt 0.072126 0.000275
vt 0.000269 0.000275
vt 0.072664 0.034286
vt 0.072664 0.000275
vt 0.144522 0.000275
vt 0.144522 0.034286
vt 0.072664 0.180313
vt 0.144522 0.180313
vt 0.072664 0.444992
vt 0.144522 0.444992
vt 0.072664 0.706451
vt 0.144522 0.706451
vt 0.072664 0.876465
vt 0.144522 0.876465
vt 0.072664 0.926315
vt 0.144522 0.926315
vt 0.072664 0.974548
vt 0.144522 0.974548
vt 0.072664 0.999664
vt 0.144522 0.999664
vt 0.072126 0.987793
vt 0.072126 0.999725
vt 0.000269 0.999725
vt 0.000269 0.987793
vt 0.072126 0.945602
vt 0.000269 0.945602
vt 0.072126 0.701279
vt 0.000269 0.701279
vt 0.072126 0.447311
vt 0.000269 0.447311
vt 0.144522 0.185684
vt 0.072664 0.185684
vt 0.072664 0.055878
vt 0.144522 0.055878
vt 0.072664 0.018845
vt 0.144522 0.018845
vt 0.072664 0.015015
vt 0.144522 0.015015
vt 0.000269 0.015045
vt 0.072126 0.015045
vt 0.072126 0.042847
vt 0.000269 0.042847
vt 0.072126 0.183060
vt 0.000269 0.183060
vt 0.072126 0.444717
vt 0.000269 0.444717
vt 0.072126 0.706177
vt 0.000269 0.706177
vt 0.072126 0.871277
vt 0.000269 0.871277
vt 0.072126 0.916824
vt 0.000269 0.916824
vt 0.072126 0.962921
vt 0.000269 0.962921
vt 0.072126 0.984207
vt 0.000269 0.984207
vt 0.144522 0.984131
vt 0.072664 0.984131
vt 0.072664 0.974976
vt 0.144522 0.974976
vt 0.072664 0.941132
vt 0.144522 0.941132
vt 0.072664 0.700974
vt 0.144522 0.700974
vt 0.072664 0.447144
vt 0.144522 0.447144
vt 0.072126 0.056137
vt 0.072126 0.185928
vt 0.144522 0.050797
vt 0.144522 0.185547
vt 0.072126 0.018997
vt 0.144522 0.005051
vt 0.072126 0.034164
vt 0.144522 0.042923
vt 0.072126 0.179993
vt 0.144522 0.183334
vt 0.072126 0.444672
vt 0.144522 0.444977
vt 0.072126 0.706131
vt 0.000269 0.706131
vt 0.072664 0.871536
vt 0.000269 0.876129
vt 0.144522 0.706436
vt 0.144522 0.871536
vt 0.072126 0.876129
vt 0.072126 0.926117
vt 0.144522 0.916977
vt 0.072126 0.974472
vt 0.144522 0.962952
vt 0.072126 0.975174
vt 0.144522 0.987564
vt 0.072126 0.941406
vt 0.144522 0.945282
vt 0.072126 0.701233
vt 0.144522 0.700958
vt 0.072126 0.447403
vt 0.144522 0.447006
vn 0.0000 0.9463 -0.3233
vn 0.0000 1.0000 -0.0082
vn 0.0000 0.4804 -0.8771
vn 0.0000 -0.3447 -0.9387
vn 0.0000 -0.8350 -0.5502
vn 0.0000 -0.9812 -0.1929
vn 0.0000 -1.0000 0.0000
vn 0.0000 -0.9501 0.3120
vn 0.0000 -0.8047 0.5937
vn 0.0000 -0.6762 0.7368
vn 0.0000 -0.1517 0.9884
vn 0.0000 0.5980 0.8015
vn 0.0000 0.9652 0.2614
vn 0.0000 1.0000 -0.0001
vn 0.0000 1.0000 -0.0051
vn 0.0000 -1.0000 0.0049
vn 0.0000 -0.9489 0.3154
vn 0.0000 -0.4869 0.8735
vn 0.0000 0.3574 0.9339
vn 0.0000 0.8437 0.5368
vn 0.0000 0.9813 0.1923
vn 0.0000 1.0000 -0.0006
vn 0.0000 1.0000 0.0024
vn 0.0000 0.9487 -0.3162
vn 0.0000 0.8021 -0.5972
vn 0.0000 0.6869 -0.7268
vn 0.0000 0.1633 -0.9866
vn 0.0000 -0.6049 -0.7963
vn 0.0000 -0.9677 -0.2521
vn 0.0000 -1.0000 0.0013
vn 0.0000 -1.0000 0.0051
vn -1.0000 -0.0000 0.0000
vn 1.0000 -0.0000 0.0000
usemtl Material_#6
s 1
f 3/1/1 4/2/2 1/3/2
f 1/3/2 2/4/1 3/1/1
f 6/5/3 3/1/1 2/4/1
f 2/4/1 5/6/3 6/5/3
f 8/7/4 6/5/3 5/6/3
f 5/6/3 7/8/4 8/7/4
f 10/9/5 8/10/4 7/11/4
f 7/11/4 9/12/5 10/9/5
f 12/13/6 10/9/5 9/12/5
f 9/12/5 11/14/6 12/13/6
f 14/15/7 12/13/6 11/14/6
f 11/14/6 13/16/7 14/15/7
f 16/17/7 14/15/7 13/16/7
f 13/16/7 15/18/7 16/17/7
f 18/19/8 16/17/7 15/18/7
f 15/18/7 17/20/8 18/19/8
f 20/21/9 18/19/8 17/20/8
f 17/20/8 19/22/9 20/21/9
f 22/23/10 20/21/9 19/22/9
f 19/22/9 21/24/10 22/23/10
f 24/25/11 22/23/10 21/24/10
f 21/24/10 23/26/11 24/25/11
f 26/27/12 24/28/11 23/29/11
f 23/29/11 25/30/12 26/27/12
f 28/31/13 26/27/12 25/30/12
f 25/30/12 27/32/13 28/31/13
f 30/33/14 28/31/13 27/32/13
f 27/32/13 29/34/14 30/33/14
f 32/35/15 30/33/14 29/34/14
f 29/34/14 31/36/15 32/35/15
f 4/2/2 32/35/15 31/36/15
f 31/36/15 1/3/2 4/2/2
f 35/37/16 36/38/16 33/39/17
f 33/39/17 34/40/17 35/37/16
f 34/40/17 33/39/17 37/41/18
f 37/41/18 38/42/18 34/40/17
f 38/42/18 37/41/18 39/43/19
f 39/43/19 40/44/19 38/42/18
f 40/45/19 39/46/19 41/47/20
f 41/47/20 42/48/20 40/45/19
f 42/48/20 41/47/20 43/49/21
f 43/49/21 44/50/21 42/48/20
f 44/50/21 43/49/21 45/51/22
f 45/51/22 46/52/22 44/50/21
f 46/52/22 45/51/22 47/53/23
f 47/53/23 48/54/23 46/52/22
f 48/54/23 47/53/23 49/55/24
f 49/55/24 50/56/24 48/54/23
f 50/56/24 49/55/24 51/57/25
f 51/57/25 52/58/25 50/56/24
f 52/58/25 51/57/25 53/59/26
f 53/59/26 54/60/26 52/58/25
f 54/60/26 53/59/26 55/61/27
f 55/61/27 56/62/27 54/60/26
f 56/63/27 55/64/27 57/65/28
f 57/65/28 58/66/28 56/63/27
f 58/66/28 57/65/28 59/67/29
f 59/67/29 60/68/29 58/66/28
f 60/68/29 59/67/29 61/69/30
f 61/69/30 62/70/30 60/68/29
f 62/70/30 61/69/30 63/71/31
f 63/71/31 64/72/31 62/70/30
f 64/72/31 63/71/31 36/38/16
f 36/38/16 35/37/16 64/72/31
f 4/2/32 3/1/32 33/73/32
f 33/73/32 36/74/32 4/2/32
f 2/75/33 1/76/33 35/37/33
f 35/37/33 34/40/33 2/75/33
f 3/1/32 6/5/32 37/77/32
f 37/77/32 33/73/32 3/1/32
f 5/78/33 2/75/33 34/40/33
f 34/40/33 38/42/33 5/78/33
f 6/5/32 8/7/32 39/46/32
f 39/46/32 37/77/32 6/5/32
f 7/11/33 5/78/33 38/42/33
f 38/42/33 40/44/33 7/11/33
f 8/7/32 10/79/32 41/47/32
f 41/47/32 39/46/32 8/7/32
f 9/12/33 7/11/33 40/44/33
f 40/44/33 42/80/33 9/12/33
f 10/79/32 12/81/32 43/49/32
f 43/49/32 41/47/32 10/79/32
f 11/14/33 9/12/33 42/80/33
f 42/80/33 44/82/33 11/14/33
f 12/81/32 14/83/32 45/51/32
f 45/51/32 43/49/32 12/81/32
f 13/16/33 11/14/33 44/82/33
f 44/82/33 46/84/33 13/16/33
f 14/83/32 16/85/32 47/53/32
f 47/53/32 45/51/32 14/83/32
f 15/18/33 13/16/33 46/84/33
f 46/52/33 48/54/33 15/86/33
f 16/17/32 18/19/32 49/87/32
f 49/55/32 47/53/32 16/85/32
f 17/88/33 15/86/33 48/54/33
f 48/89/33 50/90/33 17/20/33
f 18/91/32 20/92/32 51/57/32
f 51/57/32 49/55/32 18/91/32
f 19/22/33 17/20/33 50/90/33
f 50/90/33 52/93/33 19/22/33
f 20/92/32 22/94/32 53/59/32
f 53/59/32 51/57/32 20/92/32
f 21/24/33 19/22/33 52/93/33
f 52/93/33 54/95/33 21/24/33
f 22/94/32 24/28/32 55/61/32
f 55/61/32 53/59/32 22/94/32
f 23/26/33 21/24/33 54/95/33
f 54/95/33 56/63/33 23/26/33
f 24/28/32 26/27/32 57/96/32
f 57/96/32 55/61/32 24/28/32
f 25/97/33 23/26/33 56/63/33
f 56/63/33 58/66/33 25/97/33
f 26/27/32 28/31/32 59/98/32
f 59/98/32 57/96/32 26/27/32
f 27/99/33 25/97/33 58/66/33
f 58/66/33 60/68/33 27/99/33
f 28/31/32 30/33/32 61/100/32
f 61/100/32 59/98/32 28/31/32
f 29/101/33 27/99/33 60/68/33
f 60/68/33 62/70/33 29/101/33
f 30/33/32 32/35/32 63/102/32
f 63/102/32 61/100/32 30/33/32
f 31/103/33 29/101/33 62/70/33
f 62/70/33 64/72/33 31/103/33
f 32/35/32 4/2/32 36/74/32
f 36/74/32 63/102/32 32/35/32
f 1/76/33 31/103/33 64/72/33
f 64/72/33 35/37/33 1/76/33
