# Blender v2.93.5 OBJ File: 'tankSg.blend'
# www.blender.org
mtllib ShermanGun.mtl
o gunpoint_mlya)))_Mesh.023
v 0.027000 0.012677 1.849360
v 0.047052 -0.035733 1.849360
v 0.027000 -0.084144 1.849360
v -0.021411 -0.104196 1.849360
v -0.069821 -0.084144 1.849360
v -0.089874 -0.035733 1.849360
v -0.069821 0.012677 1.849360
v -0.021411 0.032730 1.849360
v 0.048735 0.034413 -0.187053
v 0.077790 -0.035733 -0.187053
v 0.048735 -0.105879 -0.187053
v -0.021411 -0.134934 -0.187053
v -0.091557 -0.105879 -0.187053
v -0.120612 -0.035733 -0.187053
v -0.091557 0.034413 -0.187053
v -0.021411 0.063468 -0.187053
v -0.174637 -0.147255 0.060421
v -0.128804 -0.147255 0.060421
v -0.174637 0.078515 0.060421
v -0.128804 0.078515 0.060421
v 0.131815 -0.147255 0.060421
v 0.085982 -0.147255 0.060421
v 0.131815 0.078516 0.060421
v 0.085982 0.078516 0.060421
v 0.131815 -0.147255 -0.189829
v -0.174637 -0.147255 -0.189869
v -0.128804 -0.147255 -0.189869
v -0.174637 0.078516 -0.189869
v -0.128804 0.078516 -0.189869
v -0.266603 -0.098680 -0.248093
v -0.266603 0.062170 -0.255390
v -0.608626 -0.098680 -0.248093
v -0.608626 0.062170 -0.255390
v -0.205691 0.224630 -0.290498
v -0.277565 0.188294 -0.332421
v -0.608626 0.188294 -0.332421
v -0.217895 0.294003 -0.390958
v -0.294027 0.256391 -0.429921
v -0.608626 0.256391 -0.429922
v -0.124099 -0.232614 -0.252637
v 0.131815 -0.147255 -0.189908
v 0.085997 -0.147255 -0.189869
v 0.131815 0.078516 -0.189869
v 0.085982 0.078516 -0.189869
v 0.223782 -0.098680 -0.248093
v 0.223782 0.062170 -0.255390
v 0.565804 -0.098680 -0.248093
v 0.565804 0.062170 -0.255390
v 0.162870 0.224630 -0.290498
v 0.234743 0.188294 -0.332420
v 0.565804 0.188294 -0.332420
v 0.175074 0.294003 -0.390958
v 0.251205 0.256391 -0.429922
v 0.565804 0.256391 -0.429922
v 0.131554 -0.232400 -0.252611
v 0.223782 -0.227657 -0.290100
v 0.565804 -0.227657 -0.290100
v -0.174637 -0.147255 -0.245117
v -0.266603 -0.098680 -0.291844
v -0.608626 -0.098680 -0.291844
v -0.608626 0.047798 -0.302698
v -0.608626 0.154245 -0.365244
v -0.608626 0.224352 -0.442481
v -0.124099 -0.228380 -0.287230
v 0.565804 -0.098680 -0.291844
v 0.565804 0.047798 -0.302698
v 0.565804 0.154245 -0.365244
v 0.565804 0.224352 -0.442482
v 0.131554 -0.228166 -0.287203
v 0.223782 -0.216821 -0.322731
v 0.565804 -0.216821 -0.322731
vt 0.816345 0.482391
vt 0.812912 0.482391
vt 0.813080 0.331299
vt 0.818054 0.331314
vt 0.809204 0.482391
vt 0.807693 0.331314
vt 0.820404 0.653778
vt 0.823914 0.653687
vt 0.823235 0.804169
vt 0.818146 0.804321
vt 0.827576 0.653778
vt 0.828537 0.804321
vt 0.547501 0.830215
vt 0.543716 0.830215
vt 0.543381 0.679138
vt 0.548859 0.679138
vt 0.540390 0.830215
vt 0.538559 0.679138
vt 0.816505 0.321442
vt 0.812912 0.321426
vt 0.812912 0.170334
vt 0.818115 0.170364
vt 0.809319 0.321442
vt 0.807709 0.170364
vt 0.935608 0.428421
vt 0.938324 0.425705
vt 0.942169 0.425743
vt 0.944885 0.428505
vt 0.944885 0.432388
vt 0.942169 0.435104
vt 0.938324 0.435074
vt 0.935608 0.432304
vt 0.159790 0.774444
vt 0.154160 0.774444
vt 0.150177 0.770461
vt 0.150177 0.764829
vt 0.154160 0.760846
vt 0.159790 0.760846
vt 0.163773 0.764829
vt 0.163773 0.770461
vt 0.402031 0.993065
vt 0.398636 0.993065
vt 0.398636 0.976540
vt 0.402031 0.976540
vt 0.226639 0.993240
vt 0.223244 0.993256
vt 0.223244 0.974731
vt 0.226639 0.974716
vt 0.916077 0.971573
vt 0.899399 0.971558
vt 0.899399 0.952988
vt 0.916077 0.953003
vt 0.992790 0.615799
vt 0.989395 0.615799
vt 0.989395 0.597229
vt 0.992790 0.597229
vt 0.982742 0.233627
vt 0.966187 0.233627
vt 0.966187 0.215057
vt 0.982742 0.215057
vt 0.343941 0.960960
vt 0.343941 0.944435
vt 0.347336 0.944435
vt 0.347336 0.960960
vt 0.993851 0.280609
vt 0.993851 0.299133
vt 0.990456 0.299149
vt 0.990456 0.280624
vt 0.753860 0.980148
vt 0.753860 0.961578
vt 0.770416 0.961578
vt 0.770416 0.980148
vt 0.209976 0.993286
vt 0.209976 0.974716
vt 0.213371 0.974716
vt 0.213371 0.993286
vt 0.818146 0.973679
vt 0.818146 0.955109
vt 0.834824 0.955124
vt 0.834824 0.973679
vt 0.349632 0.598053
vt 0.366165 0.598053
vt 0.365753 0.604874
vt 0.353889 0.604874
vt 0.365753 0.630249
vt 0.353889 0.630249
vt 0.378067 0.600357
vt 0.375908 0.605698
vt 0.375908 0.630249
vt 0.891113 0.568333
vt 0.894196 0.573666
vt 0.886688 0.572758
vt 0.883820 0.567112
vt 0.891113 0.543774
vt 0.883820 0.543774
vt 0.894196 0.601006
vt 0.886688 0.601910
vt 0.366165 0.594650
vt 0.366165 0.578720
vt 0.366165 0.575317
vt 0.378067 0.573013
vt 0.349632 0.578720
vt 0.349632 0.594650
vt 0.344139 0.594315
vt 0.344154 0.575348
vt 0.349632 0.575317
vt 0.353889 0.568497
vt 0.365753 0.568497
vt 0.353889 0.543121
vt 0.365753 0.543121
vt 0.375908 0.567688
vt 0.375908 0.543121
vt 0.891113 0.606339
vt 0.883820 0.607559
vt 0.891113 0.630898
vt 0.883820 0.630898
vt 0.344948 0.568497
vt 0.344948 0.543121
vt 0.860397 0.522444
vt 0.865158 0.515585
vt 0.868393 0.515682
vt 0.864487 0.522566
vt 0.865829 0.490253
vt 0.869064 0.490351
vt 0.663696 0.730316
vt 0.659149 0.719418
vt 0.662750 0.718876
vt 0.666626 0.728931
vt 0.660370 0.708614
vt 0.663635 0.709835
vt 0.664764 0.701015
vt 0.666626 0.702740
vt 0.360603 0.984299
vt 0.360603 0.992569
vt 0.357216 0.990265
vt 0.358307 0.983109
vt 0.524948 0.810104
vt 0.523300 0.828972
vt 0.520737 0.828751
vt 0.522369 0.809883
vt 0.436462 0.861275
vt 0.439072 0.849678
vt 0.442200 0.850533
vt 0.440140 0.861176
vt 0.439529 0.871765
vt 0.442535 0.869980
vt 0.445190 0.878517
vt 0.446716 0.876480
vt 0.525665 0.600876
vt 0.525665 0.513756
vt 0.528030 0.513744
vt 0.528030 0.537079
vt 0.528030 0.577526
vt 0.528030 0.600864
vt 0.444580 0.841309
vt 0.446716 0.842712
vt 0.522751 0.803062
vt 0.520279 0.802879
vt 0.524948 0.777817
vt 0.522476 0.777634
vt 0.239838 0.903381
vt 0.237793 0.926800
vt 0.234604 0.908108
vt 0.905258 0.799297
vt 0.905258 0.712284
vt 0.911362 0.712044
vt 0.911362 0.799053
vt 0.363731 0.640129
vt 0.371735 0.640179
vt 0.371735 0.727299
vt 0.363731 0.727249
vt 0.352844 0.727245
vt 0.344139 0.727272
vt 0.344139 0.701900
vt 0.352844 0.665497
vt 0.352844 0.640125
vt 0.239838 0.933422
vt 0.869064 0.552500
vn 0.7070 0.7070 0.0151
vn 0.9999 -0.0000 0.0151
vn 0.7070 -0.7070 0.0151
vn 0.0000 -0.9999 0.0151
vn -0.7070 -0.7070 0.0151
vn -0.9999 0.0000 0.0151
vn -0.7070 0.7070 0.0151
vn 0.0000 0.9999 0.0151
vn 0.0000 0.0000 1.0000
vn 0.0000 0.0000 -1.0000
vn 0.0000 -1.0000 -0.0000
vn 1.0000 0.0000 0.0000
vn -0.0000 1.0000 0.0000
vn -1.0000 0.0000 0.0000
vn -1.0000 -0.0000 -0.0001
vn -1.0000 -0.0001 -0.0000
vn -0.3030 -0.3091 0.9015
vn -0.3777 0.3552 0.8551
vn -0.3306 0.2541 0.9089
vn -0.3032 0.0432 0.9520
vn -0.0000 0.2925 0.9563
vn -0.0000 0.0453 0.9990
vn -0.3166 0.6413 0.6989
vn -0.3384 0.6209 0.7070
vn -0.0000 0.6851 0.7285
vn -0.3382 0.7492 0.5695
vn -0.2674 0.7682 0.5817
vn -0.0000 0.8198 0.5726
vn 0.3166 0.6413 0.6989
vn 0.3382 0.7492 0.5695
vn -0.0000 0.3939 0.9192
vn 0.3777 0.3552 0.8551
vn 0.0003 -0.4136 0.9105
vn -0.0000 -0.4132 0.9106
vn 0.0001 -0.5926 0.8055
vn 0.1803 -0.5837 0.7917
vn 0.3577 -0.3742 0.8556
vn 0.3036 -0.1087 0.9466
vn 0.3306 0.2541 0.9089
vn 0.0000 -0.1344 0.9909
vn 0.3384 0.6209 0.7070
vn 0.2674 0.7682 0.5817
vn 0.1804 -0.5837 0.7917
vn 0.2499 -0.3673 0.8959
vn 0.0000 -0.3097 0.9508
vn -0.6844 -0.7291 0.0000
vn -0.2740 -0.9617 0.0000
vn -0.2119 -0.9744 -0.0753
vn -0.5373 -0.8206 -0.1948
vn -0.5574 -0.8252 -0.0913
vn -0.4401 -0.8913 -0.1091
vn 0.0012 -0.9926 -0.1215
vn -0.1197 -0.8691 -0.4799
vn 0.0000 0.3650 -0.9310
vn 0.0000 0.4287 -0.9035
vn -0.0000 0.7195 -0.6945
vn -0.0000 0.4286 -0.9035
vn -0.0019 -0.9552 -0.2961
vn -0.0389 -0.9236 -0.3813
vn -0.0000 -0.9490 -0.3152
vn -0.0003 0.4606 -0.8876
vn -0.0000 -0.6307 -0.7760
vn -0.0000 -0.7405 -0.6721
vn -0.0029 -0.2973 -0.9548
vn -0.0000 -0.2980 -0.9546
vn 0.0221 0.1034 -0.9944
vn 0.0312 0.2286 -0.9730
vn -0.0000 0.2529 -0.9675
vn -0.0590 -0.2008 -0.9778
vn 0.0000 -0.0739 -0.9973
usemtl 01_-_Default
s 1
f 1/1/1 2/2/2 10/3/2
f 10/3/2 9/4/1 1/1/1
f 2/2/2 3/5/3 11/6/3
f 11/6/3 10/3/2 2/2/2
f 3/7/3 4/8/4 12/9/4
f 12/9/4 11/10/3 3/7/3
f 4/8/4 5/11/5 13/12/5
f 13/12/5 12/9/4 4/8/4
f 5/13/5 6/14/6 14/15/6
f 14/15/6 13/16/5 5/13/5
f 6/14/6 7/17/7 15/18/7
f 15/18/7 14/15/6 6/14/6
f 7/19/7 8/20/8 16/21/8
f 16/21/8 15/22/7 7/19/7
f 8/20/8 1/23/1 9/24/1
f 9/24/1 16/21/8 8/20/8
f 7/25/9 6/26/9 5/27/9
f 5/27/9 4/28/9 3/29/9
f 3/29/9 2/30/9 1/31/9
f 5/27/9 3/29/9 1/31/9
f 7/25/9 5/27/9 1/31/9
f 7/25/9 1/31/9 8/32/9
f 10/33/10 11/34/10 12/35/10
f 12/35/10 13/36/10 14/37/10
f 14/37/10 15/38/10 16/39/10
f 12/35/10 14/37/10 16/39/10
f 10/33/10 12/35/10 16/39/10
f 10/33/10 16/39/10 9/40/10
f 17/41/9 18/42/9 20/43/9
f 20/43/9 19/44/9 17/41/9
f 26/45/11 27/46/11 18/47/11
f 18/47/11 17/48/11 26/45/11
f 27/49/12 29/50/12 20/51/12
f 20/51/12 18/52/12 27/49/12
f 29/53/13 28/54/13 19/55/13
f 19/55/13 20/56/13 29/53/13
f 28/57/14 26/58/14 17/59/14
f 17/59/14 19/60/14 28/57/14
f 21/61/9 23/62/9 24/63/9
f 24/63/9 22/64/9 21/61/9
f 25/65/11 21/66/11 22/67/11
f 22/67/11 42/68/11 25/65/11
f 42/69/14 22/70/15 24/71/14
f 24/71/14 44/72/16 42/69/14
f 44/73/13 24/74/13 23/75/13
f 23/75/13 43/76/13 44/73/13
f 43/77/12 23/78/12 21/79/12
f 21/79/12 25/80/12 43/77/12
f 26/81/17 28/82/18 31/83/19
f 31/83/19 30/84/20 26/81/17
f 30/84/20 31/83/19 33/85/21
f 33/85/21 32/86/22 30/84/20
f 31/83/19 28/82/18 34/87/23
f 34/87/23 35/88/24 31/83/19
f 33/85/21 31/83/19 35/88/24
f 35/88/24 36/89/25 33/85/21
f 35/90/24 34/91/23 37/92/26
f 37/92/26 38/93/27 35/90/24
f 36/94/25 35/90/24 38/93/27
f 38/93/27 39/95/28 36/94/25
f 49/96/29 52/97/30 37/92/26
f 37/92/26 34/91/23 49/96/29
f 34/87/23 28/82/18 29/98/31
f 44/99/31 43/100/32 49/101/29
f 29/98/31 44/99/31 49/101/29
f 49/101/29 34/87/23 29/98/31
f 42/102/33 27/103/34 40/104/35
f 40/104/35 55/105/36 42/102/33
f 41/106/37 45/107/38 46/108/39
f 46/108/39 43/100/32 41/106/37
f 45/107/38 47/109/40 48/110/21
f 48/110/21 46/108/39 45/107/38
f 46/108/39 50/111/41 49/101/29
f 49/101/29 43/100/32 46/108/39
f 48/110/21 51/112/25 50/111/41
f 50/111/41 46/108/39 48/110/21
f 50/113/41 53/114/42 52/97/30
f 52/97/30 49/96/29 50/113/41
f 51/115/25 54/116/28 53/114/42
f 53/114/42 50/113/41 51/115/25
f 42/102/33 55/105/43 41/106/37
f 41/106/37 55/105/43 56/117/44
f 56/117/44 45/107/38 41/106/37
f 45/107/38 56/117/44 57/118/45
f 57/118/45 47/109/40 45/107/38
f 26/119/46 30/120/47 59/121/48
f 59/121/48 58/122/49 26/119/46
f 30/120/47 32/123/11 60/124/11
f 60/124/11 59/121/48 30/120/47
f 32/125/14 33/126/14 61/127/14
f 61/127/14 60/128/14 32/125/14
f 33/126/14 36/129/14 62/130/14
f 62/130/14 61/127/14 33/126/14
f 36/129/14 39/131/14 63/132/14
f 63/132/14 62/130/14 36/129/14
f 40/133/50 26/134/46 58/135/49
f 58/135/49 64/136/51 40/133/50
f 55/137/52 40/138/50 64/139/51
f 64/139/51 69/140/53 55/137/52
f 48/141/12 47/142/12 65/143/12
f 65/143/12 66/144/12 48/141/12
f 51/145/12 48/141/12 66/144/12
f 66/144/12 67/146/12 51/145/12
f 54/147/12 51/145/12 67/146/12
f 67/146/12 68/148/12 54/147/12
f 68/149/54 63/150/54 39/151/54
f 68/149/54 39/151/54 38/152/55
f 37/92/56 52/97/56 53/114/57
f 38/93/55 37/92/56 53/114/57
f 68/149/54 38/152/55 53/153/57
f 68/149/54 53/153/57 54/154/54
f 47/142/12 57/155/12 71/156/12
f 71/156/12 65/143/12 47/142/12
f 56/157/58 55/137/52 69/140/53
f 69/140/53 70/158/59 56/157/58
f 57/159/60 56/157/58 70/158/59
f 70/158/59 71/160/60 57/159/60
f 58/161/61 69/162/61 64/163/61
f 44/99/31 29/98/31 27/103/34
f 27/103/34 42/102/33 44/99/31
f 27/103/34 26/81/17 40/104/35
f 67/164/62 62/165/62 63/166/63
f 63/166/63 68/167/63 67/164/62
f 61/168/64 62/169/62 67/170/62
f 61/168/64 67/170/62 66/171/65
f 61/168/64 66/171/65 65/172/66
f 61/168/64 65/172/66 71/173/67
f 71/173/67 70/174/68 59/175/69
f 61/168/64 71/173/67 59/175/69
f 61/168/64 59/175/69 60/176/70
f 70/177/59 69/162/53 58/161/49
f 58/122/49 59/121/48 70/178/59
