# Blender v2.93.5 OBJ File: 'tankSg.blend'
# www.blender.org
mtllib ShermanHead.mtl
o Ğ¡ombat_Tower_Mesh.021
v 0.015490 0.095461 0.923995
v 0.036559 0.063460 0.947335
v -0.005578 0.063473 0.947349
v 0.015490 0.146452 0.980044
v 0.036559 0.130564 1.016141
v -0.005578 0.130564 1.016141
v 0.015490 0.173732 0.980740
v 0.036559 0.187620 1.017598
v -0.005578 0.187620 1.017598
v 0.015490 0.206770 0.950193
v 0.036559 0.249952 0.959965
v -0.005578 0.249952 0.959965
v 0.015490 0.186998 0.900609
v 0.036559 0.218387 0.880805
v -0.005578 0.218387 0.880805
v 0.015490 0.153508 0.861828
v 0.036559 0.174229 0.820351
v -0.005578 0.174243 0.820352
v 0.917652 0.084989 -0.564879
v 1.061699 0.058820 -0.288905
v 1.120905 0.048422 0.130772
v 1.084927 0.045494 0.507941
v 0.901607 0.038362 0.862311
v 0.727763 0.027996 0.972433
v 0.516566 -0.100238 -1.059536
v 0.779856 0.106801 -0.759461
v 1.037791 0.208498 0.130815
v 0.988311 0.208498 0.423279
v 0.712876 0.208637 0.748654
v 0.598134 -0.105168 -1.004496
v 0.588840 -0.057593 -0.999595
v 0.396355 -0.153025 -1.086814
v 0.395877 -0.110501 -1.074748
v 0.889160 0.145597 -0.565844
v 1.049188 0.139960 -0.274970
v 1.094515 0.134337 0.130953
v 1.056587 0.132159 0.472165
v 0.851085 0.137555 0.817632
v 0.707060 0.137867 0.892663
v 0.519795 -0.144638 -1.070716
v 0.809140 0.062362 -0.759483
v 0.721622 0.129449 -0.759480
v 0.395976 -0.077067 -1.040194
v 0.496696 -0.068642 -1.032202
v 0.548142 -0.030536 -0.976373
v 0.519795 -0.500163 -1.071627
v 0.706250 -0.575457 -0.759663
v 1.026695 -0.575457 -0.401840
v 1.185907 -0.575457 0.130579
v 1.134879 -0.575457 0.612386
v 0.929884 -0.575457 1.025190
v 0.653738 -0.575457 1.253023
v 0.598140 -0.518909 -0.995853
v 0.396010 -0.495618 -1.090001
v 0.575211 0.003916 1.146659
v 0.575211 -0.163629 1.289728
v 0.575211 -0.374256 1.310728
v 0.575186 -0.501469 1.262834
v 1.006706 0.208495 -0.260779
v 0.746423 0.208490 -0.668108
v 0.575211 0.027996 0.972433
v -0.886671 0.084989 -0.564879
v -1.030718 0.058819 -0.288905
v -1.089924 0.048421 0.130772
v -1.053946 0.045494 0.507941
v -0.870626 0.038362 0.862311
v -0.696756 0.027996 0.972433
v -0.485585 -0.100238 -1.059536
v -0.748875 0.106801 -0.759461
v -1.006811 0.208498 0.130816
v -0.957330 0.208498 0.423279
v -0.681895 0.208637 0.748654
v -0.567153 -0.105168 -1.004496
v -0.560471 -0.057593 -0.996631
v -0.365374 -0.153025 -1.086814
v -0.364896 -0.110501 -1.074748
v -0.858179 0.145597 -0.565844
v -1.018207 0.139960 -0.274970
v -1.063534 0.134337 0.130953
v -1.025606 0.132158 0.472165
v -0.820104 0.137555 0.817632
v -0.676105 0.137867 0.892663
v -0.488814 -0.144639 -1.070716
v -0.778159 0.062362 -0.759483
v -0.690641 0.129449 -0.759480
v -0.363693 -0.077067 -1.040195
v -0.465715 -0.068642 -1.032202
v -0.524451 -0.036310 -0.983648
v -0.488814 -0.500163 -1.071627
v -0.675270 -0.575457 -0.759663
v -0.995714 -0.575457 -0.401840
v -1.154926 -0.575457 0.130579
v -1.103899 -0.575457 0.612386
v -0.898903 -0.575457 1.025190
v -0.622757 -0.575457 1.253023
v -0.567159 -0.518909 -0.995853
v -0.365029 -0.495618 -1.090001
v -0.544230 0.003916 1.146659
v -0.544230 -0.163629 1.289728
v -0.544230 -0.374256 1.310728
v -0.544205 -0.501469 1.262834
v -0.331980 0.331041 -0.530237
v -0.297585 0.208490 -0.668108
v -0.075265 0.331041 -0.340222
v 0.046539 0.208492 -0.413386
v -0.028100 0.331041 -0.024336
v 0.109756 0.208495 0.010083
v -0.218116 0.331041 0.232380
v -0.144947 0.208495 0.354185
v -0.534002 0.331041 0.279544
v -0.568391 0.208495 0.417400
v -0.790717 0.331041 0.089529
v -0.912520 0.208495 0.162680
v -0.837882 0.331041 -0.226357
v -0.975725 0.208495 -0.260779
v -0.647866 0.331041 -0.483073
v -0.715442 0.208490 -0.668108
v -0.432991 0.356703 -0.125347
v -0.544230 0.027996 0.972433
v 0.441088 0.170992 -0.714975
v 0.569943 0.094838 -0.814662
v 0.290329 0.123856 -0.776722
v 0.268424 0.000382 -0.938158
v 0.395976 0.170986 -1.040194
v 0.548142 0.170986 -0.976373
v 0.569943 0.170986 -0.814662
v 0.290329 0.170986 -0.776722
v 0.268424 0.170986 -0.938158
v 0.418984 0.192314 -0.876847
vt 0.146889 0.986731
vt 0.139759 0.986731
vt 0.140163 0.983696
vt 0.145779 0.983891
vt 0.935274 0.697239
vt 0.935359 0.702173
vt 0.932234 0.702169
vt 0.932149 0.697235
vt 0.627377 0.982634
vt 0.632992 0.982439
vt 0.633408 0.985464
vt 0.626278 0.985464
vt 0.149921 0.983788
vt 0.147232 0.982483
vt 0.935277 0.693008
vt 0.932152 0.693003
vt 0.625923 0.981226
vt 0.623245 0.982517
vt 0.150097 0.977516
vt 0.147324 0.979158
vt 0.935359 0.688349
vt 0.932234 0.688343
vt 0.625835 0.977900
vt 0.623077 0.976242
vt 0.144260 0.975101
vt 0.143665 0.977646
vt 0.989699 0.749672
vt 0.989703 0.743919
vt 0.992829 0.743927
vt 0.992826 0.749672
vt 0.629494 0.976385
vt 0.628914 0.973825
vt 0.138763 0.974318
vt 0.139874 0.977417
vt 0.989703 0.753990
vt 0.992829 0.753990
vt 0.633286 0.976156
vt 0.634411 0.973042
vt 0.854720 0.642494
vt 0.857323 0.640769
vt 0.857323 0.643430
vt 0.985262 0.667290
vt 0.982136 0.667290
vt 0.983699 0.664162
vt 0.330894 0.627182
vt 0.325333 0.637871
vt 0.319962 0.627602
vt 0.299759 0.653122
vt 0.295853 0.648033
vt 0.515625 0.600113
vt 0.515797 0.621513
vt 0.509853 0.625443
vt 0.509895 0.600380
vt 0.515797 0.570976
vt 0.510544 0.570114
vt 0.858891 0.881540
vt 0.853371 0.874443
vt 0.858891 0.866346
vt 0.239723 0.993649
vt 0.236511 0.977618
vt 0.239723 0.974716
vt 0.684937 0.757927
vt 0.685402 0.751801
vt 0.711609 0.749783
vt 0.715374 0.755547
vt 0.511658 0.547775
vt 0.222794 0.640717
vt 0.214989 0.630104
vt 0.245171 0.649414
vt 0.459030 0.532219
vt 0.463696 0.514214
vt 0.494343 0.513741
vt 0.505848 0.533005
vt 0.684948 0.742573
vt 0.710220 0.740658
vt 0.509262 0.532875
vt 0.507053 0.547966
vt 0.504486 0.569115
vt 0.503422 0.600471
vt 0.503311 0.628197
vt 0.511066 0.649971
vt 0.503506 0.653496
vt 0.731800 0.514214
vt 0.731777 0.524796
vt 0.723576 0.523155
vt 0.724415 0.510406
vt 0.714939 0.749325
vt 0.718861 0.754604
vt 0.993236 0.270008
vt 0.989488 0.251465
vt 0.993236 0.248737
vt 0.514969 0.875797
vt 0.509102 0.854338
vt 0.512177 0.852804
vt 0.716118 0.740337
vt 0.717339 0.747757
vt 0.713428 0.740417
vt 0.511108 0.847389
vt 0.730457 0.770927
vt 0.733574 0.768509
vt 0.457661 0.560326
vt 0.678635 0.528282
vt 0.678776 0.508102
vt 0.457905 0.665451
vt 0.457100 0.635941
vt 0.456944 0.600540
vt 0.684116 0.534096
vt 0.723576 0.534470
vt 0.880142 0.331779
vt 0.880142 0.248737
vt 0.893135 0.248741
vt 0.893135 0.331787
vt 0.721680 0.617271
vt 0.709160 0.617088
vt 0.709160 0.534058
vt 0.721680 0.534241
vt 0.693523 0.617065
vt 0.693523 0.534027
vt 0.684116 0.617126
vt 0.678635 0.622963
vt 0.935028 0.712044
vt 0.935028 0.756691
vt 0.924561 0.748962
vt 0.921234 0.733025
vt 0.927376 0.718605
vt 0.330894 0.524574
vt 0.319962 0.524132
vt 0.723576 0.617508
vt 0.731777 0.627388
vt 0.325333 0.513893
vt 0.295853 0.503700
vt 0.299759 0.498657
vt 0.446606 0.580032
vt 0.440880 0.579735
vt 0.441181 0.554626
vt 0.447071 0.558586
vt 0.446377 0.609169
vt 0.441116 0.609993
vt 0.439320 0.647003
vt 0.441921 0.632225
vt 0.447071 0.640450
vt 0.733574 0.657696
vt 0.727291 0.659702
vt 0.725304 0.655529
vt 0.680832 0.686329
vt 0.706097 0.684361
vt 0.678635 0.671806
vt 0.709068 0.669426
vt 0.706154 0.675240
vt 0.127274 0.976936
vt 0.121803 0.951176
vt 0.127274 0.948298
vt 0.245171 0.502342
vt 0.214989 0.521660
vt 0.222794 0.511086
vt 0.389088 0.646881
vt 0.435909 0.646851
vt 0.424141 0.665794
vt 0.393505 0.664871
vt 0.679947 0.677261
vt 0.437317 0.631989
vt 0.435040 0.610916
vt 0.434410 0.579575
vt 0.434681 0.551796
vt 0.442734 0.529922
vt 0.435223 0.526337
vt 0.731800 0.638168
vt 0.724415 0.641861
vt 0.723576 0.628815
vt 0.709312 0.684193
vt 0.712662 0.669674
vt 0.709515 0.675259
vt 0.714512 0.672253
vt 0.712009 0.684196
vt 0.712132 0.676632
vt 0.721870 0.653618
vt 0.427700 0.665268
vt 0.388103 0.619003
vt 0.678776 0.643745
vt 0.389790 0.513741
vt 0.388580 0.543434
vt 0.387936 0.578896
vt 0.925735 0.428135
vt 0.918083 0.421576
vt 0.911942 0.407156
vt 0.915268 0.391207
vt 0.925735 0.383467
vt 0.295418 0.532555
vt 0.276543 0.507027
vt 0.274185 0.500031
vt 0.238838 0.569115
vt 0.233864 0.578186
vt 0.214989 0.552658
vt 0.224754 0.550072
vt 0.262238 0.572609
vt 0.265236 0.582870
vt 0.281265 0.558502
vt 0.290733 0.563965
vt 0.284760 0.535072
vt 0.270676 0.516029
vt 0.247269 0.512535
vt 0.228249 0.526634
vt 0.961369 0.124107
vt 0.971292 0.122002
vt 0.971292 0.152967
vt 0.254662 0.542564
vt 0.274185 0.651711
vt 0.008720 0.546150
vt 0.023926 0.515549
vt 0.044411 0.498657
vt 0.139114 0.498657
vt 0.159599 0.515549
vt 0.174805 0.546150
vt 0.178589 0.581879
vt 0.166779 0.621353
vt 0.143005 0.647881
vt 0.040520 0.647881
vt 0.016747 0.621353
vt 0.004936 0.581879
vt 0.119995 0.672577
vt 0.063530 0.672577
vt 0.054352 0.671204
vt 0.048538 0.665535
vt 0.134987 0.665535
vt 0.129173 0.671204
vt 0.195740 0.594711
vt 0.188461 0.604195
vt 0.188461 0.547844
vt 0.189018 0.540268
vt 0.192505 0.535904
vt 0.208504 0.523521
vt 0.988594 0.170337
vt 0.988594 0.190443
vt 0.982464 0.180558
vt 0.374426 0.753620
vt 0.370346 0.748226
vt 0.374426 0.737169
vt 0.204544 0.617050
vt 0.211655 0.607468
vt 0.207253 0.596298
vt 0.514969 0.840969
vt 0.879174 0.977325
vt 0.884823 0.977287
vt 0.884823 0.986713
vt 0.894064 0.791683
vt 0.894064 0.802944
vt 0.890568 0.802933
vt 0.979828 0.753193
vt 0.979828 0.756684
vt 0.967964 0.756556
vt 0.967964 0.743919
vt 0.921803 0.159721
vt 0.909193 0.159721
vt 0.909869 0.150627
vt 0.928205 0.150627
vt 0.284149 0.971049
vt 0.284149 0.985975
vt 0.272072 0.985931
vt 0.272072 0.980291
vt 0.909514 0.139130
vt 0.924412 0.139130
vt 0.813171 0.614527
vt 0.813164 0.626671
vt 0.802662 0.620491
vt 0.802563 0.632574
vt 0.812965 0.638693
vt 0.823597 0.632885
vt 0.823597 0.620647
vn 0.8845 0.1906 -0.4258
vn 0.8809 0.3389 -0.3305
vn 0.8765 0.3477 -0.3329
vn 0.8820 0.1981 -0.4276
vn 0.0000 -0.7159 0.6982
vn -0.8843 0.1885 -0.4273
vn -0.8817 0.3490 -0.3175
vn -0.8768 0.3518 -0.3278
vn -0.8820 0.1888 -0.4317
vn 0.8818 -0.1663 -0.4414
vn 0.0000 -0.0255 0.9997
vn -0.8818 -0.1663 -0.4414
vn 0.9030 -0.4191 -0.0948
vn 0.0000 0.6789 0.7342
vn -0.9030 -0.4191 -0.0948
vn 0.8693 -0.4316 0.2407
vn 0.8748 -0.4218 0.2381
vn 0.0000 0.8751 -0.4839
vn 0.0000 0.9289 -0.3704
vn -0.8696 -0.4224 0.2556
vn -0.8749 -0.4181 0.2446
vn 0.8846 -0.3649 0.2903
vn 0.8972 -0.3343 0.2887
vn 0.0002 0.8075 -0.5898
vn -0.8831 -0.3708 0.2875
vn -0.8904 -0.3677 0.2685
vn -0.0004 -0.5894 -0.8078
vn -0.0003 -0.8945 -0.4470
vn 0.1511 0.7494 0.6447
vn 0.4819 0.7249 0.4923
vn 0.1130 0.9617 0.2498
vn 0.7932 0.5537 0.2535
vn 0.3835 0.9140 0.1321
vn 0.4644 0.8856 0.0108
vn 0.8929 0.4501 0.0077
vn 0.4957 0.8550 -0.1528
vn 0.8867 0.3777 -0.2666
vn 0.2386 0.7343 -0.6356
vn 0.2984 0.8572 -0.4197
vn 0.7040 0.5472 -0.4528
vn 0.4999 0.6502 -0.5722
vn 0.8270 -0.0057 -0.5622
vn 0.4587 0.0048 -0.8886
vn 0.3829 0.1114 -0.9170
vn 0.6976 0.0637 -0.7137
vn 0.8231 -0.0610 -0.5646
vn 0.7867 0.1866 -0.5884
vn 0.0745 0.0092 -0.9972
vn 0.0607 0.1376 -0.9886
vn 0.8467 0.1738 -0.5028
vn 0.9429 0.1182 -0.3115
vn 0.9807 0.1951 -0.0099
vn 0.9186 0.2719 0.2867
vn 0.6882 0.3905 0.6115
vn 0.2608 0.4865 0.8339
vn 0.2634 0.4481 -0.8543
vn 0.4242 0.5010 -0.7543
vn 0.1166 0.7679 -0.6299
vn 0.0062 0.7392 -0.6734
vn 0.0419 0.7508 -0.6592
vn 0.0354 0.5027 -0.8637
vn 0.8783 -0.0132 -0.4779
vn 0.4063 0.1933 0.8930
vn 0.7521 0.1979 0.6286
vn 0.9485 0.1269 0.2901
vn 0.9954 0.0715 -0.0632
vn 0.1907 0.1073 0.9758
vn -0.0000 0.5530 0.8332
vn -0.0000 0.8773 0.4800
vn -0.0000 0.9906 0.1369
vn 0.0000 0.3922 0.9199
vn -0.0000 -0.1300 0.9915
vn -0.0000 -0.3523 0.9359
vn -0.4063 0.1933 0.8930
vn -0.1907 0.1073 0.9758
vn 1.0000 -0.0001 -0.0002
vn 1.0000 -0.0000 -0.0000
vn 1.0000 -0.0001 -0.0000
vn 1.0000 -0.0001 -0.0001
vn 1.0000 -0.0000 -0.0004
vn -0.1511 0.7493 0.6447
vn -0.1130 0.9617 0.2498
vn -0.4819 0.7249 0.4923
vn -0.3835 0.9140 0.1321
vn -0.7932 0.5537 0.2535
vn -0.4644 0.8856 0.0108
vn -0.8929 0.4501 0.0077
vn -0.7565 0.6110 -0.2332
vn -0.8860 0.3735 -0.2748
vn -0.5165 0.5727 -0.6366
vn -0.7161 0.5477 -0.4327
vn -0.3687 0.7291 -0.5766
vn -0.1538 0.7309 -0.6649
vn -0.0745 0.0092 -0.9972
vn -0.0607 0.1376 -0.9886
vn -0.8270 -0.0057 -0.5622
vn -0.6957 0.0695 -0.7149
vn -0.3829 0.1114 -0.9170
vn -0.4587 0.0048 -0.8886
vn -0.8231 -0.0610 -0.5646
vn -0.7827 0.1774 -0.5966
vn -0.8553 0.1807 -0.4857
vn -0.9398 0.1246 -0.3181
vn -0.9807 0.1951 -0.0099
vn -0.9186 0.2719 0.2867
vn -0.6882 0.3905 0.6115
vn -0.2607 0.4865 0.8339
vn -0.0355 0.5028 -0.8637
vn -0.4401 0.4847 -0.7559
vn -0.2655 0.4510 -0.8521
vn -0.1552 0.7342 -0.6609
vn 0.0003 0.7458 -0.6661
vn -0.0602 0.7289 -0.6820
vn -0.8783 -0.0132 -0.4779
vn -0.7521 0.1979 0.6286
vn -0.9485 0.1269 0.2901
vn -0.9954 0.0715 -0.0632
vn -1.0000 -0.0001 -0.0002
vn -1.0000 -0.0000 -0.0004
vn -1.0000 -0.0001 -0.0001
vn -1.0000 -0.0001 -0.0000
vn -0.0000 1.0000 -0.0004
vn 0.0000 1.0000 -0.0000
vn 0.3781 0.8975 -0.2271
vn 0.5599 0.7573 -0.3363
vn 0.1991 0.7566 -0.6228
vn 0.1306 0.9038 -0.4076
vn 0.4280 0.8975 0.1067
vn 0.6337 0.7573 0.1581
vn 0.2271 0.8975 0.3781
vn 0.3363 0.7573 0.5599
vn -0.1068 0.8975 0.4280
vn -0.1581 0.7572 0.6337
vn -0.3781 0.8975 0.2271
vn -0.5599 0.7572 0.3363
vn -0.4280 0.8975 -0.1068
vn -0.6250 0.7664 -0.1483
vn -0.2216 0.9272 -0.3019
vn -0.2700 0.8312 -0.4860
vn -0.0042 0.8528 -0.5222
vn -0.0000 1.0000 -0.0003
vn 0.0000 -1.0000 -0.0000
vn 0.0004 -0.9969 -0.0785
vn -0.0004 -0.9969 -0.0785
vn 0.0006 -0.9720 -0.2349
vn 0.0000 -0.9707 -0.2401
vn -0.0015 -0.9722 -0.2341
vn -0.0135 -0.9738 -0.2270
vn 0.0040 -0.9727 -0.2320
vn -0.0000 -0.9707 -0.2402
vn 0.0004 0.7955 -0.6060
vn 0.0287 0.7850 -0.6188
vn -0.0006 0.7849 -0.6196
vn 0.0017 0.7934 -0.6087
vn 0.9793 0.0000 0.2024
vn 0.9252 0.0000 0.3794
vn 0.2563 0.0000 0.9666
vn -0.7909 0.0000 0.6119
vn -0.8744 0.0000 0.4852
vn -0.9284 0.0000 -0.3715
vn -0.8320 0.0000 -0.5548
vn -0.1383 0.0000 -0.9904
vn -0.0975 0.0000 -0.9952
vn 0.6643 0.0000 -0.7475
vn 0.7938 0.0000 -0.6082
vn 0.1198 0.9916 0.0492
vn -0.0001 1.0000 0.0003
vn 0.0174 0.9916 0.1282
vn -0.1026 0.9916 0.0794
vn -0.1207 0.9915 -0.0485
vn -0.0178 0.9917 -0.1270
vn 0.1029 0.9916 -0.0789
usemtl 01_-_Default
s 1
f 5/1/1 2/2/2 1/3/3
f 1/3/3 4/4/4 5/1/1
f 6/5/5 3/6/5 2/7/5
f 2/7/5 5/8/5 6/5/5
f 4/9/6 1/10/7 3/11/8
f 3/11/8 6/12/9 4/9/6
f 8/13/10 5/1/1 4/4/4
f 4/4/4 7/14/10 8/13/10
f 9/15/11 6/5/11 5/8/11
f 5/8/11 8/16/11 9/15/11
f 7/17/12 4/9/6 6/12/9
f 6/12/9 9/18/12 7/17/12
f 11/19/13 8/13/10 7/14/10
f 7/14/10 10/20/13 11/19/13
f 12/21/14 9/15/14 8/16/14
f 8/16/14 11/22/14 12/21/14
f 10/23/15 7/17/12 9/18/12
f 9/18/12 12/24/15 10/23/15
f 14/25/16 11/19/13 10/20/13
f 10/20/13 13/26/17 14/25/16
f 15/27/18 12/28/19 11/29/19
f 11/29/19 14/30/18 15/27/18
f 13/31/20 10/23/15 12/24/15
f 12/24/15 15/32/21 13/31/20
f 17/33/22 14/25/16 13/26/17
f 13/26/17 16/34/23 17/33/22
f 18/35/24 15/27/18 14/30/18
f 14/30/18 17/36/24 18/35/24
f 16/37/25 13/31/20 15/32/21
f 15/32/21 18/38/26 16/37/25
f 2/39/27 3/40/27 1/41/27
f 18/42/28 17/43/28 16/44/28
f 39/45/29 38/46/30 29/47/31
f 38/46/30 37/48/32 28/49/33
f 28/49/33 29/47/31 38/46/30
f 27/50/34 28/51/33 37/52/32
f 37/52/32 36/53/35 27/50/34
f 59/54/36 27/50/34 36/53/35
f 36/53/35 35/55/37 59/54/36
f 42/56/38 60/57/39 34/58/40
f 34/59/40 26/60/41 42/61/38
f 53/62/42 46/63/43 40/64/44
f 40/64/44 30/65/45 53/62/42
f 59/54/36 35/55/37 34/66/40
f 34/67/40 60/68/39 59/69/36
f 47/70/46 53/71/42 30/72/45
f 30/72/45 41/73/47 47/70/46
f 46/63/43 54/74/48 32/75/49
f 32/75/49 40/64/44 46/63/43
f 26/76/41 34/66/40 19/77/50
f 19/77/50 41/73/47 26/76/41
f 19/77/50 34/66/40 35/55/37
f 35/55/37 20/78/51 19/77/50
f 21/79/52 20/78/51 35/55/37
f 35/55/37 36/53/35 21/79/52
f 37/52/32 22/80/53 21/79/52
f 21/79/52 36/53/35 37/52/32
f 38/81/30 23/82/54 22/80/53
f 22/80/53 37/52/32 38/81/30
f 38/83/30 39/84/29 24/85/55
f 24/85/55 23/86/54 38/83/30
f 30/65/45 40/64/44 25/87/56
f 25/87/56 31/88/57 30/65/45
f 45/89/58 42/90/38 26/91/41
f 26/92/41 31/93/57 45/94/58
f 43/95/59 44/96/60 25/87/56
f 25/87/56 33/97/61 43/95/59
f 44/98/60 45/94/58 31/93/57
f 31/88/57 25/87/56 44/96/60
f 41/99/47 30/65/45 31/88/57
f 31/88/57 26/100/41 41/99/47
f 40/64/44 32/75/49 33/97/61
f 33/97/61 25/87/56 40/64/44
f 19/77/50 20/78/51 48/101/62
f 52/102/63 51/103/64 23/86/54
f 23/86/54 24/85/55 52/102/63
f 51/104/64 50/105/65 22/80/53
f 22/80/53 23/82/54 51/104/64
f 50/105/65 49/106/66 21/79/52
f 21/79/52 22/80/53 50/105/65
f 49/106/66 48/101/62 20/78/51
f 20/78/51 21/79/52 49/106/66
f 58/107/67 52/102/63 24/85/55
f 24/85/55 61/108/68 58/107/67
f 98/109/69 55/110/69 61/111/70
f 61/111/70 119/112/70 98/109/69
f 98/113/69 99/114/71 56/115/71
f 56/115/71 55/116/69 98/113/69
f 99/114/71 100/117/72 57/118/72
f 57/118/72 56/115/71 99/114/71
f 100/117/72 101/119/73 58/107/73
f 58/107/73 57/118/72 100/117/72
f 95/120/74 52/102/63 58/107/67
f 58/107/67 101/119/75 95/120/74
f 58/121/76 61/122/77 55/123/78
f 58/121/76 55/123/78 56/124/79
f 58/121/76 56/124/79 57/125/80
f 82/126/81 39/45/29 29/47/31
f 29/47/31 72/127/82 82/126/81
f 119/128/68 61/108/68 39/84/29
f 39/84/29 82/129/81 119/128/68
f 47/70/46 41/73/47 19/77/50
f 19/77/50 48/101/62 47/70/46
f 39/84/29 61/108/68 24/85/55
f 82/126/81 72/127/82 81/130/83
f 81/130/83 72/127/82 71/131/84
f 71/131/84 80/132/85 81/130/83
f 70/133/86 79/134/87 80/135/85
f 80/135/85 71/136/84 70/133/86
f 115/137/88 78/138/89 79/134/87
f 79/134/87 70/133/86 115/137/88
f 69/139/90 77/140/91 117/141/92
f 117/142/92 85/143/93 69/144/90
f 32/75/49 54/74/48 97/145/94
f 97/145/94 75/146/95 32/75/49
f 96/147/96 73/148/97 83/149/98
f 83/150/98 89/151/99 96/152/96
f 115/153/88 117/154/92 77/155/91
f 77/140/91 78/138/89 115/137/88
f 90/156/100 84/157/101 73/158/97
f 73/158/97 96/159/96 90/156/100
f 89/160/99 83/149/98 75/146/95
f 75/146/95 97/145/94 89/160/99
f 77/140/91 69/139/90 84/157/101
f 84/157/101 62/161/102 77/140/91
f 63/162/103 78/138/89 77/140/91
f 77/140/91 62/161/102 63/162/103
f 64/163/104 79/134/87 78/138/89
f 78/138/89 63/162/103 64/163/104
f 80/135/85 79/134/87 64/163/104
f 64/163/104 65/164/105 80/135/85
f 81/165/83 80/135/85 65/164/105
f 65/164/105 66/166/106 81/165/83
f 81/167/83 66/168/106 67/169/107
f 67/169/107 82/129/81 81/167/83
f 33/97/61 32/75/49 75/146/95
f 75/146/95 76/170/108 33/97/61
f 73/148/97 74/171/109 68/172/110
f 68/172/110 83/149/98 73/148/97
f 88/173/111 74/171/109 69/144/90
f 69/144/90 85/143/93 88/173/111
f 43/95/59 33/97/61 76/170/108
f 76/170/108 86/174/112 43/95/59
f 86/174/112 76/170/108 68/172/110
f 68/172/110 87/175/113 86/174/112
f 87/175/113 68/172/110 74/171/109
f 74/171/109 88/173/111 87/175/113
f 84/176/101 69/144/90 74/171/109
f 74/177/109 73/158/97 84/157/101
f 83/149/98 68/172/110 76/170/108
f 76/170/108 75/146/95 83/149/98
f 62/161/102 91/178/114 63/162/103
f 95/120/74 67/169/107 66/168/106
f 66/168/106 94/179/115 95/120/74
f 94/180/115 66/166/106 65/164/105
f 65/164/105 93/181/116 94/180/115
f 93/181/116 65/164/105 64/163/104
f 64/163/104 92/182/117 93/181/116
f 92/182/117 64/163/104 63/162/103
f 63/162/103 91/178/114 92/182/117
f 101/119/75 119/128/68 67/169/107
f 67/169/107 95/120/74 101/119/75
f 101/183/118 100/184/119 99/185/120
f 101/183/118 99/185/120 98/186/121
f 101/183/118 98/186/121 119/187/121
f 111/188/122 71/131/84 72/127/82
f 113/189/123 70/190/86 71/131/84
f 71/131/84 111/188/122 113/189/123
f 115/153/88 70/190/86 113/189/123
f 90/156/100 91/178/114 62/161/102
f 62/161/102 84/157/101 90/156/100
f 104/191/124 105/192/125 103/193/126
f 103/193/126 102/194/127 104/191/124
f 106/195/128 107/196/129 105/192/125
f 105/192/125 104/191/124 106/195/128
f 108/197/130 109/198/131 107/196/129
f 107/196/129 106/195/128 108/197/130
f 110/199/132 111/188/133 109/198/131
f 109/198/131 108/197/130 110/199/132
f 112/200/134 113/189/135 111/188/133
f 111/188/133 110/199/132 112/200/134
f 114/201/136 115/153/137 113/189/135
f 113/189/135 112/200/134 114/201/136
f 116/202/138 117/154/139 115/153/137
f 115/153/137 114/201/136 116/202/138
f 102/203/127 103/204/126 117/205/139
f 117/154/139 116/202/138 102/194/127
f 104/191/124 102/194/127 118/206/123
f 106/195/128 104/191/124 118/206/123
f 108/197/130 106/195/128 118/206/123
f 110/199/132 108/197/130 118/206/123
f 112/200/134 110/199/132 118/206/123
f 114/201/136 112/200/134 118/206/123
f 116/202/138 114/201/136 118/206/123
f 102/194/127 116/202/138 118/206/123
f 82/129/81 67/169/107 119/128/68
f 105/192/123 60/68/39 103/193/140
f 60/68/39 105/192/123 107/196/123
f 107/196/123 59/69/36 60/68/39
f 109/198/141 72/127/82 29/47/31
f 29/47/31 28/49/33 109/198/141
f 107/196/123 109/198/141 28/49/33
f 59/69/36 107/196/123 28/49/33
f 59/69/36 28/49/33 27/207/34
f 50/208/142 51/209/142 52/210/142
f 52/210/142 95/211/142 94/212/142
f 50/208/142 52/210/142 94/212/142
f 94/212/142 93/213/142 92/214/142
f 92/214/142 91/215/142 90/216/143
f 94/212/142 92/214/142 90/216/143
f 50/208/142 94/212/142 90/216/143
f 50/208/142 90/216/143 47/217/144
f 50/208/142 47/217/144 48/218/142
f 50/208/142 48/218/142 49/219/142
f 97/220/145 54/221/146 46/222/147
f 46/222/147 53/223/148 47/217/144
f 97/220/145 46/222/147 47/217/144
f 97/220/145 47/217/144 90/216/143
f 97/220/145 90/216/143 96/224/149
f 97/220/145 96/224/149 89/225/150
f 111/188/122 72/127/82 109/198/141
f 123/226/151 43/227/59 86/228/112
f 87/229/113 88/230/111 85/231/93
f 85/231/93 117/154/92 103/193/140
f 87/229/113 85/231/93 103/193/140
f 42/232/38 45/233/58 121/234/152
f 60/235/39 42/236/38 121/237/152
f 60/68/39 121/238/152 120/239/153
f 103/193/140 60/68/39 120/239/153
f 103/193/140 120/239/153 122/240/154
f 87/229/113 103/193/140 122/240/154
f 86/228/112 87/229/113 122/240/154
f 123/226/151 86/228/112 122/240/154
f 43/241/59 45/94/58 44/98/60
f 121/242/155 126/243/156 120/244/157
f 120/245/157 127/246/158 122/247/159
f 122/248/159 127/249/158 128/250/160
f 128/250/160 123/251/161 122/248/159
f 123/252/161 128/253/160 124/254/162
f 124/254/162 43/255/163 123/252/161
f 45/256/164 125/257/165 126/258/156
f 126/258/156 121/259/155 45/256/164
f 43/255/163 124/254/162 125/260/165
f 125/260/165 45/261/164 43/255/163
f 126/262/166 129/263/167 120/264/168
f 120/264/168 129/263/167 127/265/169
f 127/265/169 129/263/167 128/266/170
f 128/266/170 129/263/167 124/267/171
f 125/268/172 129/263/167 126/262/166
f 124/267/171 129/263/167 125/268/172
