# Blender v2.93.5 OBJ File: 'tank1.blend'
# www.blender.org
mtllib head.mtl
o Cube.002_Cube.006
v -0.000000 -0.524147 1.274061
v 1.156187 -0.525194 0.169799
v 0.982895 0.473020 0.155981
v 1.040839 -0.529762 0.725644
v 0.419605 -0.225218 1.408623
v 0.777355 -0.528927 1.095466
v 0.184511 -0.530759 -1.110159
v 1.040839 -0.535307 -0.525483
v 0.761896 -0.533991 -0.924922
v 0.648901 0.529609 0.356310
v 0.417248 0.529609 0.639326
v 0.648901 0.529609 -0.048831
v 0.399716 0.529609 -0.434680
v -0.000000 -0.223586 1.517290
v -0.000000 0.224856 1.406977
v 1.349903 -0.220746 0.172539
v 1.168794 0.218767 0.171531
v 1.215301 -0.225794 0.776683
v 1.051908 0.217388 0.596630
v 0.839210 -0.226849 1.299955
v 0.681141 0.220037 1.066571
v -0.419605 -0.225218 1.408623
v 0.132331 -0.237763 -1.332990
v 0.829148 -0.231725 -1.099192
v 0.672011 0.214851 -0.896355
v 1.053093 0.214011 -0.323258
v 1.215142 -0.230058 -0.534780
v 0.340571 0.222447 1.296338
v -0.000000 -0.527541 -1.110161
v -1.156187 -0.525194 0.169799
v -0.000000 0.473020 1.043513
v -0.000000 0.529609 0.174253
v -0.982895 0.473020 0.155981
v -1.040839 -0.529762 0.725644
v 0.203839 0.529609 0.718329
v -0.777355 -0.528927 1.095466
v -0.184511 -0.530759 -1.110159
v -1.040839 -0.535307 -0.525483
v -0.761896 -0.533991 -0.924922
v -0.648901 0.529609 0.356310
v -0.417248 0.529609 0.639326
v -0.648901 0.529609 -0.048831
v -0.000000 0.529609 -0.592173
v -0.399716 0.529609 -0.434680
v 1.206950 -0.008264 -0.463404
v 0.798781 -0.008704 -1.068684
v -0.000000 -0.238545 -1.333115
v 0.000000 0.329641 -1.111050
v -0.340571 0.222447 1.296338
v -0.203839 0.529609 0.718329
v -1.349903 -0.220746 0.172539
v -1.168794 0.218767 0.171531
v -1.215301 -0.225794 0.776683
v -1.051908 0.217388 0.596630
v -0.839210 -0.226849 1.299955
v -0.681141 0.220037 1.066571
v -0.404790 -0.526546 1.181061
v 0.404790 -0.526546 1.181061
v -0.132331 -0.237763 -1.332990
v -0.829148 -0.231725 -1.099192
v -0.672011 0.214851 -0.896355
v -1.053093 0.214011 -0.323258
v -1.215142 -0.230058 -0.534780
v 0.808993 -0.003350 1.252417
v 1.206404 -0.004198 0.723919
v -0.000000 0.000951 1.549196
v 0.000000 -0.109470 -1.319114
v 1.340223 -0.000778 0.176693
v -0.404497 -0.001200 1.432501
v 0.404497 -0.001200 1.432501
v -0.798781 -0.008704 -1.068684
v -1.206950 -0.008264 -0.463404
v -0.808993 -0.003350 1.252417
v -1.206404 -0.004198 0.723919
v -1.340223 -0.000778 0.176693
v 0.180275 0.200511 -1.171215
v 0.039860 0.328193 -1.111515
v 0.109136 0.353968 -1.070808
v 0.200918 0.261686 -1.096922
v 0.097624 -0.111637 -1.319563
v 0.205579 0.008780 -1.261885
v 0.253303 -0.058347 -1.295753
v 0.174214 -0.153648 -1.323515
v -0.039859 0.328193 -1.111515
v -0.180275 0.200511 -1.171215
v -0.200918 0.261686 -1.096922
v -0.109136 0.353967 -1.070808
v -0.205579 0.008780 -1.261885
v -0.097624 -0.111637 -1.319563
v -0.174214 -0.153648 -1.323515
v -0.253302 -0.058347 -1.295753
v 1.252262 -0.443920 0.804545
v 0.896839 -0.442762 1.303412
v 0.214988 -0.445692 -1.340493
v 0.888158 -0.448847 -1.124528
v 1.252262 -0.449858 -0.603142
v 1.391040 -0.439551 0.169799
v -0.000000 -0.442474 -1.340493
v -1.252262 -0.443920 0.804545
v -0.896839 -0.442762 1.303412
v -0.214988 -0.445692 -1.340493
v -0.888158 -0.448847 -1.124528
v -1.252262 -0.449858 -0.603142
v -1.391040 -0.439551 0.169799
v 0.448419 -0.440338 1.406436
v -0.448419 -0.440338 1.406436
v -0.000000 -0.437914 1.509460
v 0.884836 0.473020 0.437799
v 0.558185 0.473020 0.836875
v -0.000000 0.473020 -0.872318
v 0.548120 0.473020 -0.656353
v 0.884836 0.473020 -0.134968
v 0.720814 0.529609 0.162965
v -0.558185 0.473020 0.836875
v -0.279093 0.473020 0.940194
v 0.279092 0.473020 0.940194
v -0.000000 0.529609 0.793790
v -0.884836 0.473020 0.437799
v -0.548120 0.473020 -0.656353
v -0.884836 0.473020 -0.134968
v -0.720814 0.529609 0.162965
vt 0.430067 0.721244
vt 0.478988 0.696355
vt 0.493962 0.756915
vt 0.447497 0.792602
vt 0.430147 0.655618
vt 0.478902 0.653073
vt 0.314502 0.655652
vt 0.312597 0.536408
vt 0.349880 0.546956
vt 0.351600 0.656033
vt 0.429185 0.579321
vt 0.387599 0.656698
vt 0.386172 0.558058
vt 0.744882 0.005031
vt 0.781142 0.014763
vt 0.780365 0.085737
vt 0.744293 0.080824
vt 0.262872 0.229770
vt 0.220981 0.289311
vt 0.153783 0.313614
vt 0.153783 0.195429
vt 0.262872 0.196997
vt 0.153783 0.099744
vt 0.188052 0.111388
vt 0.223928 0.123579
vt 0.262872 0.167252
vt 0.313990 0.753596
vt 0.350965 0.749297
vt 0.368054 0.828865
vt 0.330490 0.829464
vt 0.694251 0.628729
vt 0.729112 0.614550
vt 0.734229 0.736649
vt 0.697520 0.746393
vt 0.446471 0.489721
vt 0.493962 0.526501
vt 0.478813 0.607986
vt 0.329156 0.454840
vt 0.366987 0.458679
vt 0.211038 0.022103
vt 0.200703 0.077135
vt 0.153783 0.061192
vt 0.153783 0.005031
vt 0.779588 0.156712
vt 0.743703 0.156616
vt 0.694789 0.593429
vt 0.728979 0.592829
vt 0.187560 0.391422
vt 0.172131 0.387420
vt 0.153783 0.356827
vt 0.245930 0.323501
vt 0.266758 0.360458
vt 0.039274 0.057558
vt 0.096529 0.022103
vt 0.106864 0.077135
vt 0.059945 0.093078
vt 0.404473 0.463409
vt 0.817720 0.088442
vt 0.816953 0.156911
vt 0.387218 0.741245
vt 0.405586 0.821554
vt 0.858379 0.040469
vt 0.856561 0.098674
vt 0.819101 0.019705
vt 0.819101 0.291607
vt 0.781142 0.296822
vt 0.780365 0.226767
vt 0.817720 0.224393
vt 0.636846 0.794471
vt 0.595025 0.821029
vt 0.577793 0.727859
vt 0.620556 0.706251
vt 0.621422 0.564304
vt 0.637864 0.491579
vt 0.684190 0.527074
vt 0.670088 0.588840
vt 0.670007 0.632129
vt 0.621511 0.629943
vt 0.505922 0.629984
vt 0.543079 0.629687
vt 0.541365 0.738772
vt 0.504023 0.749238
vt 0.750783 0.592759
vt 0.750413 0.608776
vt 0.743327 0.621390
vt 0.044694 0.229770
vt 0.044694 0.196997
vt 0.086586 0.289311
vt 0.135436 0.387420
vt 0.120007 0.391422
vt 0.040809 0.360458
vt 0.061637 0.323501
vt 0.044694 0.167252
vt 0.083638 0.123579
vt 0.119515 0.111388
vt 0.505395 0.532020
vt 0.520946 0.454840
vt 0.558514 0.455443
vt 0.542430 0.536402
vt 0.694251 0.558155
vt 0.697520 0.454840
vt 0.734229 0.464466
vt 0.729112 0.571110
vt 0.669922 0.677224
vt 0.684190 0.757489
vt 0.519628 0.829488
vt 0.557459 0.825648
vt 0.744293 0.231537
vt 0.743327 0.564201
vt 0.750413 0.576729
vt 0.856561 0.213140
vt 0.855896 0.156375
vt 0.744882 0.306458
vt 0.578820 0.544644
vt 0.596128 0.462867
vt 0.579213 0.629209
vt 0.268292 0.057558
vt 0.247622 0.093078
vt 0.858379 0.269401
vt 0.160484 0.393694
vt 0.153784 0.393623
vt 0.147083 0.393694
vt 0.759732 0.551746
vt 0.772014 0.469538
vt 0.816678 0.565612
vt 0.805155 0.566790
vt 0.771539 0.560424
vt 0.812381 0.495134
vt 0.759732 0.634897
vt 0.772014 0.731753
vt 0.805155 0.625968
vt 0.827530 0.604372
vt 0.832550 0.616986
vt 0.816678 0.631567
vt 0.771539 0.627909
vt 0.827530 0.591288
vt 0.832550 0.581160
vt 0.812381 0.715734
vt 0.392436 0.069147
vt 0.455069 0.055934
vt 0.523120 0.041578
vt 0.591170 0.055934
vt 0.653803 0.069147
vt 0.698099 0.126210
vt 0.698099 0.211975
vt 0.698099 0.319264
vt 0.651204 0.380891
vt 0.554138 0.409464
vt 0.523120 0.409455
vt 0.492101 0.409464
vt 0.395035 0.380891
vt 0.348140 0.319264
vt 0.348141 0.211975
vt 0.348141 0.126210
vt 0.312598 0.113810
vt 0.372349 0.036835
vt 0.486977 0.444778
vt 0.373808 0.411465
vt 0.312598 0.331021
vt 0.312598 0.211749
vt 0.523120 0.444770
vt 0.673890 0.036835
vt 0.733642 0.113810
vt 0.672431 0.411465
vt 0.559262 0.444778
vt 0.733642 0.331021
vt 0.733642 0.211749
vt 0.447734 0.020933
vt 0.598505 0.020933
vt 0.523120 0.005031
vt 0.302536 0.154660
vt 0.302536 0.243045
vt 0.302536 0.197950
vt 0.005031 0.154660
vt 0.005031 0.243045
vt 0.005031 0.197950
vn 0.5743 0.6780 0.4588
vn 0.7607 0.6061 0.2325
vn 0.9628 0.2011 -0.1806
vn 0.7666 0.6178 -0.1748
vn 0.2369 0.0504 0.9702
vn 0.0000 1.0000 0.0000
vn 0.7943 0.2141 0.5685
vn 0.3068 0.1745 -0.9356
vn 0.6137 0.6796 -0.4020
vn 0.7873 0.2899 -0.5441
vn 0.1923 0.8142 0.5478
vn 0.2369 -0.0068 0.9715
vn 0.0006 0.0362 -0.9993
vn 0.2990 0.7718 -0.5612
vn 0.7692 0.6024 -0.2129
vn -0.3058 0.7675 0.5634
vn 0.9596 0.1838 0.2131
vn 0.8110 0.1965 -0.5510
vn 0.2617 -0.1104 0.9588
vn 0.7893 0.2002 0.5805
vn 0.3724 0.6423 0.6699
vn 0.9717 0.0659 0.2270
vn -0.3299 0.0831 0.9404
vn 0.9780 0.0730 -0.1955
vn -0.6137 0.6742 -0.4108
vn -0.5743 0.6780 0.4588
vn -0.7607 0.6061 0.2325
vn -0.9628 0.2011 -0.1806
vn 0.0011 0.1070 -0.9943
vn 0.3299 0.0831 0.9404
vn -0.2990 0.7718 -0.5612
vn -0.7943 0.2141 0.5685
vn -0.3068 0.1745 -0.9356
vn -0.6137 0.6796 -0.4020
vn -0.7873 0.2899 -0.5441
vn -0.1923 0.8142 0.5478
vn -0.2369 -0.0068 0.9715
vn -0.0006 0.0362 -0.9993
vn -0.0011 0.1070 -0.9943
vn -0.2492 0.5369 0.8060
vn -0.7692 0.6024 -0.2129
vn -0.2369 0.0504 0.9702
vn -0.9596 0.1838 0.2131
vn -0.8110 0.1965 -0.5510
vn -0.2617 -0.1104 0.9588
vn -0.7893 0.2002 0.5805
vn -0.7588 0.6203 0.1987
vn -0.5811 0.6816 0.4447
vn -0.9717 0.0659 0.2270
vn 0.3058 0.7675 0.5634
vn -0.9780 0.0730 -0.1955
vn -0.7666 0.6178 -0.1748
vn -0.3724 0.6423 0.6699
vn 0.7588 0.6203 0.1987
vn 0.0003 0.8554 -0.5179
vn 0.5811 0.6816 0.4447
vn 0.2492 0.5369 0.8060
vn 0.6137 0.6742 -0.4108
vn -0.0003 0.8554 -0.5179
vn -0.3451 0.0777 -0.9353
vn -0.3180 0.5974 -0.7362
vn 0.3451 0.0777 -0.9353
vn 0.3203 0.6182 -0.7178
vn 0.0231 0.3507 -0.9362
vn -0.3203 0.6182 -0.7178
vn -0.0231 0.3507 -0.9362
vn 0.3180 0.5974 -0.7362
vn 0.0000 -1.0000 0.0026
vn 0.2978 -0.9303 0.2143
vn 0.1023 -0.9371 -0.3337
vn 0.2978 -0.9312 -0.2103
vn 0.3475 -0.9353 0.0672
vn 0.3503 -0.9354 -0.0476
vn -0.0151 -0.9376 -0.3473
vn -0.2978 -0.9303 0.2143
vn -0.1023 -0.9371 -0.3337
vn -0.2978 -0.9312 -0.2103
vn -0.3475 -0.9353 0.0672
vn 0.0737 -0.9359 0.3445
vn -0.3503 -0.9354 -0.0476
vn 0.0151 -0.9376 -0.3473
vn -0.0737 -0.9359 0.3445
vn -0.0736 -0.9363 0.3434
vn 0.0736 -0.9363 0.3434
vn 0.1818 0.9720 0.1488
vn 0.0778 0.9772 -0.1974
vn 0.1891 0.9743 -0.1221
vn 0.2103 0.9747 0.0752
vn 0.2085 0.9755 -0.0705
vn -0.0815 0.9720 0.2203
vn 0.0815 0.9720 0.2203
vn -0.1818 0.9720 0.1488
vn -0.0778 0.9772 -0.1974
vn -0.1891 0.9743 -0.1221
vn -0.2103 0.9747 0.0752
vn -0.2085 0.9755 -0.0705
vn -0.0000 0.4281 -0.9037
usemtl Material.001
s off
f 19/1/1 108/2/1 109/3/1 21/4/1
f 19/1/2 17/5/2 3/6/2 108/2/2
f 97/7/3 96/8/3 27/9/3 16/10/3
f 26/11/4 17/5/4 68/12/4 45/13/4
f 93/14/5 20/15/5 5/16/5 105/17/5
f 12/18/6 13/19/6 43/20/6 32/21/6 113/22/6
f 113/22/6 32/21/6 117/23/6 35/24/6 11/25/6 10/26/6
f 92/27/7 18/28/7 20/29/7 93/30/7
f 94/31/8 23/32/8 24/33/8 95/34/8
f 25/35/9 111/36/9 112/37/9 26/11/9
f 95/38/10 24/39/10 27/9/10 96/8/10
f 28/40/11 116/41/11 31/42/11 15/43/11
f 105/17/12 5/16/12 14/44/12 107/45/12
f 94/31/13 98/46/13 47/47/13 23/32/13
f 79/48/14 78/49/14 110/50/14 111/51/14 25/52/14
f 17/5/15 26/11/15 112/37/15 3/6/15
f 56/53/16 49/54/16 115/55/16 114/56/16
f 92/27/17 97/7/17 16/10/17 18/28/17
f 46/57/18 45/13/18 27/9/18 24/39/18
f 70/58/19 66/59/19 14/44/19 5/16/19
f 65/60/20 64/61/20 20/29/20 18/28/20
f 21/62/21 28/63/21 70/58/21 64/64/21
f 68/12/22 65/60/22 18/28/22 16/10/22
f 73/65/23 55/66/23 22/67/23 69/68/23
f 45/13/24 68/12/24 16/10/24 27/9/24
f 61/69/25 71/70/25 72/71/25 62/72/25
f 54/73/26 56/74/26 114/75/26 118/76/26
f 54/73/27 118/76/27 33/77/27 52/78/27
f 104/79/28 51/80/28 63/81/28 103/82/28
f 67/83/29 80/84/29 83/85/29 23/32/29 47/47/29
f 64/64/30 70/58/30 5/16/30 20/15/30
f 42/86/6 121/87/6 32/21/6 43/20/6 44/88/6
f 87/89/31 86/90/31 61/91/31 119/92/31 110/50/31
f 121/87/6 40/93/6 41/94/6 50/95/6 117/23/6 32/21/6
f 99/96/32 100/97/32 55/98/32 53/99/32
f 101/100/33 102/101/33 60/102/33 59/103/33
f 61/69/34 62/72/34 120/104/34 119/105/34
f 102/106/35 103/82/35 63/81/35 60/107/35
f 49/54/36 15/43/36 31/42/36 115/55/36
f 106/108/37 107/45/37 14/44/37 22/67/37
f 101/100/38 59/103/38 47/47/38 98/46/38
f 67/83/39 47/47/39 59/103/39 90/109/39 89/110/39
f 49/111/40 69/68/40 66/59/40 15/112/40
f 52/78/41 33/77/41 120/104/41 62/72/41
f 100/113/42 106/108/42 22/67/42 55/66/42
f 99/96/43 53/99/43 51/80/43 104/79/43
f 71/70/44 60/107/44 63/81/44 72/71/44
f 69/68/45 22/67/45 14/44/45 66/59/45
f 74/114/46 53/99/46 55/98/46 73/115/46
f 52/78/47 75/116/47 74/114/47 54/73/47
f 54/73/48 74/114/48 73/115/48 56/74/48
f 75/116/49 51/80/49 53/99/49 74/114/49
f 21/117/50 109/118/50 116/41/50 28/40/50
f 72/71/51 63/81/51 51/80/51 75/116/51
f 62/72/52 72/71/52 75/116/52 52/78/52
f 56/119/53 73/65/53 69/68/53 49/111/53
f 17/5/54 19/1/54 65/60/54 68/12/54
f 78/49/55 77/120/55 48/121/55 110/50/55
f 19/1/56 21/4/56 64/61/56 65/60/56
f 28/63/57 15/112/57 66/59/57 70/58/57
f 25/35/58 26/11/58 45/13/58 46/57/58
f 84/122/59 87/89/59 110/50/59 48/121/59
f 91/123/60 90/109/60 59/103/60 60/102/60 71/124/60
f 86/125/61 85/126/61 88/127/61 91/123/61 71/124/61 61/128/61
f 83/85/62 82/129/62 46/130/62 24/33/62 23/32/62
f 76/131/63 77/132/63 78/133/63 79/134/63
f 80/84/64 81/135/64 82/129/64 83/85/64
f 84/136/65 85/126/65 86/125/65 87/137/65
f 88/127/66 89/110/66 90/109/66 91/123/66
f 76/131/67 79/134/67 25/138/67 46/130/67 82/129/67 81/135/67
f 6/139/68 58/140/68 1/141/68 57/142/68 36/143/68 34/144/68 30/145/68 38/146/68 39/147/68 37/148/68 29/149/68 7/150/68 9/151/68 8/152/68 2/153/68 4/154/68
f 6/139/69 4/154/69 92/155/69 93/156/69
f 9/151/70 7/150/70 94/157/70 95/158/70
f 8/152/71 9/151/71 95/158/71 96/159/71
f 4/154/72 2/153/72 97/160/72 92/155/72
f 2/153/73 8/152/73 96/159/73 97/160/73
f 7/150/74 29/149/74 98/161/74 94/157/74
f 34/144/75 36/143/75 100/162/75 99/163/75
f 37/148/76 39/147/76 102/164/76 101/165/76
f 39/147/77 38/146/77 103/166/77 102/164/77
f 30/145/78 34/144/78 99/163/78 104/167/78
f 58/140/79 6/139/79 93/156/79 105/168/79
f 38/146/80 30/145/80 104/167/80 103/166/80
f 29/149/81 37/148/81 101/165/81 98/161/81
f 36/143/82 57/142/82 106/169/82 100/162/82
f 57/142/83 1/141/83 107/170/83 106/169/83
f 1/141/84 58/140/84 105/168/84 107/170/84
f 10/26/85 11/25/85 109/118/85 108/171/85
f 43/20/86 13/19/86 111/51/86 110/50/86
f 13/19/87 12/18/87 112/172/87 111/51/87
f 113/22/88 10/26/88 108/171/88 3/173/88
f 12/18/89 113/22/89 3/173/89 112/172/89
f 50/95/90 41/94/90 114/56/90 115/55/90
f 35/24/91 117/23/91 31/42/91 116/41/91
f 41/94/92 40/93/92 118/174/92 114/56/92
f 44/88/93 43/20/93 110/50/93 119/92/93
f 42/86/94 44/88/94 119/92/94 120/175/94
f 40/93/95 121/87/95 33/176/95 118/174/95
f 121/87/96 42/86/96 120/175/96 33/176/96
f 11/25/91 35/24/91 116/41/91 109/118/91
f 117/23/90 50/95/90 115/55/90 31/42/90
f 76/131/97 81/135/97 80/84/97 67/83/97 89/110/97 88/127/97 85/126/97 84/136/97 48/121/97 77/120/97
