# Blender v2.93.5 OBJ File: 'tank1.blend'
# www.blender.org
mtllib shassi.mtl
o Cube.001_Cube.005
v 1.476394 0.218338 0.986641
v 1.387940 0.228149 2.172537
v 1.476393 0.223157 -2.115356
v 1.498399 0.221492 -0.322658
v 1.401236 0.227306 2.460656
v 1.417453 -0.804401 -2.513739
v 1.417527 -0.809099 2.473783
v 1.476434 0.186956 -2.367832
v 1.415895 -0.269906 -3.116018
v 1.410484 0.069830 -2.997301
v 1.412087 -0.008919 -3.182116
v 1.410629 0.182458 2.841569
v 1.415626 -0.329782 2.916310
v 1.413219 0.020403 3.017382
v 1.914078 0.289901 0.995206
v 1.912802 0.315787 2.287357
v 1.914078 -0.724207 -2.271628
v 1.914078 -0.724207 2.528622
v 1.914078 0.279241 -1.925734
v 1.914078 0.311804 -1.678133
v 1.914078 0.276800 -0.275149
v 1.914078 0.250782 2.344095
v 1.797597 -0.889020 2.507394
v 1.797597 0.273782 -2.424528
v 1.797597 0.335851 2.483738
v 1.797597 -0.886328 -2.550281
v 1.914078 -0.224626 -3.099280
v 1.797597 0.152669 -3.067747
v 1.895659 0.197475 2.858933
v 1.914078 -0.263636 2.818210
v 1.472588 0.228154 -1.683157
v 1.457934 0.040845 3.051330
v 1.802948 0.040845 3.051330
v 1.801415 0.316417 2.228873
v 1.457934 0.152607 -3.066935
v 1.802948 0.316417 1.050916
v 1.473696 0.337856 2.500061
v 1.457934 -0.892150 -2.566034
v 1.457934 -0.892150 2.516352
v 1.802948 -0.313795 -3.164499
v 1.457934 -0.313795 -3.164499
v 1.457934 0.033382 -3.307481
v 1.802948 0.033382 -3.307481
v 1.802948 0.316698 -0.335837
v 1.802948 -0.362340 2.960760
v 1.802948 0.316417 -2.195839
v 1.802948 0.316417 -1.722590
v 1.457934 0.262948 2.890502
v 1.802948 0.262948 2.890502
v 1.531033 0.306361 1.012248
v 1.441393 0.316417 2.228873
v 1.553332 0.309590 -0.328191
v 1.531033 0.311824 -2.163893
v 1.531033 0.273774 -2.424456
v 1.464101 -0.363431 2.969872
v 1.527178 0.316417 -1.722590
v -1.474832 0.218338 0.986641
v -1.386379 0.228149 2.172537
v -1.474832 0.223157 -2.115356
v -1.496837 0.221492 -0.322658
v -1.399674 0.227306 2.460656
v -1.415892 -0.804401 -2.513739
v -1.415966 -0.809099 2.473783
v -1.474873 0.186956 -2.367832
v -1.414333 -0.269906 -3.116018
v -1.408922 0.069830 -2.997301
v -1.410526 -0.008919 -3.182116
v -1.409068 0.182458 2.841569
v -1.414065 -0.329782 2.916310
v -1.411658 0.020403 3.017382
v -1.912517 0.289901 0.995206
v -1.911241 0.315787 2.287357
v -1.912517 -0.724207 -2.271628
v -1.912517 -0.724207 2.528622
v -1.912517 0.279241 -1.925734
v -1.912517 0.311804 -1.678133
v -1.912517 0.276800 -0.275149
v -1.912517 0.250782 2.344095
v -1.796036 0.273782 -2.424528
v -1.912517 -0.224626 -3.099280
v -1.894097 0.197475 2.858933
v -1.842778 -0.364722 2.980390
v -1.912517 -0.263636 2.818210
v -1.471027 0.228154 -1.683157
v -1.801386 0.040845 3.051330
v -1.799854 0.316417 2.228873
v -1.456373 0.152607 -3.066935
v -1.801386 0.152607 -3.066935
v -1.801386 0.316417 1.050916
v -1.472135 0.337856 2.500061
v -1.801386 -0.313795 -3.164499
v -1.456373 -0.313795 -3.164499
v -1.801386 0.033382 -3.307481
v -1.801386 0.316698 -0.335837
v -1.801386 0.316417 -2.195839
v -1.801386 0.316417 -1.722590
v -1.456373 0.262948 2.890502
v -1.801386 0.337856 2.500061
v -1.801386 0.262948 2.890502
v -1.801386 -0.892150 2.516352
v -1.801386 -0.892150 -2.566034
v -1.529472 0.306361 1.012248
v -1.439832 0.316417 2.228873
v -1.551771 0.309590 -0.328191
v -1.529472 0.311824 -2.163893
v -1.529472 0.273774 -2.424456
v -1.462540 -0.886347 -2.550332
v -1.462540 -0.889038 2.507447
v -1.462540 0.033505 -3.324261
v -1.462540 0.040984 3.065201
v -1.462540 -0.363431 2.969872
v -1.525616 0.316417 -1.722590
vt 0.739990 0.796827
vt 0.727016 0.720993
vt 0.739616 0.771327
vt 0.557828 0.679183
vt 0.555087 0.766822
vt 0.549599 0.731563
vt 0.676358 0.689788
vt 0.619425 0.784395
vt 0.557828 0.624634
vt 0.557796 0.464791
vt 0.557828 0.304948
vt 0.557818 0.169168
vt 0.564043 0.150240
vt 0.623871 0.108543
vt 0.676358 0.141544
vt 0.641925 0.031987
vt 0.712281 0.091237
vt 0.712281 0.771201
vt 0.635075 0.851376
vt 0.572813 0.838411
vt 0.556250 0.755981
vt 0.569162 0.071169
vt 0.548083 0.093646
vt 0.558453 0.041503
vt 0.588729 0.870570
vt 0.588102 0.019945
vt 0.778631 0.861639
vt 0.778585 0.880372
vt 0.739173 0.880274
vt 0.739219 0.861542
vt 0.770917 0.603854
vt 0.780743 0.771428
vt 0.739841 0.609252
vt 0.780743 0.005352
vt 0.780657 0.040272
vt 0.741245 0.040174
vt 0.741331 0.005255
vt 0.768824 0.419467
vt 0.740312 0.418453
vt 0.944823 0.832145
vt 0.944823 0.883021
vt 0.905411 0.883021
vt 0.905411 0.832145
vt 0.772285 0.227724
vt 0.740782 0.227647
vt 0.955333 0.098283
vt 0.955333 0.005255
vt 0.994745 0.005255
vt 0.994745 0.098283
vt 0.772445 0.162610
vt 0.740943 0.162533
vt 0.776960 0.809060
vt 0.739349 0.808967
vt 0.905411 0.708844
vt 0.905411 0.005255
vt 0.944823 0.005255
vt 0.944823 0.708844
vt 0.772533 0.126944
vt 0.741031 0.126867
vt 0.955333 0.153867
vt 0.994745 0.153867
vt 0.944823 0.719354
vt 0.905411 0.719354
vt 0.727203 0.586020
vt 0.727987 0.268226
vt 0.728121 0.214000
vt 0.727595 0.427127
vt 0.020610 0.603211
vt 0.019988 0.417675
vt 0.019253 0.224771
vt 0.020589 0.169822
vt 0.025741 0.136722
vt 0.042489 0.055824
vt 0.053115 0.034345
vt 0.087619 0.048651
vt 0.160051 0.123878
vt 0.160051 0.794081
vt 0.095417 0.848327
vt 0.049194 0.858665
vt 0.027541 0.842907
vt 0.021292 0.795833
vt 0.019933 0.771092
vt 0.008471 0.771442
vt 0.009150 0.603258
vt 0.008528 0.417780
vt 0.009150 0.168880
vt 0.014455 0.134798
vt 0.009875 0.796962
vt 0.171016 0.119425
vt 0.171016 0.799389
vt 0.047464 0.020055
vt 0.093810 0.039249
vt 0.031548 0.052215
vt 0.046467 0.870788
vt 0.016818 0.849230
vt 0.100290 0.858746
vt 0.007792 0.224722
vt 0.803585 0.076659
vt 0.803853 0.114299
vt 0.791253 0.164633
vt 0.377450 0.211441
vt 0.369221 0.159061
vt 0.375872 0.134642
vt 0.495980 0.200835
vt 0.495980 0.749080
vt 0.443493 0.782081
vt 0.383665 0.740383
vt 0.377440 0.721455
vt 0.377450 0.585676
vt 0.377418 0.425833
vt 0.377450 0.265989
vt 0.439047 0.106228
vt 0.531903 0.799387
vt 0.461547 0.858637
vt 0.454697 0.039247
vt 0.531903 0.119423
vt 0.392435 0.052213
vt 0.388784 0.819454
vt 0.378075 0.849121
vt 0.367705 0.796978
vt 0.408351 0.020053
vt 0.407724 0.870679
vt 0.842868 0.023987
vt 0.803455 0.024084
vt 0.803409 0.005352
vt 0.842821 0.005255
vt 0.835153 0.281772
vt 0.804078 0.276374
vt 0.844980 0.114198
vt 0.844980 0.880274
vt 0.805567 0.880372
vt 0.805481 0.845452
vt 0.844894 0.845355
vt 0.833061 0.466159
vt 0.804548 0.467173
vt 0.855489 0.832145
vt 0.894902 0.832145
vt 0.894902 0.883021
vt 0.855489 0.883021
vt 0.836521 0.657902
vt 0.805019 0.657979
vt 0.994745 0.257404
vt 0.955333 0.257404
vt 0.955333 0.164376
vt 0.994745 0.164376
vt 0.836682 0.723016
vt 0.805179 0.723094
vt 0.841197 0.076567
vt 0.894902 0.708844
vt 0.855489 0.708844
vt 0.855489 0.005255
vt 0.894902 0.005255
vt 0.836770 0.758682
vt 0.805267 0.758760
vt 0.994745 0.312988
vt 0.955333 0.312988
vt 0.855489 0.719354
vt 0.894902 0.719354
vt 0.791440 0.299606
vt 0.792224 0.617400
vt 0.792357 0.671626
vt 0.791832 0.458499
vt 0.201113 0.287412
vt 0.200436 0.119532
vt 0.201795 0.094791
vt 0.208044 0.047717
vt 0.229697 0.031959
vt 0.275920 0.042297
vt 0.340554 0.096543
vt 0.340554 0.766746
vt 0.268122 0.841973
vt 0.233617 0.856278
vt 0.222992 0.834799
vt 0.206243 0.753901
vt 0.201092 0.720802
vt 0.199755 0.665853
vt 0.200490 0.472948
vt 0.189653 0.287365
vt 0.188974 0.119181
vt 0.189030 0.472843
vt 0.194958 0.755826
vt 0.189653 0.721743
vt 0.190377 0.093661
vt 0.351519 0.091235
vt 0.351519 0.771199
vt 0.274312 0.851374
vt 0.227966 0.870569
vt 0.212051 0.838409
vt 0.197321 0.041394
vt 0.226970 0.019835
vt 0.280793 0.031878
vt 0.188295 0.665902
vn 0.0452 0.9961 -0.0753
vn 0.6331 0.7581 -0.1561
vn 1.0000 0.0002 0.0000
vn 0.7474 -0.4021 0.5289
vn 0.8724 -0.3938 -0.2896
vn 0.9076 0.3970 -0.1366
vn 0.9986 0.0364 0.0395
vn 0.8145 -0.5802 -0.0002
vn 0.6697 0.7265 0.1541
vn 0.6469 -0.2904 -0.7052
vn 0.9444 0.3024 -0.1294
vn 0.8497 0.0219 0.5269
vn 0.0000 0.5865 0.8100
vn -0.0156 0.9999 -0.0048
vn -0.0006 0.8956 -0.4448
vn -0.0330 0.9995 0.0010
vn 0.0000 -0.3808 -0.9247
vn -0.0135 0.9999 0.0025
vn 0.0242 -0.6517 0.7581
vn -0.0087 0.9999 -0.0051
vn 0.0074 0.9832 0.1824
vn 0.0132 -0.9999 -0.0003
vn -0.0181 0.9865 -0.1625
vn -0.0004 0.9827 -0.1852
vn 0.0134 -0.2083 0.9780
vn 0.0011 0.9970 -0.0775
vn 0.0220 -0.7252 -0.6882
vn 0.1212 0.9926 -0.0103
vn 0.2441 0.9688 -0.0438
vn 0.1908 0.9816 0.0122
vn 0.2864 0.9581 -0.0046
vn -0.9991 0.0417 -0.0010
vn -0.8365 0.5438 -0.0665
vn -0.8484 0.5293 -0.0129
vn -0.8655 0.4957 -0.0718
vn -0.8546 0.5168 0.0506
vn -0.9038 -0.4280 -0.0002
vn -0.8818 -0.1583 -0.4443
vn -0.9034 0.3874 -0.1837
vn -0.8577 0.5142 -0.0026
vn -0.8945 -0.3285 -0.3033
vn -0.8135 0.3802 0.4401
vn -0.6869 -0.1783 0.7046
vn -0.8596 0.5059 0.0714
vn -0.8592 -0.3379 0.3842
vn -0.8538 0.5205 -0.0132
vn -0.8472 0.5309 0.0186
vn -0.0471 0.9958 -0.0790
vn -0.6331 0.7581 -0.1561
vn -1.0000 0.0002 0.0000
vn -0.8473 -0.3441 0.4046
vn -0.8848 -0.3718 -0.2810
vn -0.9106 0.3917 -0.1321
vn -0.9986 0.0364 0.0395
vn -0.8339 -0.5518 0.0000
vn -0.6952 0.7017 0.1561
vn -0.6469 -0.2904 -0.7052
vn -0.9458 0.2910 -0.1442
vn -0.8802 0.0780 0.4681
vn -0.0163 0.6029 0.7976
vn 0.0156 0.9999 -0.0048
vn -0.0108 0.9020 -0.4316
vn 0.0330 0.9995 0.0010
vn -0.0224 -0.3997 -0.9164
vn 0.0135 0.9999 0.0025
vn 0.0243 -0.6598 0.7510
vn 0.0087 0.9999 -0.0051
vn 0.0000 0.9821 0.1884
vn 0.0181 0.9865 -0.1625
vn 0.0000 0.9827 -0.1853
vn -0.0042 -0.2009 0.9796
vn 0.0000 0.9969 -0.0788
vn -0.1212 0.9926 -0.0103
vn -0.2441 0.9688 -0.0438
vn -0.1908 0.9816 0.0122
vn -0.2864 0.9581 -0.0046
vn 0.9991 0.0417 -0.0010
vn 0.8365 0.5438 -0.0665
vn 0.8484 0.5293 -0.0129
vn 0.8655 0.4957 -0.0718
vn 0.8546 0.5168 0.0506
vn 0.8666 -0.4990 -0.0004
vn 0.8859 -0.1584 -0.4359
vn 0.9000 0.3917 -0.1911
vn 0.8577 0.5142 -0.0026
vn 0.8615 -0.3782 -0.3387
vn 0.8174 0.3781 0.4346
vn 0.7141 -0.1784 0.6769
vn 0.8596 0.5059 0.0714
vn 0.8290 -0.3751 0.4148
vn 0.8538 0.5205 -0.0132
vn 0.8472 0.5309 0.0186
usemtl Material.003
s off
f 25/1/1 16/2/1 34/3/1
f 19/4/2 24/5/2 46/6/2
f 17/7/3 27/8/3 19/4/3 20/9/3 21/10/3 15/11/3 16/12/3 22/13/3 30/14/3 18/15/3
f 18/15/4 30/14/4 45/16/4 23/17/4
f 27/8/5 17/7/5 26/18/5 40/19/5
f 19/4/6 27/8/6 28/20/6 24/21/6
f 30/14/7 22/13/7 29/22/7
f 17/7/8 18/15/8 23/17/8 26/18/8
f 22/13/9 16/12/9 25/23/9 49/24/9 29/22/9
f 40/19/10 43/25/10 27/8/10
f 43/25/11 28/20/11 27/8/11
f 49/24/12 33/26/12 45/16/12 30/14/12 29/22/12
f 48/27/13 32/28/13 33/29/13 49/30/13
f 50/31/14 51/32/14 34/3/14 36/33/14
f 42/34/15 35/35/15 28/36/15 43/37/15
f 52/38/16 50/31/16 36/33/16 44/39/16
f 41/40/17 42/41/17 43/42/17 40/43/17
f 56/44/18 52/38/18 44/39/18 47/45/18
f 55/46/19 39/47/19 23/48/19 45/49/19
f 53/50/20 56/44/20 47/45/20 46/51/20
f 37/52/21 48/27/21 49/30/21 25/53/21
f 39/54/22 38/55/22 26/56/22 23/57/22
f 54/58/23 53/50/23 46/51/23 24/59/23
f 35/35/24 54/58/24 24/59/24 28/36/24
f 32/60/25 55/46/25 45/49/25 33/61/25
f 51/32/26 37/52/26 25/53/26 34/3/26
f 38/62/27 41/40/27 40/43/27 26/63/27
f 16/2/28 15/64/28 36/33/28 34/3/28
f 20/65/29 19/66/29 46/51/29 47/45/29
f 21/67/30 20/65/30 47/45/30 44/39/30
f 15/64/31 21/67/31 44/39/31 36/33/31
f 1/68/32 4/69/32 31/70/32 3/71/32 8/72/32 10/73/32 11/74/32 9/75/32 6/76/32 7/77/32 13/78/32 14/79/32 12/80/32 5/81/32 2/82/32
f 1/68/33 2/82/33 51/83/33 50/84/33
f 4/69/34 1/68/34 50/84/34 52/85/34
f 8/72/35 3/71/35 53/86/35 54/87/35
f 2/82/36 5/81/36 37/88/36 51/83/36
f 7/77/37 6/76/37 38/89/37 39/90/37
f 9/75/38 11/74/38 42/91/38 41/92/38
f 11/74/39 10/73/39 35/93/39 42/91/39
f 10/73/40 8/72/40 54/87/40 35/93/40
f 6/76/41 9/75/41 41/92/41 38/89/41
f 12/80/42 14/79/42 32/94/42 48/95/42
f 14/79/43 13/78/43 55/96/43 32/94/43
f 5/81/44 12/80/44 48/95/44 37/88/44
f 13/78/45 7/77/45 39/90/45 55/96/45
f 3/71/46 31/70/46 56/97/46 53/86/46
f 31/70/47 4/69/47 52/85/47 56/97/47
f 98/98/48 86/99/48 72/100/48
f 75/101/49 95/102/49 79/103/49
f 73/104/50 74/105/50 83/106/50 78/107/50 72/108/50 71/109/50 77/110/50 76/111/50 75/101/50 80/112/50
f 74/105/51 100/113/51 82/114/51 83/106/51
f 80/112/52 91/115/52 101/116/52 73/104/52
f 75/101/53 79/103/53 88/117/53 80/112/53
f 83/106/54 81/118/54 78/107/54
f 73/104/55 101/116/55 100/113/55 74/105/55
f 78/107/56 81/118/56 99/119/56 98/120/56 72/108/56
f 91/115/57 80/112/57 93/121/57
f 93/121/58 80/112/58 88/117/58
f 99/119/59 81/118/59 83/106/59 82/114/59 85/122/59
f 97/123/60 99/124/60 85/125/60 110/126/60
f 102/127/61 89/128/61 86/99/61 103/129/61
f 109/130/62 93/131/62 88/132/62 87/133/62
f 104/134/63 94/135/63 89/128/63 102/127/63
f 92/136/64 91/137/64 93/138/64 109/139/64
f 112/140/65 96/141/65 94/135/65 104/134/65
f 111/142/66 82/143/66 100/144/66 108/145/66
f 105/146/67 95/147/67 96/141/67 112/140/67
f 90/148/68 98/98/68 99/124/68 97/123/68
f 108/149/22 100/150/22 101/151/22 107/152/22
f 106/153/69 79/154/69 95/147/69 105/146/69
f 87/133/70 88/132/70 79/154/70 106/153/70
f 110/155/71 85/156/71 82/143/71 111/142/71
f 103/129/72 86/99/72 98/98/72 90/148/72
f 107/157/27 101/158/27 91/137/27 92/136/27
f 72/100/73 86/99/73 89/128/73 71/159/73
f 76/160/74 96/141/74 95/147/74 75/161/74
f 77/162/75 94/135/75 96/141/75 76/160/75
f 71/159/76 89/128/76 94/135/76 77/162/76
f 57/163/77 58/164/77 61/165/77 68/166/77 70/167/77 69/168/77 63/169/77 62/170/77 65/171/77 67/172/77 66/173/77 64/174/77 59/175/77 84/176/77 60/177/77
f 57/163/78 102/178/78 103/179/78 58/164/78
f 60/177/79 104/180/79 102/178/79 57/163/79
f 64/174/80 106/181/80 105/182/80 59/175/80
f 58/164/81 103/179/81 90/183/81 61/165/81
f 63/169/82 108/184/82 107/185/82 62/170/82
f 65/171/83 92/186/83 109/187/83 67/172/83
f 67/172/84 109/187/84 87/188/84 66/173/84
f 66/173/85 87/188/85 106/181/85 64/174/85
f 62/170/86 107/185/86 92/186/86 65/171/86
f 68/166/87 97/189/87 110/190/87 70/167/87
f 70/167/88 110/190/88 111/191/88 69/168/88
f 61/165/89 90/183/89 97/189/89 68/166/89
f 69/168/90 111/191/90 108/184/90 63/169/90
f 59/175/91 105/182/91 112/192/91 84/176/91
f 84/176/92 112/192/92 104/180/92 60/177/92
