# Blender v2.93.5 OBJ File: 'tankSg.blend'
# www.blender.org
mtllib tankChasis.mtl
o Tank.004_Tank.005
v 0.299084 -0.625994 2.507921
v 0.299084 -0.232129 3.491258
v -0.297844 -0.232129 3.491258
v -0.297844 -0.625994 2.507921
v 0.299084 -0.660487 -2.007409
v 0.299084 -0.660488 2.345064
v -0.297844 -0.660488 2.345064
v -0.297844 -0.660487 -2.007409
v 0.299084 -0.147393 -2.748203
v 0.299084 -0.603258 -2.143601
v -0.297844 -0.603258 -2.143601
v -0.297844 -0.147393 -2.748203
v 0.299084 0.292371 3.262225
v -0.297844 0.292371 3.262222
v -0.297844 0.272778 3.418322
v 0.299084 0.272778 3.418335
v 0.299084 0.218695 2.286707
v -0.297844 0.218695 2.286707
v 0.299084 0.174602 1.030334
v -0.297844 0.174602 1.030334
v 0.299084 0.160061 -0.508438
v -0.297844 0.160061 -0.508438
v 0.299084 0.253202 -1.792103
v -0.297844 0.253202 -1.792103
v 0.299084 0.426593 -2.465493
v -0.297844 0.426593 -2.465493
v 0.299084 0.425448 -2.613850
v -0.297844 0.425448 -2.613834
v 0.299084 -0.047266 3.610525
v -0.297844 -0.047266 3.610525
v -0.297844 0.108807 -2.865709
v 0.299084 0.108807 -2.865709
v 0.299084 -0.031777 -2.829458
v -0.297844 -0.031777 -2.829458
v 0.299084 0.154028 3.567502
v -0.297844 0.154020 3.567502
v -0.297844 0.255799 -2.830103
v 0.299084 0.255807 -2.830103
v -0.297844 -0.198020 3.465675
v -0.297844 -0.586419 2.493351
v -0.297844 -0.045405 3.562698
v -0.297844 0.126364 3.528431
v -0.297844 0.251221 3.257938
v -0.297844 0.231223 3.394567
v -0.297844 0.177351 2.285293
v -0.297844 0.133257 1.030334
v -0.297844 0.118717 -0.508447
v -0.297844 0.212131 -1.796849
v -0.297844 0.385013 -2.474229
v -0.297844 0.383665 -2.601281
v -0.297844 0.107698 -2.822747
v -0.297844 0.233597 -2.792347
v -0.297844 -0.012589 -2.791876
v -0.297844 -0.115471 -2.718993
v -0.297844 -0.563207 -2.127155
v -0.297844 -0.619143 2.336750
v -0.297844 -0.619143 -1.995320
v 0.296611 -0.185063 3.455954
v 0.296611 -0.571382 2.487815
v 0.296611 -0.044698 3.544522
v 0.296611 0.115872 3.513584
v 0.296611 0.235584 3.256315
v 0.296611 0.215433 3.385550
v 0.296611 0.161640 2.284756
v 0.296611 0.117546 1.030334
v 0.296611 0.103006 -0.508451
v 0.296611 0.196523 -1.798656
v 0.296607 0.369211 -2.477545
v 0.296607 0.367797 -2.596539
v 0.296607 0.107277 -2.806421
v 0.296607 0.225158 -2.777967
v 0.296607 -0.005296 -2.777591
v 0.296607 -0.103340 -2.707892
v 0.296607 -0.547989 -2.120899
v 0.296611 -0.603432 2.333596
v 0.296607 -0.603432 -1.990731
v -0.297844 0.368086 -2.735693
v 0.299084 0.368086 -2.735701
v -0.297844 0.329975 -2.712072
v 0.296607 0.315417 -2.703063
vt 0.063000 0.065500
vt 0.063000 0.133400
vt 0.060200 0.133400
vt 0.060200 0.065500
vt 0.063000 0.052700
vt 0.060200 0.052700
vt 0.063000 0.036800
vt 0.060200 0.036800
vt 0.063000 0.014200
vt 0.063000 0.025100
vt 0.060200 0.025100
vt 0.060200 0.014200
vt 0.062900 0.888500
vt 0.062900 0.955700
vt 0.060200 0.955700
vt 0.060200 0.888500
vt 0.063000 0.801600
vt 0.060200 0.801600
vt 0.062900 0.695600
vt 0.060200 0.695600
vt 0.062900 0.606800
vt 0.060200 0.606800
vt 0.062900 0.560700
vt 0.060200 0.560700
vt 0.062900 0.550600
vt 0.060200 0.550600
vt 0.062900 0.522500
vt 0.062900 0.531800
vt 0.060200 0.531800
vt 0.060200 0.522500
vt 0.062900 0.512900
vt 0.060200 0.512900
vt 0.062900 0.503500
vt 0.060200 0.503500
vt 0.062900 0.454100
vt 0.060200 0.454100
vt 0.063000 0.144600
vt 0.062900 0.444700
vt 0.060200 0.444700
vt 0.060200 0.144600
vt 0.014100 0.052700
vt 0.010600 0.052600
vt 0.010500 0.036800
vt 0.014100 0.036800
vt 0.014100 0.888500
vt 0.014100 0.955700
vt 0.010400 0.955700
vt 0.010300 0.888500
vt 0.014100 0.695600
vt 0.014100 0.801600
vt 0.010300 0.801600
vt 0.010300 0.695500
vt 0.010300 0.560700
vt 0.014100 0.560700
vt 0.014100 0.606800
vt 0.010300 0.606900
vt 0.014100 0.065500
vt 0.010600 0.065400
vt 0.014100 0.522500
vt 0.014100 0.531800
vt 0.010300 0.531800
vt 0.010300 0.522500
vt 0.014100 0.503500
vt 0.014100 0.512900
vt 0.010300 0.512900
vt 0.010300 0.503500
vt 0.062900 0.542200
vt 0.060200 0.542200
vt 0.014100 0.542200
vt 0.010400 0.542100
vt 0.010400 0.025000
vt 0.014100 0.025100
vt 0.010500 0.144600
vt 0.010500 0.133300
vt 0.014100 0.133300
vt 0.014100 0.144600
vt 0.014100 0.444700
vt 0.014100 0.454100
vt 0.010400 0.454000
vt 0.010300 0.444700
vt 0.014100 0.550600
vt 0.010400 0.550600
vt 0.014100 0.014200
vt 0.559600 0.989000
vt 0.493000 0.989100
vt 0.493000 0.949500
vt 0.559600 0.949600
vt 0.570200 0.988800
vt 0.570200 0.949700
vt 0.580000 0.988800
vt 0.580000 0.949700
vt 0.598000 0.988800
vt 0.590800 0.988800
vt 0.590800 0.949700
vt 0.598000 0.949700
vt 0.659400 0.988800
vt 0.659400 0.949700
vt 0.739000 0.988800
vt 0.739000 0.949700
vt 0.836200 0.988800
vt 0.836200 0.949700
vt 0.925900 0.988800
vt 0.925900 0.949700
vt 0.972800 0.988800
vt 0.972800 0.949700
vt 0.982400 0.988800
vt 0.982400 0.949700
vt 0.122000 0.989000
vt 0.110800 0.989100
vt 0.110800 0.949500
vt 0.122000 0.949500
vt 0.132400 0.989100
vt 0.132400 0.949500
vt 0.144400 0.989100
vt 0.144400 0.949500
vt 0.200600 0.989100
vt 0.200600 0.949500
vt 0.481100 0.989000
vt 0.208300 0.989100
vt 0.208300 0.949500
vt 0.481100 0.949500
vt 0.010400 0.014200
vt 0.101800 0.989100
vt 0.101800 0.949500
vt 0.092000 0.989100
vt 0.092000 0.949500
vn -1.0000 0.0000 0.0000
vn 0.9987 -0.0100 -0.0490
vn 0.9985 -0.0550 0.0042
vn 0.9985 -0.0546 0.0005
vn 0.9985 -0.0546 0.0004
vn 0.9985 -0.0525 -0.0134
vn 0.9985 0.0299 -0.0468
vn 0.9986 -0.0126 0.0523
vn 0.9986 0.0310 0.0439
vn 0.9986 -0.0337 0.0404
vn 0.9988 -0.0381 -0.0300
vn 0.9985 0.0527 -0.0111
vn 0.9985 0.0528 -0.0110
vn 0.9986 0.0483 0.0204
vn 0.9986 0.0483 0.0203
vn 0.9987 -0.0464 0.0223
vn 0.0000 -0.9568 0.2906
vn 0.0000 -0.7716 0.6361
vn 0.0000 -0.9803 -0.1976
vn 0.0000 -0.9946 0.1042
vn 0.0000 -0.6952 -0.7188
vn 0.0000 -0.8669 -0.4986
vn -0.0000 0.9997 0.0247
vn -0.0000 0.9216 0.3881
vn 0.0000 0.9985 -0.0552
vn 0.0000 0.9998 -0.0223
vn 0.0000 0.9995 0.0315
vn 0.0000 0.9869 0.1615
vn -0.0000 0.9925 0.1218
vn -0.0000 0.9751 -0.2220
vn -0.0000 -0.1802 0.9836
vn -0.0000 -0.0074 -1.0000
vn 0.0000 -0.4191 -0.9079
vn -0.0000 0.5265 0.8502
vn -0.0000 0.4514 -0.8923
vn -0.0217 0.7684 -0.6396
vn -0.0214 0.9574 -0.2881
vn -0.0212 0.9572 -0.2887
vn -0.0219 0.7696 -0.6382
vn -0.0236 0.1862 -0.9822
vn -0.0233 0.1832 -0.9828
vn -0.0249 -0.5227 -0.8521
vn -0.0245 -0.5244 -0.8511
vn -0.0217 -0.9990 -0.0387
vn -0.0237 -0.9178 -0.3963
vn -0.0233 -0.9185 -0.3947
vn -0.0209 -0.9992 -0.0348
vn -0.0209 -0.9982 0.0554
vn -0.0209 -0.9995 0.0223
vn -0.0209 -0.9993 -0.0314
vn -0.0209 -0.9993 -0.0315
vn -0.0210 -0.9869 -0.1599
vn -0.0211 -0.9868 -0.1603
vn -0.0212 -0.9928 -0.1183
vn -0.0215 -0.9926 -0.1194
vn -0.0219 -0.9725 0.2320
vn -0.0225 -0.9731 0.2293
vn -0.0217 0.0070 0.9997
vn -0.0220 -0.4480 0.8938
vn -0.0222 -0.4491 0.8932
vn -0.0214 0.4207 0.9070
vn -0.0215 0.4204 0.9071
vn -0.0217 0.6960 0.7177
vn -0.0217 0.6958 0.7179
vn -0.0220 0.8648 0.5016
vn -0.0216 0.8655 0.5005
vn -0.0213 0.9945 -0.1021
vn -0.0219 0.9796 0.1996
vn -0.0217 0.9797 0.1995
vn -0.0212 0.9945 -0.1029
vn 0.9986 -0.0531 -0.0078
vn 0.9987 -0.0507 -0.0064
vn 0.9987 -0.0514 -0.0068
vn 0.9985 -0.0540 -0.0084
vn 0.9985 -0.0547 0.0019
vn 0.9985 -0.0546 0.0019
vn 0.9985 -0.0546 -0.0040
vn 0.9985 -0.0545 -0.0040
vn 0.9985 -0.0543 0.0006
vn 0.9985 -0.0544 0.0006
vn 0.9985 -0.0540 0.0005
vn 0.9985 -0.0539 0.0004
vn 0.9985 0.0136 0.0531
vn 0.9985 0.0136 0.0529
vn 0.9985 0.0136 0.0530
vn 0.9986 0.0419 0.0317
vn 0.9986 0.0418 0.0317
vn 0.9985 0.0430 0.0324
vn 0.9985 0.0431 0.0325
vn 0.9985 0.0546 0.0000
vn 0.9986 0.0498 -0.0199
vn 0.9985 0.0509 -0.0204
vn -0.0000 0.7925 -0.6098
vn -0.0222 -0.7851 0.6189
vn -0.0229 -0.7876 0.6157
usemtl orig_01___Default.005
s off
f 39/1/1 40/2/1 4/3/1 3/4/1
f 41/5/1 39/1/1 3/4/1 30/6/1
f 42/7/1 41/5/1 30/6/1 36/8/1
f 43/9/1 44/10/1 15/11/1 14/12/1
f 45/13/1 43/14/1 14/15/1 18/16/1
f 46/17/1 45/13/1 18/16/1 20/18/1
f 47/19/1 46/17/1 20/18/1 22/20/1
f 48/21/1 47/19/1 22/20/1 24/22/1
f 49/23/1 48/21/1 24/22/1 26/24/1
f 50/25/1 49/23/1 26/24/1 28/26/1
f 51/27/1 52/28/1 37/29/1 31/30/1
f 53/31/1 51/27/1 31/30/1 34/32/1
f 54/33/1 53/31/1 34/32/1 12/34/1
f 55/35/1 54/33/1 12/34/1 11/36/1
f 56/37/1 57/38/1 8/39/1 7/40/1
f 29/41/2 60/42/2 61/43/2 35/44/2
f 17/45/3 13/46/3 62/47/3 64/48/3
f 21/49/4 19/50/5 65/51/4 66/52/4
f 68/53/6 25/54/6 23/55/6 67/56/6
f 60/42/7 29/41/7 2/57/7 58/58/7
f 32/59/8 38/60/8 71/61/8 70/62/8
f 9/63/9 33/64/9 72/65/9 73/66/9
f 52/28/1 79/67/1 77/68/1 37/29/1
f 38/60/10 78/69/10 80/70/10 71/61/10
f 44/10/1 42/7/1 36/8/1 15/11/1
f 61/43/11 63/71/11 16/72/11 35/44/11
f 40/2/1 56/37/1 7/40/1 4/3/1
f 75/73/12 59/74/12 1/75/12 6/76/13
f 57/38/1 55/35/1 11/36/1 8/39/1
f 5/77/14 10/78/15 74/79/14 76/80/14
f 79/67/1 50/25/1 28/26/1 77/68/1
f 78/69/16 27/81/16 69/82/16 80/70/16
s 1
f 1/75/17 2/57/18 3/4/18 4/3/17
f 5/77/19 6/76/20 7/40/20 8/39/19
f 9/63/21 10/78/22 11/36/22 12/34/21
f 13/83/23 14/12/23 15/11/24 16/72/24
f 17/45/25 18/16/25 14/15/23 13/46/23
f 19/50/26 20/18/26 18/16/25 17/45/25
f 21/49/27 22/20/27 20/18/26 19/50/26
f 23/55/28 24/22/28 22/20/27 21/49/27
f 25/54/29 26/24/29 24/22/28 23/55/28
f 27/81/30 28/26/30 26/24/29 25/54/29
f 29/41/31 30/6/31 3/4/18 2/57/18
f 31/30/32 32/59/32 33/64/33 34/32/33
f 29/41/31 35/44/34 36/8/34 30/6/31
f 31/30/32 37/29/35 38/60/35 32/59/32
f 33/64/33 9/63/21 12/34/21 34/32/33
f 58/84/36 59/85/37 40/86/38 39/87/39
f 60/88/40 58/84/36 39/87/39 41/89/41
f 61/90/42 60/88/40 41/89/41 42/91/43
f 62/92/44 63/93/45 44/94/46 43/95/47
f 64/96/48 62/92/44 43/95/47 45/97/48
f 65/98/49 64/96/48 45/97/48 46/99/49
f 66/100/50 65/98/49 46/99/49 47/101/51
f 67/102/52 66/100/50 47/101/51 48/103/53
f 68/104/54 67/102/52 48/103/53 49/105/55
f 69/106/56 68/104/54 49/105/55 50/107/57
f 70/108/58 71/109/59 52/110/60 51/111/58
f 72/112/61 70/108/58 51/111/58 53/113/62
f 73/114/63 72/112/61 53/113/62 54/115/64
f 74/116/65 73/114/63 54/115/64 55/117/66
f 75/118/67 76/119/68 57/120/69 56/121/70
f 13/83/71 16/72/72 63/71/73 62/122/74
f 17/45/75 64/48/75 65/51/76 19/50/76
f 21/49/77 66/52/77 67/56/78 23/55/78
f 25/54/79 68/53/80 69/82/81 27/81/82
f 33/64/83 32/59/84 70/62/85 72/65/83
f 9/63/86 73/66/87 74/79/88 10/78/89
f 5/77/90 76/80/90 75/73/90 6/76/90
f 1/75/91 59/74/91 58/58/92 2/57/92
f 37/29/35 77/68/93 78/69/93 38/60/35
f 71/109/59 80/123/94 79/124/95 52/110/60
f 35/44/34 16/72/24 15/11/24 36/8/34
f 63/93/45 61/90/42 42/91/43 44/94/46
f 6/76/20 1/75/17 4/3/17 7/40/20
f 59/85/37 75/118/67 56/121/70 40/86/38
f 10/78/22 5/77/19 8/39/19 11/36/22
f 76/119/68 74/116/65 55/117/66 57/120/69
f 77/68/93 28/26/30 27/81/30 78/69/93
f 80/123/94 69/125/56 50/126/57 79/124/95
