# Blender v2.93.5 OBJ File: 'tankSg.blend'
# www.blender.org
mtllib tankGun.mtl
o Tank_M1A1.003_Tank_M1A1.001
v 0.256815 -1.390031 -2.951757
v -0.237995 -1.390030 -5.279650
v 1.083579 -1.390030 -4.089701
v -1.080918 -0.763505 -3.386413
v -0.341947 -0.180916 -4.729373
v -0.967030 -0.175042 -4.729373
v 1.334708 -0.086919 -3.853108
v 1.572094 0.141388 -6.384563
v 1.098261 0.651863 -6.229390
v -1.332209 0.651863 -6.229391
v -1.893790 0.425700 -6.359189
v -1.576796 -0.086919 -3.853109
v -1.814181 0.141388 -6.384564
v -0.804424 0.613991 -4.036911
v 0.710850 0.468694 -3.873513
v 0.161258 0.002959 -0.197288
v 0.135410 0.082519 -0.197288
v 0.135410 0.082519 -0.074778
v 0.161258 0.002959 -0.074778
v 0.067739 0.131690 -0.197288
v 0.067739 0.131690 -0.074778
v -0.015907 0.131690 -0.197288
v -0.015907 0.131690 -0.074778
v -0.083580 0.082519 -0.197288
v -0.083580 0.082519 -0.074778
v -0.109427 0.002959 -0.197288
v -0.109427 0.002959 -0.074778
v -0.083580 -0.076585 -0.197288
v -0.083580 -0.076585 -0.074778
v -0.015907 -0.125748 -0.197288
v -0.015907 -0.125748 -0.074778
v 0.067739 -0.125748 -0.197288
v 0.067739 -0.125748 -0.074778
v 0.135410 -0.076585 -0.197288
v 0.135410 -0.076585 -0.074778
v 0.170740 0.141296 -0.016083
v 0.204927 0.036071 -0.016083
v 0.081234 0.206321 -0.016083
v -0.029404 0.206321 -0.016083
v -0.118908 0.141296 -0.016083
v -0.153097 0.036071 -0.016083
v -0.118908 -0.069161 -0.016083
v -0.029404 -0.134187 -0.016083
v 0.081234 -0.134187 -0.016083
v 0.170740 -0.069161 -0.016083
v 0.170740 0.141296 0.376345
v 0.204927 0.036071 0.376345
v 0.081234 0.206321 0.376345
v -0.029404 0.206321 0.376345
v -0.118908 0.141296 0.376345
v -0.153098 0.036071 0.376345
v -0.118908 -0.069161 0.376345
v -0.029404 -0.134187 0.376345
v 0.081234 -0.134187 0.376345
v 0.170740 -0.069161 0.376345
v 0.143069 0.091025 0.455334
v 0.170726 0.005912 0.455334
v 0.070664 0.143623 0.455334
v -0.018834 0.143623 0.455334
v -0.091239 0.091025 0.455334
v -0.118895 0.005912 0.455334
v -0.091239 -0.079217 0.455334
v -0.018834 -0.131829 0.455334
v 0.070664 -0.131829 0.455334
v 0.143070 -0.079217 0.455334
v 0.144028 0.088790 0.614420
v 0.171910 0.002959 0.614420
v 0.071030 0.141822 0.614420
v -0.019200 0.141822 0.614420
v -0.092196 0.088790 0.614420
v -0.120079 0.002959 0.614420
v -0.092196 -0.082841 0.614420
v -0.019200 -0.135880 0.614420
v 0.071030 -0.135880 0.614420
v 0.144028 -0.082841 0.614420
v 0.113072 0.066283 0.736930
v 0.133647 0.002959 0.736930
v 0.059206 0.105437 0.736930
v -0.007376 0.105437 0.736930
v -0.061242 0.066283 0.736930
v -0.081817 0.002959 0.736930
v -0.061242 -0.060349 0.736930
v -0.007376 -0.099488 0.736930
v 0.059206 -0.099488 0.736930
v 0.113072 -0.060349 0.736930
v 0.136007 0.002959 0.690257
v 0.114982 0.067679 0.690257
v 0.103043 0.058997 1.913503
v 0.121249 0.002959 1.913503
v 0.059936 0.107665 0.690257
v 0.055375 0.093634 1.913503
v -0.008105 0.107665 0.690257
v -0.003545 0.093634 1.913503
v -0.063151 0.067679 0.690257
v -0.051212 0.058997 1.913503
v -0.084177 0.002959 0.690257
v -0.069419 0.002959 1.913503
v -0.063151 -0.061738 0.690257
v -0.051212 -0.053064 1.913503
v -0.008105 -0.101731 0.690257
v -0.003545 -0.087701 1.913503
v 0.059936 -0.101731 0.690257
v 0.055375 -0.087701 1.913503
v 0.114982 -0.061738 0.690257
v 0.103043 -0.053064 1.913503
v 0.140900 0.002959 1.908896
v 0.118939 0.070548 1.908896
v 0.112543 0.065902 1.979542
v 0.132994 0.002959 1.979542
v 0.061447 0.112327 1.908896
v 0.059004 0.104804 1.979542
v -0.009617 0.112327 1.908896
v -0.007174 0.104804 1.979542
v -0.067110 0.070548 1.908896
v -0.060714 0.065902 1.979542
v -0.089070 0.002959 1.908896
v -0.081164 0.002959 1.979542
v -0.067110 -0.064614 1.908896
v -0.060714 -0.059968 1.979542
v -0.009617 -0.106393 1.908896
v -0.007174 -0.098874 1.979542
v 0.061447 -0.106393 1.908896
v 0.059004 -0.098874 1.979542
v 0.118939 -0.064614 1.908896
v 0.112543 -0.059968 1.979542
v 0.024846 0.097686 2.184230
v 0.012007 0.079738 2.316727
v 0.097735 0.034180 2.316725
v 0.024846 0.097686 2.002492
v 0.024846 0.085872 1.952503
v 0.096474 0.044522 1.952503
v 0.085102 -0.049765 2.316174
v 0.096474 -0.038192 1.952503
v 0.009136 -0.075486 2.316174
v 0.024846 -0.079553 1.952503
v -0.050659 -0.018491 2.316228
v -0.046783 -0.038192 1.952503
v -0.055821 0.049741 2.312579
v -0.046783 0.044522 1.952503
v 0.024846 0.168120 1.978158
v 0.024846 0.168120 2.173149
v 0.136008 0.002960 -0.711911
v 0.114982 0.067680 -0.711911
v 0.114982 0.067680 0.023146
v 0.136008 0.002959 0.023146
v 0.059936 0.107665 -0.711911
v 0.059936 0.107665 0.023146
v -0.008105 0.107665 -0.711911
v -0.008105 0.107665 0.023146
v -0.063151 0.067680 -0.711911
v -0.063151 0.067680 0.023146
v -0.084176 0.002960 -0.711911
v -0.084177 0.002959 0.023146
v -0.063151 -0.061738 -0.711911
v -0.063151 -0.061738 0.023146
v -0.008105 -0.101731 -0.711911
v -0.008105 -0.101731 0.023146
v 0.059936 -0.101731 -0.711911
v 0.059936 -0.101731 0.023146
v 0.114982 -0.061738 -0.711911
v 0.114982 -0.061738 0.023146
v 0.148240 0.002960 -1.410447
v 0.124878 0.074874 -1.410447
v 0.124878 0.074874 -0.675390
v 0.148240 0.002960 -0.675390
v 0.063716 0.119308 -1.410447
v 0.063716 0.119308 -0.675390
v -0.011885 0.119308 -1.410447
v -0.011885 0.119308 -0.675390
v -0.073046 0.074874 -1.410447
v -0.073047 0.074874 -0.675390
v -0.096408 0.002960 -1.410447
v -0.096409 0.002960 -0.675390
v -0.073046 -0.068925 -1.410447
v -0.073046 -0.068925 -0.675390
v -0.011885 -0.113373 -1.410447
v -0.011885 -0.113373 -0.675390
v 0.063716 -0.113373 -1.410447
v 0.063716 -0.113373 -0.675390
v 0.124878 -0.068925 -1.410447
v 0.124878 -0.068925 -0.675390
v 0.152278 0.098442 -1.368355
v 0.182182 0.006400 -1.368354
v 0.073990 0.155324 -1.368355
v -0.022781 0.155324 -1.368355
v -0.101070 0.098442 -1.368355
v -0.130974 0.006400 -1.368355
v -0.101070 -0.085635 -1.368355
v -0.022781 -0.142515 -1.368355
v 0.073990 -0.142515 -1.368355
v 0.152278 -0.085635 -1.368355
v -0.496310 0.597521 -4.018972
vt 0.204907 0.651076
vt 0.201145 0.651075
vt 0.201097 0.644377
vt 0.204859 0.644379
vt 0.965900 0.992796
vt 0.965774 0.989258
vt 0.972465 0.989276
vt 0.972590 0.992814
vt 0.965774 0.984692
vt 0.972465 0.984710
vt 0.965900 0.980843
vt 0.972590 0.980861
vt 0.583492 0.841215
vt 0.588058 0.841240
vt 0.587990 0.847917
vt 0.583425 0.847892
vt 0.591911 0.841473
vt 0.591843 0.848150
vt 0.694614 0.891902
vt 0.690212 0.891915
vt 0.690212 0.885217
vt 0.694614 0.885204
vt 0.685922 0.891899
vt 0.685922 0.885201
vt 0.213115 0.650986
vt 0.209479 0.651042
vt 0.209430 0.644345
vt 0.213066 0.644288
vt 0.980225 0.664478
vt 0.976525 0.667166
vt 0.972872 0.666322
vt 0.977766 0.662767
vt 0.975112 0.671516
vt 0.971003 0.672075
vt 0.976525 0.675865
vt 0.972872 0.677828
vt 0.980225 0.678553
vt 0.977766 0.681383
vt 0.586806 0.850885
vt 0.580768 0.850853
vt 0.591904 0.851194
vt 0.690744 0.882015
vt 0.696567 0.881998
vt 0.685070 0.881994
vt 0.208465 0.641162
vt 0.213274 0.641087
vt 0.202417 0.641207
vt 0.197441 0.641205
vt 0.197287 0.619751
vt 0.202262 0.619753
vt 0.641753 0.744967
vt 0.637074 0.745146
vt 0.637074 0.723714
vt 0.641753 0.723534
vt 0.631035 0.745162
vt 0.631035 0.723730
vt 0.625943 0.745010
vt 0.625943 0.723577
vt 0.586589 0.872273
vt 0.580551 0.872241
vt 0.591687 0.872582
vt 0.690744 0.860560
vt 0.696567 0.860543
vt 0.685070 0.860539
vt 0.208310 0.619708
vt 0.213119 0.619633
vt 0.200322 0.615403
vt 0.204347 0.615405
vt 0.636298 0.719241
vt 0.640084 0.719096
vt 0.631413 0.719254
vt 0.627294 0.719131
vt 0.587670 0.876765
vt 0.582786 0.876739
vt 0.591794 0.877015
vt 0.690246 0.856238
vt 0.694957 0.856225
vt 0.685657 0.856221
vt 0.209239 0.615368
vt 0.213130 0.615308
vt 0.200362 0.606706
vt 0.204420 0.606708
vt 0.636313 0.710548
vt 0.640129 0.710402
vt 0.631388 0.710561
vt 0.627235 0.710437
vt 0.587755 0.885436
vt 0.582830 0.885409
vt 0.591911 0.885687
vt 0.690188 0.847543
vt 0.694937 0.847529
vt 0.685561 0.847525
vt 0.209351 0.606671
vt 0.213274 0.606610
vt 0.201977 0.599983
vt 0.204972 0.599984
vt 0.635552 0.703766
vt 0.638368 0.703658
vt 0.631918 0.703776
vt 0.628853 0.703684
vt 0.587161 0.892267
vt 0.583527 0.892248
vt 0.590227 0.892453
vt 0.690272 0.840824
vt 0.693777 0.840814
vt 0.686858 0.840811
vt 0.208610 0.599957
vt 0.211505 0.599911
vt 0.398493 0.963233
vt 0.398493 0.967807
vt 0.395805 0.971507
vt 0.391456 0.958120
vt 0.391456 0.972920
vt 0.387106 0.971507
vt 0.384418 0.967807
vt 0.384418 0.963233
vt 0.387106 0.959534
vt 0.395805 0.959534
vt 0.962110 0.695558
vt 0.958647 0.694433
vt 0.956507 0.691488
vt 0.967711 0.691488
vt 0.956508 0.687847
vt 0.958648 0.684902
vt 0.962109 0.683778
vt 0.965572 0.684902
vt 0.967711 0.687847
vt 0.965572 0.694432
vt 0.329481 0.599790
vt 0.332541 0.599814
vt 0.331882 0.666696
vt 0.329232 0.666675
vt 0.586705 0.770487
vt 0.583827 0.770589
vt 0.583715 0.703746
vt 0.586207 0.703657
vt 0.580113 0.770589
vt 0.580499 0.703746
vt 0.576982 0.770487
vt 0.577788 0.703657
vt 0.081932 0.855940
vt 0.085646 0.855887
vt 0.086067 0.922620
vt 0.082851 0.922665
vt 0.088783 0.856016
vt 0.088783 0.922731
vt 0.324689 0.842790
vt 0.328270 0.842778
vt 0.328265 0.909663
vt 0.325163 0.909674
vt 0.331759 0.842790
vt 0.331286 0.909674
vt 0.322805 0.599814
vt 0.325763 0.599790
vt 0.326013 0.666675
vt 0.323451 0.666696
vt 0.895015 0.735638
vt 0.895015 0.739358
vt 0.892828 0.742368
vt 0.889291 0.731479
vt 0.889291 0.743518
vt 0.885752 0.742368
vt 0.883566 0.739358
vt 0.883566 0.735638
vt 0.885752 0.732629
vt 0.892828 0.732629
vt 0.405777 0.242384
vt 0.402713 0.241388
vt 0.400820 0.238782
vt 0.410734 0.238782
vt 0.400820 0.235561
vt 0.402713 0.232954
vt 0.405776 0.231959
vt 0.408840 0.232954
vt 0.410734 0.235560
vt 0.408841 0.241388
vt 0.732497 0.882049
vt 0.732522 0.878854
vt 0.736388 0.879198
vt 0.736364 0.882174
vt 0.458840 0.917351
vt 0.458733 0.914345
vt 0.462610 0.914198
vt 0.462710 0.916998
vt 0.458733 0.910466
vt 0.462610 0.910586
vt 0.458840 0.907196
vt 0.462710 0.907541
vt 0.940975 0.106488
vt 0.940877 0.102611
vt 0.944762 0.102640
vt 0.944853 0.106251
vt 0.940975 0.099333
vt 0.944853 0.099587
vt 0.732510 0.899699
vt 0.732498 0.895958
vt 0.736364 0.895974
vt 0.736376 0.899458
vt 0.732510 0.892314
vt 0.736376 0.892581
vt 0.732522 0.889023
vt 0.732497 0.885933
vt 0.736364 0.885791
vt 0.736388 0.888668
vt 0.953414 0.818507
vt 0.951130 0.821650
vt 0.947434 0.822851
vt 0.951131 0.811478
vt 0.943740 0.821650
vt 0.941456 0.818506
vt 0.941456 0.814621
vt 0.943740 0.811477
vt 0.947436 0.810277
vt 0.953414 0.814622
vt 0.357085 0.236004
vt 0.357085 0.239623
vt 0.354958 0.242550
vt 0.351517 0.231959
vt 0.351516 0.243668
vt 0.348075 0.242549
vt 0.345949 0.239622
vt 0.345949 0.236004
vt 0.348076 0.233077
vt 0.354958 0.233077
vt 0.975068 0.624485
vt 0.975649 0.631781
vt 0.971112 0.631800
vt 0.975309 0.614562
vt 0.975412 0.611864
vt 0.971631 0.611888
vt 0.354452 0.978028
vt 0.355021 0.958121
vt 0.359479 0.958120
vt 0.359712 0.978028
vt 0.449566 0.969838
vt 0.449566 0.989755
vt 0.444972 0.989838
vt 0.445235 0.969937
vt 0.984728 0.173342
vt 0.984728 0.193220
vt 0.981320 0.193254
vt 0.981839 0.173360
vt 0.977174 0.193351
vt 0.977383 0.173449
vt 0.376266 0.990127
vt 0.376850 0.970324
vt 0.380396 0.970546
vt 0.380645 0.990127
vt 0.983511 0.890505
vt 0.984431 0.910399
vt 0.980098 0.910373
vt 0.977383 0.890481
vt 0.979449 0.612057
vt 0.979449 0.631714
vt 0.976809 0.910399
vt 0.502006 0.233362
vt 0.502006 0.243267
vt 0.498278 0.242587
vt 0.498278 0.231959
vt 0.372762 0.943588
vt 0.369701 0.943565
vt 0.369701 0.903378
vt 0.372762 0.903401
vt 0.819160 0.905293
vt 0.816282 0.905404
vt 0.816282 0.865258
vt 0.819160 0.865148
vt 0.812568 0.905414
vt 0.812568 0.865268
vt 0.809437 0.905320
vt 0.809437 0.865175
vt 0.960971 0.589984
vt 0.964685 0.589966
vt 0.964685 0.630029
vt 0.960971 0.630047
vt 0.967821 0.590124
vt 0.967821 0.630187
vt 0.960641 0.640296
vt 0.964222 0.640286
vt 0.964222 0.680473
vt 0.960641 0.680483
vt 0.967711 0.640299
vt 0.967711 0.680486
vt 0.379438 0.943562
vt 0.376480 0.943587
vt 0.376480 0.903400
vt 0.379438 0.903376
vt 0.786982 0.141282
vt 0.786982 0.145002
vt 0.784795 0.148012
vt 0.781258 0.137123
vt 0.781258 0.149161
vt 0.777719 0.148012
vt 0.775533 0.145002
vt 0.775533 0.141282
vt 0.777719 0.138273
vt 0.784795 0.138273
vt 0.907569 0.732629
vt 0.909755 0.735638
vt 0.909755 0.739358
vt 0.900493 0.732629
vt 0.907569 0.742368
vt 0.904030 0.743518
vt 0.900493 0.742368
vt 0.898306 0.739359
vt 0.898306 0.735638
vt 0.904030 0.731479
vt 0.420610 0.896962
vt 0.417210 0.896936
vt 0.417210 0.856749
vt 0.420610 0.856775
vt 0.322805 0.670121
vt 0.326002 0.669999
vt 0.326002 0.710144
vt 0.322805 0.710266
vt 0.330129 0.669987
vt 0.330129 0.710133
vt 0.333608 0.670092
vt 0.333608 0.710237
vt 0.199207 0.923442
vt 0.203333 0.923422
vt 0.203333 0.963485
vt 0.199207 0.963505
vt 0.206818 0.923598
vt 0.206818 0.963661
vt 0.688360 0.797197
vt 0.692340 0.797186
vt 0.692340 0.837373
vt 0.688360 0.837384
vt 0.696217 0.797200
vt 0.696217 0.837387
vt 0.428029 0.896933
vt 0.424742 0.896960
vt 0.424742 0.856774
vt 0.428029 0.856746
vt 0.963814 0.813166
vt 0.966243 0.809822
vt 0.970175 0.808545
vt 0.966243 0.820643
vt 0.974105 0.809821
vt 0.976536 0.813166
vt 0.976536 0.817299
vt 0.974106 0.820643
vt 0.970175 0.821921
vt 0.963814 0.817300
vt 0.125519 0.963791
vt 0.129450 0.965068
vt 0.131880 0.968412
vt 0.119159 0.968412
vt 0.131880 0.972546
vt 0.129449 0.975890
vt 0.125519 0.977167
vt 0.121587 0.975890
vt 0.119158 0.972546
vt 0.121588 0.965068
vt 0.274064 0.951795
vt 0.277174 0.956075
vt 0.277174 0.961366
vt 0.264000 0.951795
vt 0.274064 0.965647
vt 0.269032 0.967282
vt 0.264000 0.965647
vt 0.260890 0.961366
vt 0.260890 0.956075
vt 0.269032 0.950160
vt 0.646522 0.187923
vt 0.644277 0.184546
vt 0.646522 0.181553
vn 0.9511 0.3090 0.0000
vn 0.5878 0.8090 0.0000
vn 0.0000 1.0000 0.0000
vn -0.5878 0.8090 0.0000
vn -0.9511 0.3090 0.0000
vn -0.9510 -0.3090 -0.0000
vn -0.5878 -0.8090 -0.0000
vn 0.0000 -1.0000 -0.0000
vn 0.5878 -0.8090 -0.0000
vn 0.9510 -0.3090 -0.0000
vn 0.7133 0.2318 -0.6614
vn 0.3831 0.5272 -0.7585
vn 0.0000 0.6182 -0.7860
vn -0.3831 0.5272 -0.7585
vn -0.7133 0.2318 -0.6614
vn -0.8392 -0.2727 -0.4706
vn -0.5700 -0.7846 -0.2439
vn 0.0000 -0.9898 -0.1423
vn 0.5700 -0.7846 -0.2439
vn 0.8392 -0.2727 -0.4706
vn -0.9511 -0.3090 -0.0000
vn 0.9511 -0.3090 -0.0000
vn 0.8404 0.2731 0.4682
vn 0.4768 0.6563 0.5847
vn 0.0000 0.7832 0.6217
vn -0.4768 0.6563 0.5847
vn -0.8404 0.2731 0.4682
vn -0.9125 -0.2965 0.2819
vn -0.5847 -0.8048 0.1023
vn 0.0000 -0.9996 0.0298
vn 0.5847 -0.8048 0.1023
vn 0.9125 -0.2964 0.2819
vn 0.9511 0.3090 -0.0014
vn 0.5877 0.8090 0.0078
vn 0.0000 0.9999 0.0113
vn -0.5877 0.8090 0.0078
vn -0.9511 0.3090 -0.0014
vn -0.9510 -0.3090 -0.0128
vn -0.5877 -0.8088 -0.0220
vn 0.0000 -0.9997 -0.0255
vn 0.5877 -0.8088 -0.0220
vn 0.9510 -0.3090 -0.0128
vn 0.9117 0.2962 0.2848
vn 0.5635 0.7755 0.2848
vn 0.0000 0.9586 0.2847
vn -0.5635 0.7755 0.2848
vn -0.9117 0.2962 0.2848
vn -0.9117 -0.2963 0.2847
vn -0.5635 -0.7755 0.2847
vn 0.0000 -0.9586 0.2848
vn 0.5635 -0.7755 0.2848
vn 0.9117 -0.2963 0.2847
vn 0.0000 0.0000 -1.0000
vn 0.0000 0.0000 1.0000
vn 0.9510 0.3090 0.0115
vn 0.5877 0.8090 0.0115
vn 0.0000 0.9999 0.0115
vn -0.5877 0.8090 0.0115
vn -0.9510 0.3090 0.0115
vn -0.9510 -0.3091 0.0115
vn -0.5878 -0.8089 0.0115
vn 0.0000 -0.9999 0.0115
vn 0.5878 -0.8089 0.0115
vn 0.9510 -0.3091 0.0115
vn 0.9457 0.3073 0.1058
vn 0.5845 0.8044 0.1058
vn 0.0000 0.9944 0.1059
vn -0.5845 0.8044 0.1059
vn -0.9457 0.3073 0.1058
vn -0.9457 -0.3073 0.1058
vn -0.5846 -0.8044 0.1058
vn 0.0000 -0.9944 0.1058
vn 0.5846 -0.8044 0.1058
vn 0.9457 -0.3073 0.1058
vn 0.5799 0.8117 0.0701
vn 0.5939 0.8045 -0.0047
vn -0.4833 -0.8750 -0.0275
vn 0.9971 -0.0756 0.0116
vn 0.4138 -0.9104 0.0060
vn -0.5991 -0.8006 0.0100
vn -0.9993 -0.0346 -0.0166
vn 0.9999 0.0000 0.0107
vn 0.8403 -0.5356 -0.0838
vn -0.5115 0.8593 -0.0005
vn -0.5766 0.8160 -0.0416
vn 0.4999 -0.8660 0.0030
vn -1.0000 0.0000 0.0000
vn 0.5877 0.8091 0.0000
vn -0.5877 0.8091 -0.0000
vn -0.9510 -0.3091 -0.0000
vn 0.9510 -0.3091 -0.0000
vn -0.5879 -0.8089 -0.0000
vn 0.5879 -0.8089 -0.0000
vn -0.0817 0.0471 0.9955
usemtl 01___Default.004
s off
f 16/1/1 17/2/1 18/3/1 19/4/1
f 17/5/2 20/6/2 21/7/2 18/8/2
f 20/6/3 22/9/3 23/10/3 21/7/3
f 22/9/4 24/11/4 25/12/4 23/10/4
f 24/13/5 26/14/5 27/15/5 25/16/5
f 26/14/6 28/17/6 29/18/6 27/15/6
f 28/19/7 30/20/7 31/21/7 29/22/7
f 30/20/8 32/23/8 33/24/8 31/21/8
f 32/25/9 34/26/9 35/27/9 33/28/9
f 34/26/10 16/1/10 19/4/10 35/27/10
f 19/29/11 18/30/11 36/31/11 37/32/11
f 18/30/12 21/33/12 38/34/12 36/31/12
f 21/33/13 23/35/13 39/36/13 38/34/13
f 23/35/14 25/37/14 40/38/14 39/36/14
f 25/16/15 27/15/15 41/39/15 40/40/15
f 27/15/16 29/18/16 42/41/16 41/39/16
f 29/22/17 31/21/17 43/42/17 42/43/17
f 31/21/18 33/24/18 44/44/18 43/42/18
f 33/28/19 35/27/19 45/45/19 44/46/19
f 35/27/20 19/4/20 37/47/20 45/45/20
f 37/47/1 36/48/1 46/49/1 47/50/1
f 36/51/2 38/52/2 48/53/2 46/54/2
f 38/52/3 39/55/3 49/56/3 48/53/3
f 39/55/4 40/57/4 50/58/4 49/56/4
f 40/40/5 41/39/5 51/59/5 50/60/5
f 41/39/21 42/41/21 52/61/21 51/59/21
f 42/43/7 43/42/7 53/62/7 52/63/7
f 43/42/8 44/44/8 54/64/8 53/62/8
f 44/46/9 45/45/9 55/65/9 54/66/9
f 45/45/22 37/47/22 47/50/22 55/65/22
f 47/50/23 46/49/23 56/67/23 57/68/23
f 46/54/24 48/53/24 58/69/24 56/70/24
f 48/53/25 49/56/25 59/71/25 58/69/25
f 49/56/26 50/58/26 60/72/26 59/71/26
f 50/60/27 51/59/27 61/73/27 60/74/27
f 51/59/28 52/61/28 62/75/28 61/73/28
f 52/63/29 53/62/29 63/76/29 62/77/29
f 53/62/30 54/64/30 64/78/30 63/76/30
f 54/66/31 55/65/31 65/79/31 64/80/31
f 55/65/32 47/50/32 57/68/32 65/79/32
f 57/68/33 56/67/33 66/81/33 67/82/33
f 56/70/34 58/69/34 68/83/34 66/84/34
f 58/69/35 59/71/35 69/85/35 68/83/35
f 59/71/36 60/72/36 70/86/36 69/85/36
f 60/74/37 61/73/37 71/87/37 70/88/37
f 61/73/38 62/75/38 72/89/38 71/87/38
f 62/77/39 63/76/39 73/90/39 72/91/39
f 63/76/40 64/78/40 74/92/40 73/90/40
f 64/80/41 65/79/41 75/93/41 74/94/41
f 65/79/42 57/68/42 67/82/42 75/93/42
f 67/82/43 66/81/43 76/95/43 77/96/43
f 66/84/44 68/83/44 78/97/44 76/98/44
f 68/83/45 69/85/45 79/99/45 78/97/45
f 69/85/46 70/86/46 80/100/46 79/99/46
f 70/88/47 71/87/47 81/101/47 80/102/47
f 71/87/48 72/89/48 82/103/48 81/101/48
f 72/91/49 73/90/49 83/104/49 82/105/49
f 73/90/50 74/92/50 84/106/50 83/104/50
f 74/94/51 75/93/51 85/107/51 84/108/51
f 75/93/52 67/82/52 77/96/52 85/107/52
f 32/109/53 30/110/53 28/111/53 16/112/53
f 28/111/53 26/113/53 24/114/53 16/112/53
f 24/114/53 22/115/53 20/116/53 16/112/53
f 20/116/53 17/117/53 16/112/53
f 34/118/53 32/109/53 16/112/53
f 76/119/54 78/120/54 79/121/54 85/122/54
f 79/121/54 80/123/54 81/124/54 85/122/54
f 81/124/54 82/125/54 83/126/54 85/122/54
f 83/126/54 84/127/54 85/122/54
f 77/128/54 76/119/54 85/122/54
f 86/129/55 87/130/55 88/131/55 89/132/55
f 87/133/56 90/134/56 91/135/56 88/136/56
f 90/134/57 92/137/57 93/138/57 91/135/57
f 92/137/58 94/139/58 95/140/58 93/138/58
f 94/141/59 96/142/59 97/143/59 95/144/59
f 96/142/60 98/145/60 99/146/60 97/143/60
f 98/147/61 100/148/61 101/149/61 99/150/61
f 100/148/62 102/151/62 103/152/62 101/149/62
f 102/153/63 104/154/63 105/155/63 103/156/63
f 104/154/64 86/129/64 89/132/64 105/155/64
f 102/157/53 100/158/53 98/159/53 86/160/53
f 98/159/53 96/161/53 94/162/53 86/160/53
f 94/162/53 92/163/53 90/164/53 86/160/53
f 90/164/53 87/165/53 86/160/53
f 104/166/53 102/157/53 86/160/53
f 88/167/54 91/168/54 93/169/54 105/170/54
f 93/169/54 95/171/54 97/172/54 105/170/54
f 97/172/54 99/173/54 101/174/54 105/170/54
f 101/174/54 103/175/54 105/170/54
f 89/176/54 88/167/54 105/170/54
f 106/177/65 107/178/65 108/179/65 109/180/65
f 107/181/66 110/182/66 111/183/66 108/184/66
f 110/182/67 112/185/67 113/186/67 111/183/67
f 112/185/68 114/187/68 115/188/68 113/186/68
f 114/189/69 116/190/69 117/191/69 115/192/69
f 116/190/70 118/193/70 119/194/70 117/191/70
f 118/195/71 120/196/71 121/197/71 119/198/71
f 120/196/72 122/199/72 123/200/72 121/197/72
f 122/201/73 124/202/73 125/203/73 123/204/73
f 124/202/74 106/177/74 109/180/74 125/203/74
f 122/205/53 120/206/53 118/207/53 106/208/53
f 118/207/53 116/209/53 114/210/53 106/208/53
f 114/210/53 112/211/53 110/212/53 106/208/53
f 110/212/53 107/213/53 106/208/53
f 124/214/53 122/205/53 106/208/53
f 108/215/54 111/216/54 113/217/54 125/218/54
f 113/217/54 115/219/54 117/220/54 125/218/54
f 117/220/54 119/221/54 121/222/54 125/218/54
f 121/222/54 123/223/54 125/218/54
f 109/224/54 108/215/54 125/218/54
f 126/225/75 127/226/75 128/227/75 129/228/75
f 130/229/76 129/228/76 128/227/76 131/230/76
f 127/231/77 130/232/77 131/233/77 128/234/77
f 131/235/78 128/236/78 132/237/78 133/238/78
f 133/239/79 132/240/79 134/241/79 135/242/79
f 135/242/80 134/241/80 136/243/80 137/244/80
f 137/245/81 136/246/81 138/247/81 139/248/81
f 136/249/82 137/250/82 139/251/82
f 136/249/83 139/251/83 127/252/83
f 139/253/84 138/254/84 127/226/84 126/225/84
f 139/253/85 126/225/85 129/228/85 130/229/85
f 127/252/86 139/251/86 130/255/86
f 129/256/87 126/257/87 141/258/87 140/259/87
f 142/260/1 143/261/1 144/262/1 145/263/1
f 143/264/88 146/265/88 147/266/88 144/267/88
f 146/265/3 148/268/3 149/269/3 147/266/3
f 148/268/89 150/270/89 151/271/89 149/269/89
f 150/272/5 152/273/5 153/274/5 151/275/5
f 152/273/90 154/276/90 155/277/90 153/274/90
f 154/278/7 156/279/7 157/280/7 155/281/7
f 156/279/8 158/282/8 159/283/8 157/280/8
f 158/284/9 160/285/9 161/286/9 159/287/9
f 160/285/91 142/260/91 145/263/91 161/286/91
f 158/288/53 156/289/53 154/290/53 142/291/53
f 154/290/53 152/292/53 150/293/53 142/291/53
f 150/293/53 148/294/53 146/295/53 142/291/53
f 146/295/53 143/296/53 142/291/53
f 160/297/53 158/288/53 142/291/53
f 144/298/54 147/299/54 149/300/54 161/301/54
f 149/300/54 151/302/54 153/303/54 161/301/54
f 153/303/54 155/304/54 157/305/54 161/301/54
f 157/305/54 159/306/54 161/301/54
f 145/307/54 144/298/54 161/301/54
f 162/308/1 163/309/1 164/310/1 165/311/1
f 163/312/2 166/313/2 167/314/2 164/315/2
f 166/313/3 168/316/3 169/317/3 167/314/3
f 168/316/4 170/318/4 171/319/4 169/317/4
f 170/320/5 172/321/5 173/322/5 171/323/5
f 172/321/90 174/324/90 175/325/90 173/322/90
f 174/326/92 176/327/92 177/328/92 175/329/92
f 176/327/8 178/330/8 179/331/8 177/328/8
f 178/332/93 180/333/93 181/334/93 179/335/93
f 180/333/91 162/308/91 165/311/91 181/334/91
f 178/336/53 176/337/53 174/338/53 162/339/53
f 174/338/53 172/340/53 170/341/53 162/339/53
f 170/341/53 168/342/53 166/343/53 162/339/53
f 166/343/53 163/344/53 162/339/53
f 180/345/53 178/336/53 162/339/53
f 164/346/54 167/347/54 169/348/54 181/349/54
f 169/348/54 171/350/54 173/351/54 181/349/54
f 173/351/54 175/352/54 177/353/54 181/349/54
f 177/353/54 179/354/54 181/349/54
f 165/355/54 164/346/54 181/349/54
f 182/356/54 184/357/54 185/358/54 191/359/54
f 185/358/54 186/360/54 187/361/54 191/359/54
f 187/361/54 188/362/54 189/363/54 191/359/54
f 189/363/54 190/364/54 191/359/54
f 183/365/54 182/356/54 191/359/54
f 127/366/94 138/367/94 136/368/94
