# Blender v2.93.5 OBJ File: 'tank1.blend'
# www.blender.org
mtllib head.mtl
o Cube.002_Cube.006
v -0.000000 -0.524147 1.274061
v 1.156187 -0.525194 0.169799
v 0.982895 0.473020 0.155981
v 1.040839 -0.529762 0.725644
v 0.419605 -0.225218 1.408623
v 0.777355 -0.528927 1.095466
v 0.184511 -0.530759 -1.110159
v 1.040839 -0.535307 -0.525483
v 0.761896 -0.533991 -0.924922
v 0.648901 0.529609 0.356310
v 0.417248 0.529609 0.639326
v 0.648901 0.529609 -0.048831
v 0.399716 0.529609 -0.434680
v -0.000000 -0.223586 1.517290
v -0.000000 0.224856 1.406977
v 1.349903 -0.220746 0.172539
v 1.168794 0.218767 0.171531
v 1.215301 -0.225794 0.776683
v 1.051908 0.217388 0.596630
v 0.839210 -0.226849 1.299955
v 0.681141 0.220037 1.066571
v -0.419605 -0.225218 1.408623
v 0.132331 -0.237763 -1.332990
v 0.829148 -0.231725 -1.099192
v 0.672011 0.214851 -0.896355
v 1.053093 0.214011 -0.323258
v 1.215142 -0.230058 -0.534780
v 0.340571 0.222447 1.296338
v -0.000000 -0.527541 -1.110161
v -1.156187 -0.525194 0.169799
v -0.000000 0.473020 1.043513
v -0.000000 0.529609 0.174253
v -0.982895 0.473020 0.155981
v -1.040839 -0.529762 0.725644
v 0.203839 0.529609 0.718329
v -0.777355 -0.528927 1.095466
v -0.184511 -0.530759 -1.110159
v -1.040839 -0.535307 -0.525483
v -0.761896 -0.533991 -0.924922
v -0.648901 0.529609 0.356310
v -0.417248 0.529609 0.639326
v -0.648901 0.529609 -0.048831
v -0.000000 0.529609 -0.592173
v -0.399716 0.529609 -0.434680
v 1.206950 -0.008264 -0.463404
v 0.798781 -0.008704 -1.068684
v -0.000000 -0.238545 -1.333115
v 0.000000 0.329641 -1.111050
v -0.340571 0.222447 1.296338
v -0.203839 0.529609 0.718329
v -1.349903 -0.220746 0.172539
v -1.168794 0.218767 0.171531
v -1.215301 -0.225794 0.776683
v -1.051908 0.217388 0.596630
v -0.839210 -0.226849 1.299955
v -0.681141 0.220037 1.066571
v -0.404790 -0.526546 1.181061
v 0.404790 -0.526546 1.181061
v -0.132331 -0.237763 -1.332990
v -0.829148 -0.231725 -1.099192
v -0.672011 0.214851 -0.896355
v -1.053093 0.214011 -0.323258
v -1.215142 -0.230058 -0.534780
v 0.808993 -0.003350 1.252417
v 1.206404 -0.004198 0.723919
v -0.000000 0.000951 1.549196
v 0.000000 -0.109470 -1.319114
v 1.340223 -0.000778 0.176693
v -0.404497 -0.001200 1.432501
v 0.404497 -0.001200 1.432501
v -0.798781 -0.008704 -1.068684
v -1.206950 -0.008264 -0.463404
v -0.808993 -0.003350 1.252417
v -1.206404 -0.004198 0.723919
v -1.340223 -0.000778 0.176693
v 0.180275 0.200511 -1.171215
v 0.039860 0.328193 -1.111515
v 0.109136 0.353968 -1.070808
v 0.200918 0.261686 -1.096922
v 0.097624 -0.111637 -1.319563
v 0.205579 0.008780 -1.261885
v 0.253303 -0.058347 -1.295753
v 0.174214 -0.153648 -1.323515
v -0.039859 0.328193 -1.111515
v -0.180275 0.200511 -1.171215
v -0.200918 0.261686 -1.096922
v -0.109136 0.353967 -1.070808
v -0.205579 0.008780 -1.261885
v -0.097624 -0.111637 -1.319563
v -0.174214 -0.153648 -1.323515
v -0.253302 -0.058347 -1.295753
v 1.252262 -0.443920 0.804545
v 0.896839 -0.442762 1.303412
v 0.214988 -0.445692 -1.340493
v 0.888158 -0.448847 -1.124528
v 1.252262 -0.449858 -0.603142
v 1.391040 -0.439551 0.169799
v -0.000000 -0.442474 -1.340493
v -1.252262 -0.443920 0.804545
v -0.896839 -0.442762 1.303412
v -0.214988 -0.445692 -1.340493
v -0.888158 -0.448847 -1.124528
v -1.252262 -0.449858 -0.603142
v -1.391040 -0.439551 0.169799
v 0.448419 -0.440338 1.406436
v -0.448419 -0.440338 1.406436
v -0.000000 -0.437914 1.509460
v 0.884836 0.473020 0.437799
v 0.558185 0.473020 0.836875
v -0.000000 0.473020 -0.872318
v 0.548120 0.473020 -0.656353
v 0.884836 0.473020 -0.134968
v 0.720814 0.529609 0.162965
v -0.558185 0.473020 0.836875
v -0.279093 0.473020 0.940194
v 0.279092 0.473020 0.940194
v -0.000000 0.529609 0.793790
v -0.884836 0.473020 0.437799
v -0.548120 0.473020 -0.656353
v -0.884836 0.473020 -0.134968
v -0.720814 0.529609 0.162965
vt 0.430067 0.721244
vt 0.478988 0.696355
vt 0.493962 0.756915
vt 0.447497 0.792602
vt 0.430147 0.655618
vt 0.478902 0.653073
vt 0.314502 0.655652
vt 0.312597 0.536408
vt 0.349880 0.546956
vt 0.351600 0.656033
vt 0.429185 0.579321
vt 0.387599 0.656698
vt 0.386172 0.558058
vt 0.744882 0.005031
vt 0.781142 0.014763
vt 0.780365 0.085737
vt 0.744293 0.080824
vt 0.262872 0.229770
vt 0.220981 0.289311
vt 0.153783 0.313614
vt 0.153783 0.195429
vt 0.262872 0.196997
vt 0.153783 0.099744
vt 0.188052 0.111388
vt 0.223928 0.123579
vt 0.262872 0.167252
vt 0.313990 0.753596
vt 0.350965 0.749297
vt 0.368054 0.828865
vt 0.330490 0.829464
vt 0.694251 0.628729
vt 0.729112 0.614550
vt 0.734229 0.736649
vt 0.697520 0.746393
vt 0.446471 0.489721
vt 0.493962 0.526501
vt 0.478813 0.607986
vt 0.329156 0.454840
vt 0.366987 0.458679
vt 0.211038 0.022103
vt 0.200703 0.077135
vt 0.153783 0.061192
vt 0.153783 0.005031
vt 0.779588 0.156712
vt 0.743703 0.156616
vt 0.694789 0.593429
vt 0.728979 0.592829
vt 0.187560 0.391422
vt 0.172131 0.387420
vt 0.153783 0.356827
vt 0.245930 0.323501
vt 0.266758 0.360458
vt 0.039274 0.057558
vt 0.096529 0.022103
vt 0.106864 0.077135
vt 0.059945 0.093078
vt 0.404473 0.463409
vt 0.817720 0.088442
vt 0.816953 0.156911
vt 0.387218 0.741245
vt 0.405586 0.821554
vt 0.858379 0.040469
vt 0.856561 0.098674
vt 0.819101 0.019705
vt 0.819101 0.291607
vt 0.781142 0.296822
vt 0.780365 0.226767
vt 0.817720 0.224393
vt 0.636846 0.794471
vt 0.595025 0.821029
vt 0.577793 0.727859
vt 0.620556 0.706251
vt 0.621422 0.564304
vt 0.637864 0.491579
vt 0.684190 0.527074
vt 0.670088 0.588840
vt 0.670007 0.632129
vt 0.621511 0.629943
vt 0.505922 0.629984
vt 0.543079 0.629687
vt 0.541365 0.738772
vt 0.504023 0.749238
vt 0.750783 0.592759
vt 0.750413 0.608776
vt 0.743327 0.621390
vt 0.044694 0.229770
vt 0.044694 0.196997
vt 0.086586 0.289311
vt 0.135436 0.387420
vt 0.120007 0.391422
vt 0.040809 0.360458
vt 0.061637 0.323501
vt 0.044694 0.167252
vt 0.083638 0.123579
vt 0.119515 0.111388
vt 0.505395 0.532020
vt 0.520946 0.454840
vt 0.558514 0.455443
vt 0.542430 0.536402
vt 0.694251 0.558155
vt 0.697520 0.454840
vt 0.734229 0.464466
vt 0.729112 0.571110
vt 0.669922 0.677224
vt 0.684190 0.757489
vt 0.519628 0.829488
vt 0.557459 0.825648
vt 0.744293 0.231537
vt 0.743327 0.564201
vt 0.750413 0.576729
vt 0.856561 0.213140
vt 0.855896 0.156375
vt 0.744882 0.306458
vt 0.578820 0.544644
vt 0.596128 0.462867
vt 0.579213 0.629209
vt 0.268292 0.057558
vt 0.247622 0.093078
vt 0.858379 0.269401
vt 0.160484 0.393694
vt 0.153784 0.393623
vt 0.147083 0.393694
vt 0.759732 0.551746
vt 0.772014 0.469538
vt 0.816678 0.565612
vt 0.805155 0.566790
vt 0.771539 0.560424
vt 0.812381 0.495134
vt 0.759732 0.634897
vt 0.772014 0.731753
vt 0.805155 0.625968
vt 0.827530 0.604372
vt 0.832550 0.616986
vt 0.816678 0.631567
vt 0.771539 0.627909
vt 0.827530 0.591288
vt 0.832550 0.581160
vt 0.812381 0.715734
vt 0.392436 0.069147
vt 0.455069 0.055934
vt 0.523120 0.041578
vt 0.591170 0.055934
vt 0.653803 0.069147
vt 0.698099 0.126210
vt 0.698099 0.211975
vt 0.698099 0.319264
vt 0.651204 0.380891
vt 0.554138 0.409464
vt 0.523120 0.409455
vt 0.492101 0.409464
vt 0.395035 0.380891
vt 0.348140 0.319264
vt 0.348141 0.211975
vt 0.348141 0.126210
vt 0.312598 0.113810
vt 0.372349 0.036835
vt 0.486977 0.444778
vt 0.373808 0.411465
vt 0.312598 0.331021
vt 0.312598 0.211749
vt 0.523120 0.444770
vt 0.673890 0.036835
vt 0.733642 0.113810
vt 0.672431 0.411465
vt 0.559262 0.444778
vt 0.733642 0.331021
vt 0.733642 0.211749
vt 0.447734 0.020933
vt 0.598505 0.020933
vt 0.523120 0.005031
vt 0.302536 0.154660
vt 0.302536 0.243045
vt 0.302536 0.197950
vt 0.005031 0.154660
vt 0.005031 0.243045
vt 0.005031 0.197950
vn 0.6753 0.6555 0.3379
vn 0.4870 0.8381 0.2455
vn 0.3255 0.8632 0.3858
vn 0.4612 0.7024 0.5421
vn 0.7801 0.6255 0.0134
vn 0.5764 0.8171 0.0028
vn 0.8920 -0.4517 0.0154
vn 0.8290 -0.4279 -0.3601
vn 0.9037 0.1986 -0.3793
vn 0.9908 0.1345 0.0160
vn 0.6955 0.6515 -0.3030
vn 0.9345 0.3556 0.0169
vn 0.8494 0.3961 -0.3487
vn 0.5184 -0.4575 0.7224
vn 0.5493 0.1392 0.8239
vn 0.2683 0.0058 0.9633
vn 0.1905 -0.5594 0.8067
vn 0.1075 0.9928 -0.0530
vn 0.0820 0.9921 -0.0950
vn 0.0000 0.9924 -0.1229
vn 0.0000 1.0000 0.0000
vn 0.1281 0.9917 0.0024
vn 0.0000 0.9907 0.1358
vn 0.0410 0.9930 0.1109
vn 0.0774 0.9911 0.1085
vn 0.1081 0.9920 0.0644
vn 0.8149 -0.4512 0.3638
vn 0.8933 0.1744 0.4142
vn 0.1540 -0.4968 -0.8541
vn 0.1221 0.0946 -0.9880
vn 0.5833 0.1946 -0.7885
vn 0.5537 -0.4188 -0.7197
vn 0.4671 0.6922 -0.5501
vn 0.3440 0.8664 -0.3620
vn 0.4967 0.8416 -0.2119
vn 0.2817 0.6955 0.6610
vn 0.1720 0.9013 0.3976
vn 0.0000 0.9027 0.4302
vn 0.0000 0.6870 0.7266
vn 0.0000 -0.0615 0.9981
vn 0.0000 -0.5385 0.8426
vn 0.0000 -0.5524 -0.8336
vn 0.0000 0.0715 -0.9974
vn 0.3139 0.6706 -0.6721
vn 0.2232 0.7626 -0.6071
vn 0.0000 0.9017 -0.4323
vn -0.4612 0.7024 0.5421
vn -0.2817 0.6955 0.6610
vn -0.1720 0.9013 0.3976
vn -0.3255 0.8632 0.3858
vn 0.5666 0.4010 -0.7197
vn 0.3224 0.3003 0.8977
vn 0.0000 0.2227 0.9749
vn 0.8325 0.3995 0.3838
vn 0.5615 0.4102 0.7186
vn -0.5615 0.4102 0.7186
vn -0.5493 0.1392 0.8239
vn -0.2683 0.0058 0.9633
vn -0.3224 0.3003 0.8977
vn -0.4671 0.6922 -0.5501
vn -0.5666 0.4010 -0.7197
vn -0.8494 0.3961 -0.3487
vn -0.6955 0.6515 -0.3030
vn -0.6753 0.6555 0.3379
vn -0.4870 0.8381 0.2455
vn -0.5764 0.8171 0.0028
vn -0.7801 0.6255 0.0134
vn -0.8920 -0.4517 0.0154
vn -0.9908 0.1345 0.0160
vn -0.9037 0.1986 -0.3793
vn -0.8290 -0.4279 -0.3601
vn 0.0000 0.2714 -0.9625
vn 0.0056 0.2780 -0.9605
vn 0.1697 0.1652 -0.9715
vn -0.1075 0.9928 -0.0530
vn -0.1281 0.9917 0.0024
vn -0.0820 0.9921 -0.0950
vn -0.2232 0.7626 -0.6071
vn -0.3139 0.6706 -0.6721
vn -0.3440 0.8664 -0.3620
vn -0.1081 0.9920 0.0644
vn -0.0774 0.9911 0.1085
vn -0.0410 0.9930 0.1109
vn -0.8149 -0.4512 0.3638
vn -0.5184 -0.4575 0.7224
vn -0.8933 0.1744 0.4142
vn -0.1540 -0.4968 -0.8541
vn -0.5537 -0.4188 -0.7197
vn -0.5833 0.1946 -0.7885
vn -0.1221 0.0946 -0.9880
vn -0.4967 0.8416 -0.2119
vn -0.1905 -0.5594 0.8067
vn -0.1697 0.1652 -0.9715
vn -0.0056 0.2780 -0.9605
vn -0.8325 0.3995 0.3838
vn -0.9345 0.3556 0.0169
vn 0.0715 0.6688 -0.7400
vn 0.0000 0.6749 -0.7379
vn -0.0715 0.6688 -0.7400
vn -0.2469 0.3326 -0.9102
vn -0.1940 0.5435 -0.8166
vn -0.1440 0.4958 -0.8564
vn 0.2469 0.3326 -0.9102
vn 0.1940 0.5435 -0.8166
vn 0.1440 0.4958 -0.8564
vn 0.1184 -0.9776 0.1742
vn 0.0374 -0.9836 0.1761
vn 0.0000 -0.9797 0.2002
vn -0.0374 -0.9836 0.1761
vn -0.1184 -0.9776 0.1742
vn -0.1847 -0.9792 0.0831
vn -0.1979 -0.9802 0.0070
vn -0.1872 -0.9795 -0.0744
vn -0.1246 -0.9785 -0.1641
vn -0.0248 -0.9818 -0.1884
vn 0.0000 -0.9843 -0.1765
vn 0.0248 -0.9818 -0.1884
vn 0.1246 -0.9785 -0.1641
vn 0.1872 -0.9795 -0.0744
vn 0.1979 -0.9802 0.0070
vn 0.1847 -0.9792 0.0831
usemtl Material.001
s 1
f 19/1/1 108/2/2 109/3/3 21/4/4
f 19/1/1 17/5/5 3/6/6 108/2/2
f 97/7/7 96/8/8 27/9/9 16/10/10
f 26/11/11 17/5/5 68/12/12 45/13/13
f 93/14/14 20/15/15 5/16/16 105/17/17
f 12/18/18 13/19/19 43/20/20 32/21/21 113/22/22
f 113/22/22 32/21/21 117/23/23 35/24/24 11/25/25 10/26/26
f 92/27/27 18/28/28 20/29/15 93/30/14
f 94/31/29 23/32/30 24/33/31 95/34/32
f 25/35/33 111/36/34 112/37/35 26/11/11
f 95/38/32 24/39/31 27/9/9 96/8/8
f 28/40/36 116/41/37 31/42/38 15/43/39
f 105/17/17 5/16/16 14/44/40 107/45/41
f 94/31/29 98/46/42 47/47/43 23/32/30
f 79/48/44 78/49/45 110/50/46 111/51/34 25/52/33
f 17/5/5 26/11/11 112/37/35 3/6/6
f 56/53/47 49/54/48 115/55/49 114/56/50
f 92/27/27 97/7/7 16/10/10 18/28/28
f 46/57/51 45/13/13 27/9/9 24/39/31
f 70/58/52 66/59/53 14/44/40 5/16/16
f 65/60/54 64/61/55 20/29/15 18/28/28
f 21/62/4 28/63/36 70/58/52 64/64/55
f 68/12/12 65/60/54 18/28/28 16/10/10
f 73/65/56 55/66/57 22/67/58 69/68/59
f 45/13/13 68/12/12 16/10/10 27/9/9
f 61/69/60 71/70/61 72/71/62 62/72/63
f 54/73/64 56/74/47 114/75/50 118/76/65
f 54/73/64 118/76/65 33/77/66 52/78/67
f 104/79/68 51/80/69 63/81/70 103/82/71
f 67/83/72 80/84/73 83/85/74 23/32/30 47/47/43
f 64/64/55 70/58/52 5/16/16 20/15/15
f 42/86/75 121/87/76 32/21/21 43/20/20 44/88/77
f 87/89/78 86/90/79 61/91/60 119/92/80 110/50/46
f 121/87/76 40/93/81 41/94/82 50/95/83 117/23/23 32/21/21
f 99/96/84 100/97/85 55/98/57 53/99/86
f 101/100/87 102/101/88 60/102/89 59/103/90
f 61/69/60 62/72/63 120/104/91 119/105/80
f 102/106/88 103/82/71 63/81/70 60/107/89
f 49/54/48 15/43/39 31/42/38 115/55/49
f 106/108/92 107/45/41 14/44/40 22/67/58
f 101/100/87 59/103/90 47/47/43 98/46/42
f 67/83/72 47/47/43 59/103/90 90/109/93 89/110/94
f 49/111/48 69/68/59 66/59/53 15/112/39
f 52/78/67 33/77/66 120/104/91 62/72/63
f 100/113/85 106/108/92 22/67/58 55/66/57
f 99/96/84 53/99/86 51/80/69 104/79/68
f 71/70/61 60/107/89 63/81/70 72/71/62
f 69/68/59 22/67/58 14/44/40 66/59/53
f 74/114/95 53/99/86 55/98/57 73/115/56
f 52/78/67 75/116/96 74/114/95 54/73/64
f 54/73/64 74/114/95 73/115/56 56/74/47
f 75/116/96 51/80/69 53/99/86 74/114/95
f 21/117/4 109/118/3 116/41/37 28/40/36
f 72/71/62 63/81/70 51/80/69 75/116/96
f 62/72/63 72/71/62 75/116/96 52/78/67
f 56/119/47 73/65/56 69/68/59 49/111/48
f 17/5/5 19/1/1 65/60/54 68/12/12
f 78/49/45 77/120/97 48/121/98 110/50/46
f 19/1/1 21/4/4 64/61/55 65/60/54
f 28/63/36 15/112/39 66/59/53 70/58/52
f 25/35/33 26/11/11 45/13/13 46/57/51
f 84/122/99 87/89/78 110/50/46 48/121/98
f 91/123/100 90/109/93 59/103/90 60/102/89 71/124/61
f 86/125/79 85/126/101 88/127/102 91/123/100 71/124/61 61/128/60
f 83/85/74 82/129/103 46/130/51 24/33/31 23/32/30
f 76/131/104 77/132/97 78/133/45 79/134/44
f 80/84/73 81/135/105 82/129/103 83/85/74
f 84/136/99 85/126/101 86/125/79 87/137/78
f 88/127/102 89/110/94 90/109/93 91/123/100
f 76/131/104 79/134/44 25/138/33 46/130/51 82/129/103 81/135/105
f 6/139/106 58/140/107 1/141/108 57/142/109 36/143/110 34/144/111 30/145/112 38/146/113 39/147/114 37/148/115 29/149/116 7/150/117 9/151/118 8/152/119 2/153/120 4/154/121
f 6/139/106 4/154/121 92/155/27 93/156/14
f 9/151/118 7/150/117 94/157/29 95/158/32
f 8/152/119 9/151/118 95/158/32 96/159/8
f 4/154/121 2/153/120 97/160/7 92/155/27
f 2/153/120 8/152/119 96/159/8 97/160/7
f 7/150/117 29/149/116 98/161/42 94/157/29
f 34/144/111 36/143/110 100/162/85 99/163/84
f 37/148/115 39/147/114 102/164/88 101/165/87
f 39/147/114 38/146/113 103/166/71 102/164/88
f 30/145/112 34/144/111 99/163/84 104/167/68
f 58/140/107 6/139/106 93/156/14 105/168/17
f 38/146/113 30/145/112 104/167/68 103/166/71
f 29/149/116 37/148/115 101/165/87 98/161/42
f 36/143/110 57/142/109 106/169/92 100/162/85
f 57/142/109 1/141/108 107/170/41 106/169/92
f 1/141/108 58/140/107 105/168/17 107/170/41
f 10/26/26 11/25/25 109/118/3 108/171/2
f 43/20/20 13/19/19 111/51/34 110/50/46
f 13/19/19 12/18/18 112/172/35 111/51/34
f 113/22/22 10/26/26 108/171/2 3/173/6
f 12/18/18 113/22/22 3/173/6 112/172/35
f 50/95/83 41/94/82 114/56/50 115/55/49
f 35/24/24 117/23/23 31/42/38 116/41/37
f 41/94/82 40/93/81 118/174/65 114/56/50
f 44/88/77 43/20/20 110/50/46 119/92/80
f 42/86/75 44/88/77 119/92/80 120/175/91
f 40/93/81 121/87/76 33/176/66 118/174/65
f 121/87/76 42/86/75 120/175/91 33/176/66
f 11/25/25 35/24/24 116/41/37 109/118/3
f 117/23/23 50/95/83 115/55/49 31/42/38
f 76/131/104 81/135/105 80/84/73 67/83/72 89/110/94 88/127/102 85/126/101 84/136/99 48/121/98 77/120/97
