# Blender v2.93.5 OBJ File: 'tankSg.blend'
# www.blender.org
mtllib tanksRoom.mtl
o Plane
v -5.882196 0.000000 3.416709
v 5.888057 0.000000 3.416709
v -5.882196 0.000000 -3.416709
v 5.888057 0.000000 -3.416709
v -6.031567 0.161847 3.416709
v -6.031567 0.161847 -3.416709
v -5.882196 0.156136 3.478579
v 5.888057 0.156136 3.478579
v 5.963527 0.138187 3.416709
v 5.963527 0.138187 -3.416709
v -5.882196 0.137379 -3.489390
v 5.888057 0.137379 -3.489390
v -6.031567 3.285391 3.416709
v -6.031567 3.285391 -3.416709
v -5.882196 3.279680 3.478579
v 5.888057 3.279680 3.478579
v 5.963527 3.261731 3.416709
v 5.963527 3.261731 -3.416709
v -5.882196 3.260923 -3.489390
v 5.888057 3.260923 -3.489390
v -5.214168 4.685740 2.952112
v -5.214168 4.685740 -2.952847
v -5.085092 4.680805 3.005576
v 5.085932 4.680805 3.005576
v 5.151147 4.665294 2.952112
v 5.151147 4.665294 -2.952847
v -5.085092 4.664596 -3.015652
v 5.085932 4.664596 -3.015652
vt 0.001981 0.491465
vt 0.001981 0.001981
vt 0.400879 0.001981
vt 0.400879 0.491465
vt 0.400879 0.497677
vt 0.001981 0.497677
vt 0.706388 0.460639
vt 0.705921 0.007615
vt 0.715507 0.009093
vt 0.715973 0.462117
vt 0.715973 0.001981
vt 0.705921 0.870811
vt 0.705921 0.471912
vt 0.714491 0.471912
vt 0.714491 0.870811
vt 0.715629 0.468301
vt 0.404841 0.409637
vt 0.412151 0.004324
vt 0.420629 0.001981
vt 0.413319 0.407294
vt 0.414809 0.414823
vt 0.714463 0.875053
vt 0.614798 0.002794
vt 0.607488 0.408108
vt 0.420629 0.638466
vt 0.608978 0.415636
vt 0.614798 0.639279
vt 0.908697 0.471912
vt 0.908697 0.870811
vt 0.909615 0.011315
vt 0.910082 0.464339
vt 0.909835 0.468301
vt 0.910082 0.004203
vt 0.908669 0.875053
vt 0.695643 0.396529
vt 0.696931 0.403035
vt 0.997189 0.495912
vt 0.996206 0.499033
vt 0.998019 0.026394
vt 0.997616 0.032539
vt 0.701960 0.596291
vt 0.996206 0.843733
vt 0.996182 0.847399
vt 0.701960 0.046285
vt 0.998019 0.424011
vt 0.349799 0.501639
vt 0.353469 0.507010
vt 0.353469 0.929986
vt 0.349803 0.932698
vt 0.005104 0.932701
vt 0.001981 0.929986
vt 0.001981 0.507010
vt 0.005101 0.501642
vn 0.0000 1.0000 0.0000
vn 0.7349 0.6782 0.0000
vn 0.0000 0.3684 -0.9297
vn 0.3707 0.3421 -0.8634
vn -0.8776 0.4793 0.0000
vn -0.5592 0.3054 -0.7707
vn 0.0000 0.4676 0.8839
vn 0.4520 0.4171 0.7885
vn -0.6504 0.3552 0.6714
vn 0.0000 0.0000 1.0000
vn 1.0000 0.0000 0.0000
vn -1.0000 0.0000 0.0000
vn 0.4375 0.0000 0.8992
vn 0.0000 0.0000 -1.0000
vn -0.6340 0.0000 -0.7733
vn 0.3827 0.0000 -0.9239
vn -0.6937 0.0000 0.7203
vn 0.3253 -0.4630 0.8245
vn -0.6058 -0.5431 -0.5814
vn 0.3240 -0.4629 -0.8251
vn 0.8636 -0.5041 0.0000
vn -0.5816 -0.5382 0.6099
vn 0.0000 -0.3198 0.9475
vn -0.8655 -0.5009 0.0000
vn 0.0000 -0.3199 -0.9475
vn -0.0020 -1.0000 0.0027
usemtl Material
s off
f 1/1/1 2/2/1 4/3/1 3/4/1
f 1/1/2 3/4/2 6/5/2 5/6/2
f 2/7/3 1/8/3 7/9/3 8/10/3
f 1/8/4 5/11/4 7/9/4
f 4/12/5 2/13/5 9/14/5 10/15/5
f 2/13/6 8/16/6 9/14/6
f 3/17/7 4/18/7 12/19/7 11/20/7
f 3/17/8 11/20/8 6/21/8
f 4/12/9 10/15/9 12/22/9
f 11/20/10 12/19/10 20/23/10 19/24/10
f 5/25/11 6/21/11 14/26/11 13/27/11
f 10/15/12 9/14/12 17/28/12 18/29/12
f 6/21/13 11/20/13 19/24/13 14/26/13
f 8/10/14 7/9/14 15/30/14 16/31/14
f 9/14/15 8/16/15 16/32/15 17/28/15
f 7/9/16 5/11/16 13/33/16 15/30/16
f 12/22/17 10/15/17 18/29/17 20/34/17
f 14/26/18 19/24/18 27/35/18 22/36/18
f 17/28/19 16/32/19 24/37/19 25/38/19
f 15/30/20 13/33/20 21/39/20 23/40/20
f 13/27/21 14/26/21 22/36/21 21/41/21
f 20/34/22 18/29/22 26/42/22 28/43/22
f 19/24/23 20/23/23 28/44/23 27/35/23
f 18/29/24 17/28/24 25/38/24 26/42/24
f 16/31/25 15/30/25 23/40/25 24/45/25
f 22/46/26 27/47/26 28/48/26 26/49/26 25/50/26 24/51/26 23/52/26 21/53/26
