# Blender v2.93.5 OBJ File: 'tankSg.blend'
# www.blender.org
mtllib tBig.mtl
o Cube.004_Cube.006
v 0.509236 -0.969855 0.051210
v 0.509236 -0.504288 0.051210
v -0.509236 -0.969855 0.051210
v -0.509236 -0.504288 0.051210
v 0.509236 -0.969855 -0.051210
v 0.509236 -0.504288 -0.051210
v -0.509236 -0.969855 -0.051210
v -0.509236 -0.504288 -0.051210
v 0.000000 1.315488 -0.288526
v 0.000000 1.130968 -0.519906
v 0.000000 0.864330 -0.648312
v 0.000000 -0.594918 -0.519906
v 0.225579 1.315488 -0.179893
v 0.406479 1.130968 -0.324156
v 0.506871 0.864330 -0.404216
v 0.506871 -0.328280 -0.404216
v 0.406479 -0.594918 -0.324156
v 0.225579 -0.779437 -0.179893
v 0.281292 1.315488 0.064203
v 0.506871 1.130968 0.115690
v 0.632057 0.864330 0.144263
v 0.632057 -0.328280 0.144263
v 0.506871 -0.594918 0.115690
v 0.281292 -0.779437 0.064203
v 0.125187 1.315488 0.259953
v 0.225579 1.130968 0.468419
v 0.281292 0.864330 0.584109
v 0.281292 -0.328280 0.584109
v 0.225579 -0.594918 0.468419
v 0.125187 -0.779437 0.259953
v 0.000000 -0.845291 0.000000
v -0.000000 1.381342 0.000000
v -0.125187 1.315488 0.259953
v -0.225579 1.130968 0.468419
v -0.281292 0.864330 0.584109
v -0.281292 -0.328280 0.584109
v -0.225579 -0.594918 0.468419
v -0.125187 -0.779437 0.259953
v -0.281292 1.315488 0.064203
v -0.506871 1.130968 0.115690
v -0.632057 0.864330 0.144263
v -0.632057 -0.328280 0.144263
v -0.506871 -0.594918 0.115690
v -0.281292 -0.779437 0.064203
v -0.225579 1.315488 -0.179893
v -0.406479 1.130968 -0.324156
v -0.506871 0.864330 -0.404216
v -0.506871 -0.328280 -0.404216
v -0.406479 -0.594918 -0.324156
v -0.225579 -0.779437 -0.179893
v 0.000000 -0.328280 -0.648312
v 0.000000 -0.779437 -0.288526
v -0.051210 -0.969855 0.509236
v -0.051210 -0.504288 0.509236
v -0.051210 -0.969855 -0.509236
v -0.051210 -0.504288 -0.509236
v 0.051210 -0.969855 0.509236
v 0.051210 -0.504288 0.509236
v 0.051210 -0.969855 -0.509236
v 0.051210 -0.504288 -0.509236
vt 0.818879 0.918763
vt 0.743021 0.918763
vt 0.743021 0.842904
vt 0.818879 0.842904
vt 0.981037 0.842904
vt 0.981037 0.918763
vt 0.905225 0.918763
vt 0.905225 0.842904
vt 0.818879 0.837637
vt 0.743021 0.837637
vt 0.743021 0.761779
vt 0.818879 0.761779
vt 0.899958 0.842904
vt 0.899958 0.918763
vt 0.824146 0.918763
vt 0.824146 0.842904
vt 0.078347 0.996736
vt 0.002633 0.996736
vt 0.002633 0.920878
vt 0.078347 0.920878
vt 0.888378 0.171820
vt 0.888377 0.002634
vt 0.918653 0.147340
vt 0.905180 0.252125
vt 0.422753 0.002633
vt 0.617074 0.002633
vt 0.617074 0.184634
vt 0.422753 0.184634
vt 0.954196 0.002634
vt 0.954196 0.171199
vt 0.937394 0.251422
vt 0.923920 0.147191
vt 0.888378 0.384446
vt 0.379308 0.097680
vt 0.379308 0.243634
vt 0.660519 0.097680
vt 0.660519 0.243634
vt 0.954196 0.383448
vt 0.933244 0.431683
vt 0.349242 0.349947
vt 0.379308 0.569472
vt 0.349242 0.530774
vt 0.617074 0.590948
vt 0.422753 0.590948
vt 0.690585 0.349947
vt 0.690585 0.530774
vt 0.660519 0.569472
vt 0.909330 0.432571
vt 0.379307 0.829832
vt 0.349242 0.675262
vt 0.617074 0.915611
vt 0.422753 0.915611
vt 0.690585 0.675262
vt 0.660519 0.829832
vt 0.897703 0.577278
vt 0.944871 0.576240
vt 0.737754 0.761779
vt 0.737754 0.956100
vt 0.695851 0.956100
vt 0.695851 0.761779
vt 0.937394 0.732492
vt 0.963520 0.576240
vt 0.970997 0.732492
vt 0.879054 0.577278
vt 0.905180 0.733243
vt 0.909330 0.821453
vt 0.867427 0.821453
vt 0.871577 0.733243
vt 0.933244 0.821256
vt 0.975147 0.821256
vt 0.867427 0.432571
vt 0.032699 0.088413
vt 0.076144 0.002634
vt 0.076144 0.327297
vt 0.032699 0.348773
vt 0.270465 0.002634
vt 0.313910 0.088413
vt 0.313910 0.348773
vt 0.270465 0.327297
vt 0.975147 0.431683
vt 0.002633 0.242982
vt 0.002633 0.387471
vt 0.343976 0.242982
vt 0.343976 0.387471
vt 0.871576 0.252125
vt 0.076144 0.733610
vt 0.032699 0.674611
vt 0.313910 0.674611
vt 0.270465 0.733610
vt 0.970997 0.251422
vt 0.002633 0.568297
vt 0.343976 0.568297
vt 0.313910 0.820564
vt 0.270465 0.915611
vt 0.858102 0.147340
vt 0.076144 0.915611
vt 0.984471 0.147191
vt 0.032699 0.820564
vt 0.852835 0.756512
vt 0.776977 0.756512
vt 0.776977 0.002634
vt 0.852835 0.002634
vt 0.844670 0.761779
vt 0.844670 0.837637
vt 0.837041 0.837637
vt 0.837041 0.761779
vt 0.771710 0.756512
vt 0.695851 0.756512
vt 0.695851 0.002634
vt 0.771710 0.002634
vt 0.831775 0.761779
vt 0.831775 0.837637
vt 0.824146 0.837637
vt 0.824146 0.761779
vt 0.989738 0.002634
vt 0.997367 0.002634
vt 0.997367 0.755529
vt 0.989738 0.755529
vn 0.5773 -0.5773 0.5773
vn 0.7071 0.0000 0.7071
vn -0.7071 0.0000 0.7071
vn -0.5773 -0.5773 0.5773
vn -0.7071 0.0000 -0.7071
vn -0.5773 -0.5773 -0.5773
vn 0.7071 0.0000 -0.7071
vn 0.5773 -0.5773 -0.5773
vn 0.0000 -0.8760 -0.4823
vn 0.0000 -0.5948 -0.8038
vn 0.6285 -0.5948 -0.5012
vn 0.3771 -0.8760 -0.3007
vn 0.0000 -0.2102 -0.9776
vn 0.0000 0.2102 -0.9776
vn 0.7643 0.2102 -0.6095
vn 0.7643 -0.2102 -0.6095
vn 0.0000 0.5948 -0.8038
vn 0.0000 0.8760 -0.4823
vn 0.3771 0.8760 -0.3007
vn 0.6285 0.5948 -0.5012
vn 0.0000 -1.0000 0.0000
vn 0.0000 1.0000 0.0000
vn 0.4702 0.8760 0.1073
vn 0.7837 -0.5948 0.1789
vn 0.4702 -0.8760 0.1073
vn 0.9531 0.2102 0.2175
vn 0.9531 -0.2102 0.2175
vn 0.7837 0.5948 0.1789
vn 0.3488 -0.5948 0.7242
vn 0.2093 -0.8760 0.4346
vn 0.4242 0.2102 0.8808
vn 0.4242 -0.2102 0.8808
vn 0.2093 0.8760 0.4346
vn 0.3488 0.5948 0.7242
vn -0.4242 0.2102 0.8808
vn -0.4242 -0.2102 0.8808
vn -0.2093 0.8760 0.4346
vn -0.3488 0.5948 0.7242
vn -0.2093 -0.8760 0.4346
vn -0.3488 -0.5948 0.7242
vn -0.4702 -0.8760 0.1073
vn -0.9531 -0.2102 0.2175
vn -0.7837 -0.5948 0.1789
vn -0.7837 0.5948 0.1789
vn -0.9531 0.2102 0.2175
vn -0.4702 0.8760 0.1073
vn -0.3771 -0.8760 -0.3007
vn -0.7643 -0.2102 -0.6095
vn -0.6285 -0.5948 -0.5012
vn -0.6285 0.5948 -0.5012
vn -0.7643 0.2102 -0.6095
vn -0.3771 0.8760 -0.3007
usemtl None
s 1
f 1/1/1 2/2/2 4/3/3 3/4/4
f 3/5/4 4/6/3 8/7/5 7/8/6
f 7/9/6 8/10/5 6/11/7 5/12/8
f 5/13/8 6/14/7 2/15/2 1/16/1
f 3/17/4 7/18/6 5/19/8 1/20/1
f 52/21/9 12/22/10 17/23/11 18/24/12
f 51/25/13 11/26/14 15/27/15 16/28/16
f 10/29/17 9/30/18 13/31/19 14/32/20
f 31/33/21 52/21/9 18/24/12
f 12/34/10 51/25/13 16/28/16 17/35/11
f 11/26/14 10/36/17 14/37/20 15/27/15
f 9/30/18 32/38/22 13/31/19
f 13/31/19 32/38/22 19/39/23
f 18/40/12 17/35/11 23/41/24 24/42/25
f 16/28/16 15/27/15 21/43/26 22/44/27
f 14/37/20 13/45/19 19/46/23 20/47/28
f 31/33/21 18/24/12 24/48/25
f 17/35/11 16/28/16 22/44/27 23/41/24
f 15/27/15 14/37/20 20/47/28 21/43/26
f 24/42/25 23/41/24 29/49/29 30/50/30
f 22/44/27 21/43/26 27/51/31 28/52/32
f 20/47/28 19/46/23 25/53/33 26/54/34
f 31/33/21 24/48/25 30/55/30
f 23/41/24 22/44/27 28/52/32 29/49/29
f 21/43/26 20/47/28 26/54/34 27/51/31
f 19/39/23 32/38/22 25/56/33
f 28/57/32 27/58/31 35/59/35 36/60/36
f 26/61/34 25/56/33 33/62/37 34/63/38
f 31/33/21 30/55/30 38/64/39
f 29/65/29 28/66/32 36/67/36 37/68/40
f 27/69/31 26/61/34 34/63/38 35/70/35
f 25/56/33 32/38/22 33/62/37
f 30/55/30 29/65/29 37/68/40 38/64/39
f 31/33/21 38/64/39 44/71/41
f 37/72/40 36/73/36 42/74/42 43/75/43
f 35/76/35 34/77/38 40/78/44 41/79/45
f 33/62/37 32/38/22 39/80/46
f 38/81/39 37/72/40 43/75/43 44/82/41
f 36/73/36 35/76/35 41/79/45 42/74/42
f 34/77/38 33/83/37 39/84/46 40/78/44
f 31/33/21 44/71/41 50/85/47
f 43/75/43 42/74/42 48/86/48 49/87/49
f 41/79/45 40/78/44 46/88/50 47/89/51
f 39/80/46 32/38/22 45/90/52
f 44/82/41 43/75/43 49/87/49 50/91/47
f 42/74/42 41/79/45 47/89/51 48/86/48
f 40/78/44 39/84/46 45/92/52 46/88/50
f 47/89/51 46/88/50 10/93/17 11/94/14
f 45/90/52 32/38/22 9/30/18
f 50/85/47 49/95/49 12/22/10 52/21/9
f 48/86/48 47/89/51 11/94/14 51/96/13
f 46/97/50 45/90/52 9/30/18 10/29/17
f 31/33/21 50/85/47 52/21/9
f 49/87/49 48/86/48 51/96/13 12/98/10
f 53/99/4 54/100/3 56/101/5 55/102/6
f 55/103/6 56/104/5 60/105/7 59/106/8
f 59/107/8 60/108/7 58/109/2 57/110/1
f 57/111/1 58/112/2 54/113/3 53/114/4
f 55/115/6 59/116/8 57/117/1 53/118/4
