# Blender v2.93.5 OBJ File: 'tankSg.blend'
# www.blender.org
mtllib tSmall.mtl
o Cube.003_Cube.007
v 0.352885 -0.504646 0.035487
v 0.352885 -0.262396 0.035487
v -0.352885 -0.504646 0.035487
v -0.352885 -0.262396 0.035487
v 0.352885 -0.504646 -0.035487
v 0.352885 -0.262396 -0.035487
v -0.352885 -0.504646 -0.035487
v -0.352885 -0.262396 -0.035487
v -0.000000 0.684490 -0.199940
v -0.000000 0.588479 -0.360279
v -0.000000 0.449738 -0.449261
v -0.000000 -0.309554 -0.360279
v 0.156319 0.684490 -0.124660
v 0.281678 0.588479 -0.224630
v 0.351246 0.449738 -0.280110
v 0.351246 -0.170814 -0.280110
v 0.281678 -0.309554 -0.224630
v 0.156319 -0.405565 -0.124660
v 0.194927 0.684490 0.044491
v 0.351246 0.588479 0.080170
v 0.437997 0.449738 0.099970
v 0.437997 -0.170814 0.099970
v 0.351246 -0.309554 0.080170
v 0.194927 -0.405565 0.044491
v 0.086751 0.684490 0.180140
v 0.156319 0.588479 0.324601
v 0.194927 0.449738 0.404770
v 0.194927 -0.170814 0.404770
v 0.156319 -0.309554 0.324601
v 0.086751 -0.405565 0.180140
v -0.000000 -0.439831 0.000000
v -0.000000 0.718756 0.000000
v -0.086751 0.684490 0.180140
v -0.156319 0.588479 0.324601
v -0.194927 0.449738 0.404770
v -0.194927 -0.170814 0.404770
v -0.156319 -0.309554 0.324601
v -0.086751 -0.405565 0.180140
v -0.194927 0.684490 0.044491
v -0.351246 0.588479 0.080170
v -0.437997 0.449738 0.099970
v -0.437997 -0.170814 0.099970
v -0.351246 -0.309554 0.080170
v -0.194927 -0.405565 0.044491
v -0.156319 0.684490 -0.124660
v -0.281678 0.588479 -0.224630
v -0.351246 0.449738 -0.280110
v -0.351246 -0.170814 -0.280110
v -0.281678 -0.309554 -0.224630
v -0.156319 -0.405565 -0.124660
v 0.000000 -0.170814 -0.449261
v 0.000000 -0.405565 -0.199940
v -0.035487 -0.504646 0.352885
v -0.035487 -0.262396 0.352885
v -0.035487 -0.504646 -0.352885
v -0.035487 -0.262396 -0.352885
v 0.035487 -0.504646 0.352885
v 0.035487 -0.262396 0.352885
v 0.035487 -0.504646 -0.352885
v 0.035487 -0.262396 -0.352885
vt 0.923679 0.249382
vt 0.861610 0.249382
vt 0.861610 0.166719
vt 0.923679 0.166719
vt 0.861610 0.254529
vt 0.923679 0.254529
vt 0.923679 0.337137
vt 0.861610 0.337137
vt 0.910220 0.912181
vt 0.848150 0.912181
vt 0.848150 0.829517
vt 0.910220 0.829517
vt 0.861610 0.342283
vt 0.923679 0.342283
vt 0.923679 0.424891
vt 0.861610 0.424891
vt 0.713717 0.829173
vt 0.796360 0.829173
vt 0.796360 0.911836
vt 0.713717 0.911836
vt 0.604449 0.188715
vt 0.604449 0.002573
vt 0.637441 0.160522
vt 0.622758 0.276371
vt 0.062722 0.002573
vt 0.221721 0.002573
vt 0.221721 0.200961
vt 0.062722 0.200961
vt 0.675579 0.002573
vt 0.675579 0.187582
vt 0.657270 0.275112
vt 0.642588 0.160297
vt 0.604450 0.421327
vt 0.027174 0.106140
vt 0.027174 0.265234
vt 0.257269 0.106140
vt 0.257269 0.265234
vt 0.675579 0.419551
vt 0.652748 0.471791
vt 0.002573 0.381051
vt 0.027174 0.620293
vt 0.002573 0.578094
vt 0.221721 0.643712
vt 0.062722 0.643712
vt 0.281869 0.381051
vt 0.281869 0.578094
vt 0.257269 0.620293
vt 0.627280 0.473330
vt 0.027174 0.903950
vt 0.002573 0.735512
vt 0.221721 0.997427
vt 0.062722 0.997427
vt 0.281869 0.735512
vt 0.257269 0.903950
vt 0.614610 0.631279
vt 0.665418 0.629516
vt 0.907271 0.002573
vt 0.907271 0.161572
vt 0.861610 0.161572
vt 0.861610 0.002573
vt 0.657269 0.798911
vt 0.685739 0.629516
vt 0.693887 0.798911
vt 0.594289 0.631279
vt 0.622759 0.800045
vt 0.627281 0.894199
vt 0.581619 0.894199
vt 0.586141 0.800045
vt 0.652747 0.894186
vt 0.698409 0.894186
vt 0.581619 0.473330
vt 0.311616 0.096050
vt 0.347164 0.002573
vt 0.347164 0.356288
vt 0.311616 0.379706
vt 0.506163 0.002573
vt 0.541711 0.096050
vt 0.541711 0.379706
vt 0.506163 0.356288
vt 0.698409 0.471791
vt 0.287016 0.264488
vt 0.287016 0.421906
vt 0.566311 0.264488
vt 0.566311 0.421906
vt 0.586141 0.276371
vt 0.347164 0.799039
vt 0.311616 0.734766
vt 0.541711 0.734766
vt 0.506163 0.799039
vt 0.693888 0.275112
vt 0.287016 0.618949
vt 0.566311 0.618949
vt 0.541711 0.893860
vt 0.506163 0.997427
vt 0.571458 0.160522
vt 0.347164 0.997427
vt 0.708571 0.160298
vt 0.311616 0.893860
vt 0.775787 0.824026
vt 0.713717 0.824026
vt 0.713717 0.002573
vt 0.775787 0.002573
vt 0.869923 0.497254
vt 0.869923 0.559324
vt 0.861610 0.559324
vt 0.861610 0.497254
vt 0.843003 0.824026
vt 0.780934 0.824026
vt 0.780934 0.002573
vt 0.843003 0.002573
vt 0.869923 0.430038
vt 0.869923 0.492107
vt 0.861610 0.492107
vt 0.861610 0.430038
vt 0.848150 0.002573
vt 0.856463 0.002573
vt 0.856463 0.824370
vt 0.848150 0.824370
vn 0.5773 -0.5773 0.5773
vn 0.7071 0.0000 0.7071
vn -0.7071 0.0000 0.7071
vn -0.5773 -0.5773 0.5773
vn -0.7071 0.0000 -0.7071
vn -0.5773 -0.5773 -0.5773
vn 0.7071 0.0000 -0.7071
vn 0.5773 -0.5773 -0.5773
vn 0.0000 -0.9202 -0.3915
vn 0.0000 -0.6872 -0.7264
vn 0.5679 -0.6872 -0.4529
vn 0.3061 -0.9202 -0.2441
vn 0.0000 -0.2623 -0.9650
vn 0.0000 0.2623 -0.9650
vn 0.7544 0.2623 -0.6016
vn 0.7544 -0.2623 -0.6016
vn 0.0000 0.6872 -0.7264
vn 0.0000 0.9202 -0.3915
vn 0.3061 0.9202 -0.2441
vn 0.5679 0.6872 -0.4529
vn 0.0000 -1.0000 0.0000
vn 0.0000 1.0000 0.0000
vn 0.3817 0.9202 0.0871
vn 0.7082 -0.6872 0.1616
vn 0.3817 -0.9202 0.0871
vn 0.9408 0.2623 0.2147
vn 0.9408 -0.2623 0.2147
vn 0.7082 0.6872 0.1616
vn 0.3152 -0.6872 0.6545
vn 0.1699 -0.9202 0.3527
vn 0.4187 0.2623 0.8694
vn 0.4187 -0.2623 0.8694
vn 0.1699 0.9202 0.3527
vn 0.3152 0.6872 0.6545
vn -0.4187 0.2623 0.8694
vn -0.4187 -0.2623 0.8694
vn -0.1699 0.9202 0.3527
vn -0.3152 0.6872 0.6545
vn -0.1699 -0.9202 0.3527
vn -0.3152 -0.6872 0.6545
vn -0.3817 -0.9202 0.0871
vn -0.9408 -0.2623 0.2147
vn -0.7082 -0.6872 0.1616
vn -0.7082 0.6872 0.1616
vn -0.9408 0.2623 0.2147
vn -0.3817 0.9202 0.0871
vn -0.3061 -0.9202 -0.2441
vn -0.7544 -0.2623 -0.6016
vn -0.5679 -0.6872 -0.4529
vn -0.5679 0.6872 -0.4529
vn -0.7544 0.2623 -0.6016
vn -0.3061 0.9202 -0.2441
usemtl None
s 1
f 1/1/1 2/2/2 4/3/3 3/4/4
f 3/5/4 4/6/3 8/7/5 7/8/6
f 7/9/6 8/10/5 6/11/7 5/12/8
f 5/13/8 6/14/7 2/15/2 1/16/1
f 3/17/4 7/18/6 5/19/8 1/20/1
f 52/21/9 12/22/10 17/23/11 18/24/12
f 51/25/13 11/26/14 15/27/15 16/28/16
f 10/29/17 9/30/18 13/31/19 14/32/20
f 31/33/21 52/21/9 18/24/12
f 12/34/10 51/25/13 16/28/16 17/35/11
f 11/26/14 10/36/17 14/37/20 15/27/15
f 9/30/18 32/38/22 13/31/19
f 13/31/19 32/38/22 19/39/23
f 18/40/12 17/35/11 23/41/24 24/42/25
f 16/28/16 15/27/15 21/43/26 22/44/27
f 14/37/20 13/45/19 19/46/23 20/47/28
f 31/33/21 18/24/12 24/48/25
f 17/35/11 16/28/16 22/44/27 23/41/24
f 15/27/15 14/37/20 20/47/28 21/43/26
f 24/42/25 23/41/24 29/49/29 30/50/30
f 22/44/27 21/43/26 27/51/31 28/52/32
f 20/47/28 19/46/23 25/53/33 26/54/34
f 31/33/21 24/48/25 30/55/30
f 23/41/24 22/44/27 28/52/32 29/49/29
f 21/43/26 20/47/28 26/54/34 27/51/31
f 19/39/23 32/38/22 25/56/33
f 28/57/32 27/58/31 35/59/35 36/60/36
f 26/61/34 25/56/33 33/62/37 34/63/38
f 31/33/21 30/55/30 38/64/39
f 29/65/29 28/66/32 36/67/36 37/68/40
f 27/69/31 26/61/34 34/63/38 35/70/35
f 25/56/33 32/38/22 33/62/37
f 30/55/30 29/65/29 37/68/40 38/64/39
f 31/33/21 38/64/39 44/71/41
f 37/72/40 36/73/36 42/74/42 43/75/43
f 35/76/35 34/77/38 40/78/44 41/79/45
f 33/62/37 32/38/22 39/80/46
f 38/81/39 37/72/40 43/75/43 44/82/41
f 36/73/36 35/76/35 41/79/45 42/74/42
f 34/77/38 33/83/37 39/84/46 40/78/44
f 31/33/21 44/71/41 50/85/47
f 43/75/43 42/74/42 48/86/48 49/87/49
f 41/79/45 40/78/44 46/88/50 47/89/51
f 39/80/46 32/38/22 45/90/52
f 44/82/41 43/75/43 49/87/49 50/91/47
f 42/74/42 41/79/45 47/89/51 48/86/48
f 40/78/44 39/84/46 45/92/52 46/88/50
f 47/89/51 46/88/50 10/93/17 11/94/14
f 45/90/52 32/38/22 9/30/18
f 50/85/47 49/95/49 12/22/10 52/21/9
f 48/86/48 47/89/51 11/94/14 51/96/13
f 46/97/50 45/90/52 9/30/18 10/29/17
f 31/33/21 50/85/47 52/21/9
f 49/87/49 48/86/48 51/96/13 12/98/10
f 53/99/4 54/100/3 56/101/5 55/102/6
f 55/103/6 56/104/5 60/105/7 59/106/8
f 59/107/8 60/108/7 58/109/2 57/110/1
f 57/111/1 58/112/2 54/113/3 53/114/4
f 55/115/6 59/116/8 57/117/1 53/118/4
